SplineFontDB: 3.2
FontName: Jygre_Light
FullName: Jygre Light
FamilyName: Jygre Light
Weight: Light
Copyright: Copyright (c) 2022, RandomMaerks (Bao Nguyen)
UComments: "2022-3-5: Created with FontForge (http://fontforge.org)"
Version: 0.1
ItalicAngle: 0
UnderlinePosition: -100
UnderlineWidth: 50
Ascent: 800
Descent: 200
InvalidEm: 0
LayerCount: 2
Layer: 0 0 "Back" 1
Layer: 1 0 "Fore" 0
XUID: [1021 301 932173752 16092]
FSType: 0
OS2Version: 0
OS2_WeightWidthSlopeOnly: 0
OS2_UseTypoMetrics: 1
CreationTime: 1646452866
ModificationTime: 1674749174
PfmFamily: 17
TTFWeight: 300
TTFWidth: 5
LineGap: 90
VLineGap: 0
OS2TypoAscent: 0
OS2TypoAOffset: 1
OS2TypoDescent: 0
OS2TypoDOffset: 1
OS2TypoLinegap: 90
OS2WinAscent: 0
OS2WinAOffset: 1
OS2WinDescent: 0
OS2WinDOffset: 1
HheadAscent: 0
HheadAOffset: 1
HheadDescent: 0
HheadDOffset: 1
OS2Vendor: 'PfEd'
Lookup: 1 0 0 "Cygre-Light-'ss01' Style Set 1 in Latin lookup 7" { "Cygre-Light-'ss01' Style Set 1 in Latin lookup 7-1"  } ['ss01' ('DFLT' <'dflt' > 'latn' <'dflt' > ) ]
Lookup: 1 0 0 "Cygre-Light-'ss02' Style Set 2 in Latin lookup 8" { "Cygre-Light-'ss02' Style Set 2 in Latin lookup 8-1"  } ['ss02' ('DFLT' <'dflt' > 'latn' <'dflt' > ) ]
Lookup: 4 0 1 "Cygre-Light-'liga' Standard Ligatures in Latin lookup 5" { "Cygre-Light-'liga' Standard Ligatures in Latin lookup 5-1"  } ['liga' ('DFLT' <'dflt' > 'latn' <'dflt' > ) ]
Lookup: 258 0 0 "Cygre-Light-'kern' Horizontal Kerning lookup 1" { "Cygre-Light-'kern' HKL Lower-UpperLower" [150,0,0] "Cygre-Light-'kern' HKL Upper-UpperLower" [150,0,0] } ['kern' ('DFLT' <'dflt' > 'cyrl' <'dflt' > 'latn' <'dflt' > ) ]
Lookup: 262 0 0 "Cygre-Light-'mkmk' Mark to Mark in Latin lookup 0" { "Cygre-Light-'mkmk' Mark to Mark in Latin lookup 0-1"  } ['mkmk' ('DFLT' <'dflt' > 'latn' <'dflt' > ) ]
MarkAttachClasses: 1
DEI: 91125
KernClass2: 24 38 "Cygre-Light-'kern' HKL Lower-UpperLower"

StartChar: n
Encoding: 110 110 0
Width: 571
Flags: HW
LayerCount: 2
Fore
SplineSet
450 281 m 2
 450 379.955803533 378.823228358 458 288.57494662 458 c 0
 197.072216294 458 121 377.649192462 121 281 c 1
 116 281 l 1
 116 422.790606533 189.910819494 519 298.838436101 519 c 0
 411.736913523 519 511 417.005310415 511 301 c 2
 511 0 l 1
 450 0 l 1
 450 281 l 2
60 500 m 1
 111 500 l 1
 121 281 l 1
 121 0 l 1
 60 0 l 1
 60 500 l 1
EndSplineSet
EndChar

StartChar: h
Encoding: 104 104 1
Width: 571
Flags: HW
LayerCount: 2
Fore
SplineSet
450 281 m 2
 450 379.955803533 378.823228358 458 288.57494662 458 c 0
 197.072216294 458 121 377.649192462 121 281 c 1
 116 281 l 1
 116 422.790606533 189.910819494 519 298.838436101 519 c 0
 411.736913523 519 511 417.005310415 511 301 c 2
 511 0 l 1
 450 0 l 1
 450 281 l 2
60 750 m 1
 121 750 l 1
 121 0 l 1
 60 0 l 1
 60 750 l 1
EndSplineSet
EndChar

StartChar: m
Encoding: 109 109 2
Width: 921
Flags: HW
LayerCount: 2
Fore
SplineSet
800 281 m 2
 800 379.832214543 755.241399358 458 655.455078125 458 c 0
 565.818600604 458 491 377.474105282 491 281 c 1
 486 281 l 1
 486 422.948570928 558.637237938 519 665.983398438 519 c 0
 788.816448734 519 861 416.726976454 861 301 c 2
 861 0 l 1
 800 0 l 1
 800 281 l 2
430 281 m 2
 430 379.832214543 367.490095561 458 288.455078125 458 c 4
 197.183446277 458 121 377.474105282 121 281 c 1
 116 281 l 1
 116 422.948570928 189.847970237 519 298.983398438 519 c 4
 400.916888015 519 491 416.726976454 491 301 c 2
 491 0 l 1
 430 0 l 1
 430 281 l 2
60 500 m 1
 111 500 l 1
 121 281 l 1
 121 0 l 1
 60 0 l 1
 60 500 l 1
EndSplineSet
EndChar

StartChar: u
Encoding: 117 117 3
Width: 571
Flags: W
HStem: -19 61<197.847 351.731> 0 21G<459.087 511> 480 20G<60 121 450 511>
VStem: 60 61<131.458 500> 450 5<75.6107 219> 460 51<0 153.3>
LayerCount: 2
Fore
SplineSet
121 239 m 2xbc
 121 118.062982463 180.784355504 42 275.839024884 42 c 0
 372.389144559 42 450 120.876001951 450 219 c 1
 455 219 l 1
 455 75.6106945307 379.783918845 -19 265.788543476 -19 c 0
 147.229446844 -19 60 81.8832075791 60 219 c 2
 60 500 l 1
 121 500 l 1
 121 239 l 2xbc
511 0 m 1x7c
 460 0 l 1
 450 219 l 1
 450 500 l 1
 511 500 l 1
 511 0 l 1x7c
EndSplineSet
EndChar

StartChar: o
Encoding: 111 111 4
Width: 601
Flags: HW
LayerCount: 2
Fore
SplineSet
101 251 m 0
 101 135.00996645 189.414571679 41 298.500975202 41 c 0
 408.680618137 41 500 136.17202483 500 251 c 0
 500 365.282800847 409.21190271 459 298.500975202 459 c 0
 188.895811533 459 101 366.431703666 101 251 c 0
40 250.5 m 0
 40 399.407478401 155.903420534 520 299.020803444 520 c 0
 442.95328564 520 561 398.56444352 561 250.5 c 0
 561 102.161872869 442.686250262 -20 299.020803444 -20 c 0
 156.166871074 -20 40 101.315115264 40 250.5 c 0
EndSplineSet
EndChar

StartChar: b
Encoding: 98 98 5
Width: 621
Flags: HW
LayerCount: 2
Fore
SplineSet
121 250.891064162 m 0
 121 135.00996645 209.414571679 41 318.710878992 41 c 0
 428.680618137 41 520 136.17202483 520 250.894516464 c 0
 520 365.282800847 429.21190271 459 318.714157854 459 c 0
 208.895811533 459 121 366.431703666 121 250.891064162 c 0
110 250.444995931 m 0
 110 400.191434707 206.251881761 520 335.307925316 520 c 0
 465.631499933 520 581 397.826464732 581 250.447740792 c 0
 581 102.903110467 465.37160972 -20 335.290025765 -20 c 0
 206.471653028 -20 110 100.527697118 110 250.444995931 c 0
60 750 m 1
 121 750 l 1
 121 251 l 1
 111 0 l 1
 60 0 l 1
 60 750 l 1
EndSplineSet
EndChar

StartChar: i
Encoding: 105 105 6
Width: 181
Flags: HW
LayerCount: 2
Fore
SplineSet
51 630 m 0
 51 652 68 669 90 669 c 0
 112.282740439 669 130 651.725671928 130 630 c 0
 130 608 112 590 90 590 c 0
 68.2743280724 590 51 607.717259561 51 630 c 0
60 500 m 5
 121 500 l 5
 121 0 l 5
 60 0 l 5
 60 500 l 5
EndSplineSet
EndChar

StartChar: l
Encoding: 108 108 7
Width: 181
Flags: W
HStem: 0 21G<60 121> 730 20G<60 121>
VStem: 60 61<0 750>
LayerCount: 2
Fore
SplineSet
60 750 m 5
 121 750 l 5
 121 0 l 5
 60 0 l 5
 60 750 l 5
EndSplineSet
EndChar

StartChar: a
Encoding: 97 97 8
Width: 621
Flags: W
HStem: -20 59<215.172 370.163> 461 59<215.423 370.689>
VStem: 40 61<158.621 341.658> 500 61<154.467 346.727> 500 11<100.053 401.137> 510 51<0 175.581 325.581 500>
LayerCount: 2
Fore
SplineSet
500 250.829899697 m 0xf0
 500 134.005318558 411.103039816 39 301.789684567 39 c 0
 191.955351124 39 101 134.951856297 101 250.819785439 c 0
 101 366.445070963 191.332956387 461 301.795456658 461 c 0
 411.725843231 461 500 367.396755243 500 250.829899697 c 0xf0
511 250.849852811 m 0xe8
 511 401.136972658 409.520919862 520 281.21358141 520 c 0
 150.077533897 520 40 396.557643458 40 249.5 c 0
 40 102.983583576 149.593742993 -20 280.1581811 -20 c 0
 408.68079424 -20 511 100.052518872 511 250.849852811 c 0xe8
561 500 m 1xe4
 510 500 l 5xe4
 500 250.830078125 l 5xf0
 510 0 l 1
 561 0 l 1
 561 500 l 1xe4
EndSplineSet
EndChar

StartChar: r
Encoding: 114 114 9
Width: 350
Flags: HW
LayerCount: 2
Fore
SplineSet
60 500 m 1
 60 0 l 1
 121 0 l 1
 121 281 l 1
 111 500 l 1
 60 500 l 1
282 500 m 2
 179.52449662 500 116 416.193585785 116 281 c 1
 121 281 l 1
 121 369.554837691 192.891694573 441 282 441 c 2
 330 441 l 1
 330 500 l 1
 282 500 l 2
EndSplineSet
EndChar

StartChar: e
Encoding: 101 101 10
Width: 601
Flags: HW
LayerCount: 2
Fore
SplineSet
492 146 m 1
 450.446988379 79.8387028203 383.039687157 41 309.765112779 41 c 0
 194.627948249 41 101 136.065333591 101 252.970095037 c 0
 101 367.80997096 190.247172975 459 302.640319231 459 c 0
 409.910611251 459 500 377.747785086 500 281 c 1
 83 281 l 1
 83 228 l 5
 552 228 l 5
 557.535313038 239.99317825 561 258.471508713 561 276 c 0
 561 409.101580174 443.483859808 520 302.439614272 520 c 0
 157.167991663 520 40 400.693405289 40 252.77021948 c 0
 40 103.143087844 161.664244514 -20 309.49448207 -20 c 0
 402.456762219 -20 489.516710819 29.5875783421 543 113 c 1
 492 146 l 1
EndSplineSet
EndChar

StartChar: t
Encoding: 116 116 11
Width: 472
Flags: W
HStem: -20 61<250.083 373.283> 441 59<103 150.752>
VStem: 151 61<81.0098 152 500.48 550>
LayerCount: 2
Fore
SplineSet
410 100 m 1
 387.962117299 64.3196184836 346.057966361 41 303.980044868 41 c 0
 252.414862252 41 212 89.7719887114 212 152 c 0
 212 441 l 5
 438 441 l 5
 438 500 l 1
 212 500 l 1
 212 670 l 1
 157 670 l 1
 157 550 l 1
 157 507.374987488 144.102690637 494 103 494 c 1
 10 494 l 1
 10 441 l 5
 151 441 l 5
 151 132 l 0
 151 49.6991641489 218.459112693 -20 298.114893767 -20 c 0
 357.424514959 -20 415.625213864 9.50028515251 452 58 c 1
 410 100 l 1
EndSplineSet
EndChar

StartChar: g
Encoding: 103 103 13
Width: 601
Flags: HW
LayerCount: 2
Fore
SplineSet
179 59 m 1
 184 42 l 1
 139.38595873 30.7309671901 111 -0.477334080521 111 -38.2582014026 c 0
 111 -97.3579620405 185.70819396 -139 291.736539282 -139 c 0
 384.110101536 -139 473.216944077 -103.855920903 525 -47 c 1
 560 -95 l 1
 490.687833676 -163.799299621 400.929747213 -200 299.656996136 -200 c 0
 155.876155678 -200 50 -141.753130633 50 -62.6533203125 c 0
 50 -15.5314795322 93.1796693842 25.1890642708 179 59 c 1
101 260.5 m 0
 101 150.184846992 189.291199269 61 298.500975202 61 c 0
 408.806969127 61 500 151.288326097 500 260.5 c 0
 500 369.439087368 409.085961938 459 298.500975202 459 c 0
 189.018783395 459 101 370.53598869 101 260.5 c 0
166 475 m 5
 211.503711405 504.804438382 255.553399669 518 309.543461829 518 c 0
 439.483627844 518 561 389.726642363 561 252.561081124 c 0
 561 115.603153728 441.085953076 0 299.020803444 0 c 0
 154.921190335 0 40 117.603846511 40 265.067240625 c 0
 40 340.647680079 68.4104059371 406.742893259 134 467 c 2
 380 693 l 1
 423 650 l 1
 166 475 l 5
EndSplineSet
EndChar

StartChar: d
Encoding: 100 100 14
Width: 621
Flags: HW
LayerCount: 2
Fore
SplineSet
500 250.891064162 m 4
 500 134.935695999 411.515484955 41 302.289121008 41 c 4
 192.294739216 41 101 136.197718821 101 250.894516464 c 4
 101 365.209392959 191.717077718 459 302.285842146 459 c 4
 412.079781738 459 500 366.457395769 500 250.891064162 c 4
511 250.444995931 m 4
 511 402.525563687 412.808828908 520 285.692074684 520 c 4
 153.358152064 520 40 395.633163879 40 250.447740792 c 4
 40 105.080383924 153.639322042 -20 285.709974235 -20 c 4
 412.568275529 -20 511 98.160434461 511 250.444995931 c 4
561 750 m 5
 500 750 l 5
 500 251 l 5
 510 0 l 5
 561 0 l 5
 561 750 l 5
EndSplineSet
EndChar

StartChar: j
Encoding: 106 106 15
Width: 181
Flags: HW
LayerCount: 2
Fore
SplineSet
-15 -200 m 6
 -40 -200 l 5
 -40 -139 l 5
 -15 -139 l 6
 31.5499005466 -139 60 -99.5491954246 60 -35 c 5
 121 -35 l 5
 121 -136.796337092 68.9048596636 -200 -15 -200 c 6
51 630 m 0
 51 652 68 669 90 669 c 0
 112.282740439 669 130 651.725671928 130 630 c 0
 130 608 112 590 90 590 c 0
 68.2743280724 590 51 607.717259561 51 630 c 0
60 500 m 1
 121 500 l 1
 121 -35 l 5
 60 -35 l 5
 60 500 l 1
EndSplineSet
EndChar

StartChar: k
Encoding: 107 107 16
Width: 504
Flags: HW
LayerCount: 2
Fore
SplineSet
402 1 m 1
 186 237 l 1
 235 278 l 1
 484 1 l 1
 402 1 l 1
402 500 m 1
 484 500 l 1
 121 133 l 1
 107 149 l 5
 402 500 l 1
60 750 m 1
 121 750 l 1
 121 0 l 1
 60 0 l 1
 60 750 l 1
EndSplineSet
EndChar

StartChar: p
Encoding: 112 112 17
Width: 621
Flags: HW
LayerCount: 2
Fore
SplineSet
121 249.108935838 m 0
 121 365.064304001 209.484515045 459 318.710878992 459 c 0
 428.705260784 459 520 363.802281179 520 249.105483536 c 0
 520 134.790607041 429.282922282 41 318.714157854 41 c 0
 208.920218262 41 121 133.542604231 121 249.108935838 c 0
110 249.555004069 m 0
 110 97.474436313 208.191171092 -20 335.307925316 -20 c 0
 467.641847936 -20 581 104.366836121 581 249.552259208 c 0
 581 394.919616076 467.360677958 520 335.290025765 520 c 0
 208.431724471 520 110 401.839565539 110 249.555004069 c 0
60 -200 m 1
 121 -200 l 1
 121 249 l 1
 111 500 l 1
 60 500 l 1
 60 -200 l 1
EndSplineSet
EndChar

StartChar: q
Encoding: 113 113 18
Width: 621
Flags: HW
LayerCount: 2
Fore
SplineSet
500 249.108935838 m 0
 500 365.064304001 411.515484955 459 302.289121008 459 c 0
 192.294739216 459 101 363.802281179 101 249.105483536 c 0
 101 134.790607041 191.717077718 41 302.285842146 41 c 0
 412.079781738 41 500 133.542604231 500 249.108935838 c 0
511 249.555004069 m 0
 511 97.474436313 412.808828908 -20 285.692074684 -20 c 0
 153.358152064 -20 40 104.366836121 40 249.552259208 c 0
 40 394.919616076 153.639322042 520 285.709974235 520 c 0
 412.568275529 520 511 401.839565539 511 249.555004069 c 0
561 -200 m 1
 500 -200 l 1
 500 249 l 1
 510 500 l 1
 561 500 l 1
 561 -200 l 1
EndSplineSet
EndChar

StartChar: f
Encoding: 102 102 19
Width: 512
Flags: HW
LayerCount: 2
Fore
SplineSet
472 666 m 1
 430.566863761 687.667060073 390.882793102 699 356.4453125 699 c 0
 274.870394701 699 232 639.939114947 232 558 c 2
 232 500 l 1
 488 500 l 1
 488 441 l 5
 232 441 l 5
 232 0 l 1
 171 0 l 1
 171 441 l 5
 20 441 l 5
 20 500 l 1
 171 500 l 1
 171 578 l 2
 171 678.109118695 244.140259319 760 354.62890625 760 c 0
 396.740894005 760 441.876889259 747.514346921 492 722 c 1
 472 666 l 1
EndSplineSet
EndChar

StartChar: c
Encoding: 99 99 20
Width: 583
Flags: HW
LayerCount: 2
Fore
SplineSet
101 250 m 4
 101 134.671464966 193.32258331 41 306.990371974 41 c 4
 380.463226255 41 449.531611189 80.1989351878 492 146 c 5
 543 113 l 5
 488.596345124 29.9422164429 399.867916131 -20 306.709304542 -20 c 4
 160.299753506 -20 40 101.784028129 40 250 c 4
 40 398.215971871 160.299753506 520 306.709304542 520 c 4
 399.867916131 520 488.596345124 470.057783557 543 387 c 5
 492 354 l 5
 449.531611189 419.801064812 380.463226255 459 306.990371974 459 c 4
 193.32258331 459 101 365.328535034 101 250 c 4
EndSplineSet
EndChar

StartChar: v
Encoding: 118 118 21
Width: 544
Flags: HW
LayerCount: 2
Fore
SplineSet
458 500 m 1
 524 500 l 1
 322 0 l 1
 222 0 l 1
 20 500 l 1
 86 500 l 1
 272 28 l 5
 458 500 l 1
EndSplineSet
EndChar

StartChar: s
Encoding: 115 115 22
Width: 433
Flags: HW
LayerCount: 2
Fore
SplineSet
393 124.494140625 m 0
 393 201.687798471 340 242.487305753 222.409179688 283.161132812 c 4
 157.801430045 304.782610578 111 333.334796748 111 380.512695312 c 0
 111 424.240610985 155.592820251 459 211.691363371 459 c 0
 271.189231028 459 318.327505573 423.947938716 326 374 c 1
 381 394 l 1
 366.385298717 465.740809693 291.359938584 520 206.777065168 520 c 0
 119.786530357 520 50 455.798799242 50 375.770507812 c 0
 50 298.188389701 101.469952069 254.852236367 210.540039062 219.212890625 c 0
 298.000070415 191.552143065 332 166.933439942 332 119.046875 c 0
 332 75.1043672113 284.887609793 39 227.547273054 39 c 0
 166.486573724 39 114.101764606 81.4586703193 98 144 c 1
 40 121 l 1
 60.216407131 39.9823684147 142.339600902 -22 229.467053448 -22 c 0
 319.791789678 -22 393 43.5805089059 393 124.494140625 c 0
EndSplineSet
EndChar

StartChar: w
Encoding: 119 119 23
Width: 822
Flags: HW
LayerCount: 2
Fore
SplineSet
736 500 m 1
 802 500 l 1
 650 0 l 1
 530 0 l 1
 411 472 l 5
 292 0 l 1
 172 0 l 1
 20 500 l 1
 86 500 l 1
 232 28 l 1
 348 500 l 1
 474 500 l 1
 590 28 l 1
 736 500 l 1
EndSplineSet
EndChar

StartChar: y
Encoding: 121 121 24
Width: 544
Flags: HW
LayerCount: 2
Fore
SplineSet
458 500 m 1
 524 500 l 1
 254 -180 l 1
 20 -180 l 1
 20 -118 l 1
 215 -118 l 5
 249 -30 l 5
 20 500 l 1
 86 500 l 1
 282 38 l 1
 458 500 l 1
EndSplineSet
EndChar

StartChar: L
Encoding: 76 76 25
Width: 507
Flags: W
HStem: 0 59<121 467> 680 20G<60 121>
VStem: 60 61<59 700>
LayerCount: 2
Fore
SplineSet
121 59 m 5
 467 59 l 5
 467 0 l 5
 60 0 l 5
 60 700 l 5
 121 700 l 5
 121 59 l 5
EndSplineSet
EndChar

StartChar: x
Encoding: 120 120 26
Width: 504
Flags: HW
LayerCount: 2
Fore
SplineSet
408 500 m 1
 484 500 l 1
 322 250 l 1
 484 0 l 1
 408 0 l 1
 254 242 l 5
 96 0 l 1
 20 0 l 1
 182 250 l 1
 20 500 l 1
 96 500 l 1
 252 258 l 1
 408 500 l 1
EndSplineSet
EndChar

StartChar: z
Encoding: 122 122 27
Width: 478
Flags: HW
LayerCount: 2
Fore
SplineSet
448 60 m 1
 448 1 l 1
 30 1 l 1
 30 120 l 1
 433 441 l 1
 30 441 l 1
 30 500 l 1
 448 500 l 1
 448 381 l 5
 45 60 l 1
 448 60 l 1
EndSplineSet
EndChar

StartChar: I
Encoding: 73 73 28
Width: 181
Flags: HW
LayerCount: 2
Fore
SplineSet
60 700 m 5
 121 700 l 5
 121 0 l 5
 60 0 l 5
 60 700 l 5
EndSplineSet
EndChar

StartChar: H
Encoding: 72 72 29
Width: 667
Flags: HW
LayerCount: 2
Fore
SplineSet
546 700 m 1
 607 700 l 1
 607 0 l 1
 546 0 l 1
 546 700 l 1
70 389 m 1
 597 389 l 1
 597 330 l 1
 70 330 l 1
 70 389 l 1
60 700 m 1
 121 700 l 1
 121 0 l 1
 60 0 l 1
 60 700 l 1
EndSplineSet
EndChar

StartChar: N
Encoding: 78 78 30
Width: 667
Flags: HW
LayerCount: 2
Fore
SplineSet
121 676 m 1
 121 0 l 1
 60 0 l 1
 60 700 l 1
 169 700 l 1
 546 39 l 5
 546 700 l 1
 607 700 l 1
 607 0 l 1
 498 0 l 1
 121 676 l 1
EndSplineSet
EndChar

StartChar: T
Encoding: 84 84 31
Width: 627
Flags: HW
LayerCount: 2
Fore
SplineSet
40 700 m 5
 587 700 l 5
 587 641 l 5
 40 641 l 5
 40 700 l 5
283 690 m 1
 344 690 l 1
 344 0 l 1
 283 0 l 1
 283 690 l 1
EndSplineSet
EndChar

StartChar: J
Encoding: 74 74 32
Width: 582
Flags: HW
LayerCount: 2
Fore
SplineSet
114 195 m 5
 134.803700456 101.867154935 202.607989568 41 285.55164447 41 c 4
 382.869291899 41 461 130.509373176 461 242 c 6
 461 641 l 5
 235 641 l 5
 235 700 l 5
 522 700 l 5
 522 222 l 6
 522 93.3784870823 410.752537194 -20 284.548551389 -20 c 4
 182.012707715 -20 98.8869955553 47.7448383933 60 163 c 5
 114 195 l 5
EndSplineSet
EndChar

StartChar: K
Encoding: 75 75 33
Width: 559
Flags: HW
LayerCount: 2
Fore
SplineSet
492 0 m 1
 186 325 l 1
 235 366 l 1
 579 0 l 1
 492 0 l 1
492 700 m 1
 579 700 l 1
 121 221 l 1
 76 224 l 5
 492 700 l 1
60 700 m 1
 121 700 l 1
 121 0 l 1
 60 0 l 1
 60 700 l 1
EndSplineSet
EndChar

StartChar: M
Encoding: 77 77 34
Width: 813
Flags: HW
LayerCount: 2
Fore
SplineSet
179 700 m 1
 60 700 l 1
 60 0 l 1
 121 0 l 1
 121 679 l 1
 346 170 l 1
 467 170 l 5
 692 679 l 1
 692 0 l 1
 753 0 l 1
 753 700 l 1
 632 700 l 1
 404.5 184.71484375 l 1
 179 700 l 1
EndSplineSet
EndChar

StartChar: O
Encoding: 79 79 35
Width: 801
Flags: W
LayerCount: 2
Fore
SplineSet
101 351.263278388 m 4
 101 180.12992591 234.411358414 41 398.510727222 41 c 4
 563.698917325 41 700 181.267746076 700 351.263278388 c 4
 700 520.567354615 564.377714277 659 398.510727222 659 c 4
 233.743210761 659 101 521.694159376 101 351.263278388 c 4
40 350.518518773 m 4
 40 554.400050705 201.004760348 720 399.228837877 720 c 4
 598.15300725 720 761 553.682298662 761 350.518518773 c 4
 761 147.070200522 597.87406287 -20 399.228837877 -20 c 4
 201.281373418 -20 40 146.350051231 40 350.518518773 c 4
EndSplineSet
EndChar

StartChar: C
Encoding: 67 67 36
Width: 743
Flags: HW
LayerCount: 2
Fore
SplineSet
101 350 m 0
 101 179.653420957 233.696295881 41 396.724080546 41 c 0
 498.3643029 41 593.482191192 95.0281818661 652 186 c 5
 703 153 l 5
 632.476506414 44.8838650835 517.496570972 -20 396.428731385 -20 c 0
 200.885419293 -20 40 147.011242071 40 350 c 0
 40 553.51753178 201.395662654 720 398.694797238 720 c 0
 517.940927934 720 632.715530787 658.521392026 703 557 c 5
 652 524 l 5
 593.721056751 608.352168803 498.799959284 659 398.991177011 659 c 0
 234.207508328 659 101 520.871346372 101 350 c 0
EndSplineSet
EndChar

StartChar: G
Encoding: 71 71 37
Width: 801
Flags: HW
LayerCount: 2
Fore
SplineSet
700 301 m 5
 388 301 l 5
 388 359 l 5
 755 359 l 5
 759.115191539 342.586394358 761 324.818848293 761 302.439729502 c 4
 761 112.468132303 623.379471032 -20 426.018858778 -20 c 4
 211.428460112 -20 40 145.549009715 40 352.77964091 c 4
 40 554.143029959 202.006356039 720 398.694797238 720 c 4
 517.940927934 720 632.715530787 658.521392026 703 557 c 5
 652 524 l 5
 593.721056751 608.352168803 498.799959284 659 398.991177011 659 c 4
 234.815570585 659 101 521.486846459 101 352.774750585 c 4
 101 178.47756011 243.925822607 41 425.130444703 41 c 4
 588.950798517 41 700 146.041798297 700 301 c 5
EndSplineSet
EndChar

StartChar: Q
Encoding: 81 81 38
Width: 801
Flags: HW
LayerCount: 2
Fore
SplineSet
364 332.5 m 5
 407 375.5 l 5
 761 22.5 l 5
 718 -20.5 l 5
 364 332.5 l 5
101 351.263278388 m 0
 101 180.12992591 234.411358414 41 398.510727222 41 c 0
 563.698917325 41 700 181.267746076 700 351.263278388 c 0
 700 520.567354615 564.377714277 659 398.510727222 659 c 0
 233.743210761 659 101 521.694159376 101 351.263278388 c 0
40 350.518518773 m 0
 40 554.400050705 201.004760348 720 399.228837877 720 c 0
 598.15300725 720 761 553.682298662 761 350.518518773 c 0
 761 147.070200522 597.87406287 -20 399.228837877 -20 c 0
 201.281373418 -20 40 146.350051231 40 350.518518773 c 0
EndSplineSet
EndChar

StartChar: exclam
Encoding: 33 33 39
Width: 215
Flags: HW
LayerCount: 2
Fore
SplineSet
76 700 m 5
 137 700 l 5
 137 190 l 5
 76 190 l 5
 76 700 l 5
60 27 m 4
 60 53 81 74 107 74 c 4
 133.27714438 74 155 52.7297038725 155 27 c 4
 155 1 133 -21 107 -21 c 4
 81.2702961275 -21 60 0.72285561955 60 27 c 4
EndSplineSet
EndChar

StartChar: E
Encoding: 69 69 40
Width: 547
Flags: W
HStem: 0 59<121 507> 331 59<121 462> 641 59<121 507>
VStem: 60 61<59 331 390 641>
LayerCount: 2
Fore
SplineSet
121 331 m 1
 121 59 l 1
 507 59 l 5
 507 0 l 5
 60 0 l 1
 60 700 l 1
 507 700 l 5
 507 641 l 5
 121 641 l 1
 121 390 l 1
 462 390 l 5
 462 331 l 5
 121 331 l 1
EndSplineSet
EndChar

StartChar: F
Encoding: 70 70 41
Width: 547
Flags: HW
LayerCount: 2
Fore
SplineSet
121 331 m 1
 121 0 l 1
 60 0 l 1
 60 700 l 1
 507 700 l 1
 507 641 l 1
 121 641 l 1
 121 390 l 1
 462 390 l 1
 462 331 l 1
 121 331 l 1
EndSplineSet
EndChar

StartChar: V
Encoding: 86 86 42
Width: 659
Flags: HW
LayerCount: 2
Fore
SplineSet
573 700 m 1
 639 700 l 1
 391 0 l 1
 265 0 l 1
 20 700 l 1
 86 700 l 1
 328 18 l 5
 573 700 l 1
EndSplineSet
EndChar

StartChar: W
Encoding: 87 87 43
Width: 966
Flags: HW
LayerCount: 2
Fore
SplineSet
875 700 m 1
 946 700 l 1
 777 0 l 1
 647 0 l 1
 483 677 l 5
 319 0 l 1
 189 0 l 1
 20 700 l 1
 91 700 l 1
 254 23 l 1
 415 700 l 1
 551 700 l 1
 712 23 l 1
 875 700 l 1
EndSplineSet
EndChar

StartChar: Y
Encoding: 89 89 44
Width: 604
Flags: HW
LayerCount: 2
Fore
SplineSet
518 700 m 5
 584 700 l 5
 335 230 l 5
 335 62 l 5
 467 62 l 5
 467 0 l 5
 143 0 l 5
 143 62 l 5
 275 62 l 5
 275 230 l 5
 20 700 l 5
 86 700 l 5
 305 298 l 5
 518 700 l 5
EndSplineSet
EndChar

StartChar: B
Encoding: 66 66 45
Width: 612
Flags: HW
LayerCount: 2
Fore
SplineSet
357 0 m 2
 60 0 l 1
 60 700 l 1
 327 700 l 2
 450.827757649 700 542 621.446807882 542 514.757914582 c 0
 542 460.749831577 499.516025126 415.429102248 422.129882812 386.883789062 c 1
 516.467422905 359.41523337 572 275.821968173 572 188.271877708 c 0
 572 77.1523398718 483.894685099 0 357 0 c 2
357 59 m 2
 449.167804707 59 511 111.999996438 511 191.002420629 c 0
 511 272.391961636 446.530043101 331 357 331 c 2
 121 331 l 1
 121 59 l 1
 357 59 l 2
121 390 m 1
 327 390 l 2
 418.847231323 390 481 439.528820175 481 512.720813075 c 0
 481 587.572274996 416.859667902 641 327 641 c 2
 121 641 l 1
 121 390 l 1
EndSplineSet
EndChar

StartChar: X
Encoding: 88 88 46
Width: 638
Flags: HW
LayerCount: 2
Fore
SplineSet
539 700 m 1
 618 700 l 1
 389 339 l 1
 618 0 l 1
 539 0 l 1
 321 328 l 5
 99 0 l 1
 20 0 l 1
 249 339 l 1
 20 700 l 1
 99 700 l 1
 319 350 l 1
 539 700 l 1
EndSplineSet
EndChar

StartChar: Z
Encoding: 90 90 47
Width: 578
Flags: HW
LayerCount: 2
Fore
SplineSet
548 60 m 1
 548 1 l 1
 30 1 l 1
 30 130 l 5
 533 641 l 1
 30 641 l 1
 30 700 l 1
 548 700 l 1
 548 571 l 1
 45 60 l 1
 548 60 l 1
EndSplineSet
EndChar

StartChar: U
Encoding: 85 85 48
Width: 661
Flags: HW
LayerCount: 2
Fore
SplineSet
121 271 m 6
 121 143.675641985 213.539977724 41 328.29546429 41 c 0
 444.130144143 41 540 145.154909923 540 271 c 6
 540 700 l 1
 601 700 l 1
 601 261 l 6
 601 106.712846263 478.263424823 -20 328.817828719 -20 c 0
 180.158742033 -20 60 105.604044465 60 261 c 6
 60 700 l 1
 121 700 l 1
 121 271 l 6
EndSplineSet
EndChar

StartChar: R
Encoding: 82 82 49
Width: 602
Flags: HW
LayerCount: 2
Fore
SplineSet
486 0 m 1
 303 285 l 5
 340 326 l 5
 562 0 l 1
 486 0 l 1
121 0 m 1
 60 0 l 1
 60 700 l 1
 327 700 l 2
 460.219346434 700 562 610.583974177 562 493.54852487 c 0
 562 370.307392578 463.25907828 281 327 281 c 2
 121 281 l 1
 121 0 l 1
121 340 m 1
 327 340 l 2
 431.427701195 340 501 398.063000702 501 485.215298268 c 0
 501 575.523421553 427.867500319 641 327 641 c 2
 121 641 l 1
 121 340 l 1
EndSplineSet
EndChar

StartChar: A
Encoding: 65 65 50
Width: 659
Flags: W
HStem: 0 21G<20 93.0968 565.815 639> 183 59<145 511> 680 20G<258 398.086>
LayerCount: 2
Fore
SplineSet
145 183 m 1
 145 242 l 1
 511 242 l 1
 511 183 l 1
 145 183 l 1
573 0 m 1
 328 682 l 5
 86 0 l 1
 20 0 l 1
 265 700 l 1
 391 700 l 1
 639 0 l 1
 573 0 l 1
EndSplineSet
EndChar

StartChar: D
Encoding: 68 68 51
Width: 662
Flags: HW
LayerCount: 2
Fore
SplineSet
287 59 m 2
 451.036843033 59 561 172.279382348 561 341.263183594 c 4
 561 515.464115474 446.243218459 641 287 641 c 2
 121 641 l 1
 121 59 l 1
 287 59 l 2
287 0 m 2
 60 0 l 1
 60 700 l 1
 287 700 l 2
 480.332959539 700 622 547.980082214 622 340.518554688 c 4
 622 138.645032137 485.601894445 0 287 0 c 2
EndSplineSet
EndChar

StartChar: P
Encoding: 80 80 52
Width: 602
Flags: HW
LayerCount: 2
Fore
SplineSet
121 0 m 1
 60 0 l 1
 60 700 l 1
 327 700 l 2
 460.219346434 700 562 610.583974177 562 493.54852487 c 4
 562 370.307392578 463.25907828 281 327 281 c 2
 121 281 l 1
 121 0 l 1
121 340 m 1
 327 340 l 2
 431.427701195 340 501 398.063000702 501 485.215298268 c 4
 501 575.523421553 427.867500319 641 327 641 c 2
 121 641 l 1
 121 340 l 1
EndSplineSet
EndChar

StartChar: hyphen
Encoding: 45 45 53
Width: 396
Flags: HW
LayerCount: 2
Fore
SplineSet
40 253 m 5
 40 312 l 5
 356 312 l 5
 356 253 l 5
 40 253 l 5
EndSplineSet
EndChar

StartChar: S
Encoding: 83 83 54
Width: 533
Flags: HW
LayerCount: 2
Fore
SplineSet
493 181.773010156 m 0
 493 270.565757457 446.90263449 320.094740833 323.927864983 363.431351624 c 0
 148.394482028 425.289746874 111 453.476845133 111 523.931466261 c 0
 111 600.802524186 177.11807259 659 264.451176248 659 c 0
 346.333127617 659 411.412316372 615.62731935 422 554 c 5
 478 571 l 1
 461.51046885 655.612945518 376 720 258.148862741 720 c 0
 141.024905283 720 50 632.060366426 50 518.906303045 c 0
 50 421.041057883 109.157495919 367.284925539 270.398421806 318.631315963 c 0
 384.821471372 284.104756719 432 242.148905558 432 174.919081622 c 0
 432 98.6990266549 363.658276745 39 276.403756949 39 c 0
 192.791714054 39 120.260721721 89.8194120837 98 164 c 1
 40 141 l 1
 65.5488137375 48.9145243638 169.436698705 -22 278.790648341 -22 c 0
 398.773752759 -22 493 67.6355172516 493 181.773010156 c 0
EndSplineSet
EndChar

StartChar: period
Encoding: 46 46 55
Width: 215
Flags: HW
LayerCount: 2
Fore
SplineSet
60 27 m 4
 60 53 81 74 107 74 c 4
 133.27714438 74 155 52.7297038725 155 27 c 4
 155 1 133 -21 107 -21 c 4
 81.2702961275 -21 60 0.72285561955 60 27 c 4
EndSplineSet
EndChar

StartChar: comma
Encoding: 44 44 56
Width: 215
Flags: HW
LayerCount: 2
Fore
SplineSet
60 26.6475652641 m 0
 60 53.1695259942 81.0951302475 74 107.954058943 74 c 0
 133.423998751 74 155 52.6486106694 155 27.4438197177 c 0
 155 20.9403910803 153.653627987 15.1661193376 150 6 c 2
 93 -137 l 1
 59 -123 l 1
 101 -21 l 1
 78.2802078581 -21 60 0.244082852726 60 26.6475652641 c 0
EndSplineSet
EndChar

StartChar: semicolon
Encoding: 59 59 57
Width: 215
Flags: HW
LayerCount: 2
Fore
SplineSet
60 152.647565264 m 4
 60 179.169525994 81.0951302475 200 107.954058943 200 c 4
 133.423998751 200 155 178.648610669 155 153.443819718 c 4
 155 146.94039108 153.653627987 141.166119339 150 132 c 6
 93 -11 l 5
 59 3 l 5
 101 105 l 5
 78.2802078581 105 60 126.244082853 60 152.647565264 c 4
60 443 m 4
 60 469 81 490 107 490 c 4
 133.27714438 490 155 468.729703873 155 443 c 4
 155 417 133 395 107 395 c 4
 81.2702961275 395 60 416.72285562 60 443 c 4
EndSplineSet
EndChar

StartChar: colon
Encoding: 58 58 58
Width: 215
Flags: HW
LayerCount: 2
Fore
SplineSet
60 443 m 0
 60 469 81 490 107 490 c 0
 133.27714438 490 155 468.729703873 155 443 c 0
 155 417 133 395 107 395 c 0
 81.2702961275 395 60 416.72285562 60 443 c 0
60 153 m 0
 60 179 81 200 107 200 c 0
 133.27714438 200 155 178.729703873 155 153 c 0
 155 127 133 105 107 105 c 0
 81.2702961275 105 60 126.72285562 60 153 c 0
EndSplineSet
EndChar

StartChar: zero
Encoding: 48 48 59
Width: 661
Flags: HW
LayerCount: 2
Fore
SplineSet
101 351.263278388 m 0
 101 179.950797673 202.887173549 41 328.503900808 41 c 0
 455.213181668 41 560 181.440819094 560 351.263278388 c 0
 560 520.395957143 455.734590641 659 328.503900808 659 c 0
 202.376450426 659 101 521.871553446 101 351.263278388 c 0
40 350.518518773 m 0
 40 554.539981165 169.456323053 720 329.083213773 720 c 0
 489.490396045 720 621 553.547210858 621 350.518518773 c 0
 621 147.205739511 489.265256272 -20 329.083213773 -20 c 0
 169.67886444 -20 40 146.209653412 40 350.518518773 c 0
EndSplineSet
EndChar

StartChar: one
Encoding: 49 49 60
Width: 537
Flags: HW
LayerCount: 2
Fore
SplineSet
242 641 m 5
 40 641 l 1
 40 700 l 1
 303 700 l 5
 303 59 l 5
 497 59 l 5
 497 0 l 5
 40 0 l 1
 40 59 l 1
 242 59 l 5
 242 641 l 5
EndSplineSet
EndChar

StartChar: question
Encoding: 63 63 61
Width: 522
Flags: HW
LayerCount: 2
Fore
SplineSet
208 27 m 0
 208 53 229 74 255 74 c 0
 281.27714438 74 303 52.7297038725 303 27 c 0
 303 1 281 -21 255 -21 c 0
 229.270296127 -21 208 0.72285561955 208 27 c 0
224 194 m 1
 224 368.668543383 421 379.75741057 421 514.425953954 c 0
 421 592.746093858 346.63475814 659 258.726037196 659 c 0
 178.017321583 659 113.761510594 606.729704307 94 525 c 1
 40 557 l 1
 77.2313244848 659.755753849 156.770601633 720 255.205650388 720 c 0
 376.669224074 720 482 619.642840601 482 503.91465842 c 0
 482 361.161919054 285 336.752739366 285 194 c 1
 224 194 l 1
EndSplineSet
EndChar

StartChar: two
Encoding: 50 50 62
Width: 542
Flags: HW
LayerCount: 2
Fore
SplineSet
40 113 m 17
 297.618854353 208.790261887 441 339.283927879 441 477.957050853 c 0
 441 582.532541576 369.524478238 659 271.775868344 659 c 0
 188.791072743 659 113.910442405 606.770199362 94 535 c 1
 40 557 l 1
 62.6553491427 646.782309565 167.062093239 720 272.434254435 720 c 0
 397.419016268 720 502 610.248585592 502 479.084640666 c 0
 502 318.149717417 309.064609322 139.62726309 48 59 c 5
 502 59 l 1
 502 0 l 1
 40 0 l 1
 40 113 l 17
EndSplineSet
EndChar

StartChar: three
Encoding: 51 51 63
Width: 542
Flags: HW
LayerCount: 2
Fore
SplineSet
206 323 m 1
 282 323 l 2
 368.438254378 323 441 259.007130799 441 182.776441214 c 0
 441 103.856259115 364.670374015 40 270.334312589 40 c 0
 183.459347177 40 115.055506282 91.9814580918 94 174 c 1
 40 142 l 1
 79.0262310623 38.9734588442 162.263546897 -21 266.228113944 -21 c 0
 391.794229022 -21 502 74.5168903284 502 183.346806733 c 0
 502 256.15564162 456 341 364 377 c 1
 447.507246377 399.42661452 498 474.493793498 498 534.1171875 c 4
 498 632.790478816 392.076150534 720 272.228515625 720 c 0
 165.506425863 720 80.0613502542 660.026541156 40 557 c 1
 94 525 l 1
 115.055506281 607.018541908 183.459347177 659 270.334312589 659 c 0
 364.212516101 659 441 595.518296478 441 517.90736329 c 0
 441 443.660675775 368.862279049 382 282 382 c 2
 206 382 l 1
 206 323 l 1
EndSplineSet
EndChar

StartChar: four
Encoding: 52 52 64
Width: 577
Flags: HW
LayerCount: 2
Fore
SplineSet
210 630 m 1
 273 630 l 1
 163 289 l 1
 400 289 l 5
 400 700 l 5
 461 700 l 5
 461 289 l 5
 537 289 l 5
 537 230 l 5
 461 230 l 5
 461 0 l 5
 400 0 l 5
 400 230 l 5
 40 230 l 1
 40 289 l 1
 100 289 l 1
 210 630 l 1
EndSplineSet
EndChar

StartChar: bar
Encoding: 124 124 65
Width: 181
Flags: HW
LayerCount: 2
Fore
SplineSet
60 800 m 5
 121 800 l 5
 121 -200 l 5
 60 -200 l 5
 60 800 l 5
EndSplineSet
EndChar

StartChar: eight
Encoding: 56 56 66
Width: 552
Flags: HW
LayerCount: 2
Fore
SplineSet
276 720 m 0
 161.592159526 720 60 630.266295158 60 529.212833585 c 0
 60 470.544797092 95.8661811322 408.272412091 150.259765625 372.5 c 5
 83.6764744249 331.034440042 40 258.934572482 40 190.486350696 c 0
 40 78.6165340036 151.16321194 -21 276 -21 c 0
 401.378238351 -21 512 79.0805708088 512 192.511467895 c 0
 512 259.35229518 471.938643489 331.271321796 411.740234375 372.5 c 1
 459.756348911 408.012849765 492 470.094058066 492 527.030366743 c 0
 492 629.766529952 390.997426686 720 276 720 c 0
276 659 m 0
 362.420657014 659 431 602.281990069 431 530.808460733 c 0
 431 460.685419506 363.115270561 402 282 402 c 2
 270 402 l 2
 188.884729439 402 121 460.685419506 121 530.808460733 c 0
 121 602.281990069 189.579342986 659 276 659 c 0
282 343 m 2
 373.794460264 343 451 273.223590491 451 190.262084467 c 0
 451 106.286171339 373.801017798 40 276 40 c 0
 178.198982202 40 101 106.286171339 101 190.262084467 c 0
 101 273.223590491 178.205539736 343 270 343 c 2
 282 343 l 2
EndSplineSet
EndChar

StartChar: seven
Encoding: 55 55 67
Width: 557
Flags: HW
LayerCount: 2
Fore
SplineSet
140 293 m 1
 456 293 l 1
 456 352 l 1
 140 352 l 1
 140 293 l 1
200 0 m 1
 517 632 l 1
 517 700 l 1
 40 700 l 1
 40 641 l 1
 456 641 l 1
 132 0 l 1
 200 0 l 1
EndSplineSet
EndChar

StartChar: five
Encoding: 53 53 68
Width: 542
Flags: HW
LayerCount: 2
Fore
SplineSet
282.637481048 451 m 0
 405.011510181 451 502 347.845073059 502 217.690618049 c 0
 502 90.2586439821 388.370993074 -21 258.224083625 -21 c 0
 161.06249976 -21 78.3381140115 33.2084400838 40 122 c 1
 94 154 l 1
 114.577343295 85.8076414073 181.882351651 40 261.499803893 40 c 0
 361.749168318 40 441 119.060754315 441 219.069677915 c 0
 441 316.007395779 364.19403434 392 266.218776014 392 c 0
 210.909546078 392 175.860314923 371.26368974 131 312 c 1
 70 311 l 1
 70 700 l 1
 452 700 l 1
 452 641 l 1
 131 641 l 1
 131 386.099609375 l 1
 172.883100774 429.722078526 222.598216248 451 282.637481048 451 c 0
EndSplineSet
EndChar

StartChar: six
Encoding: 54 54 69
Width: 565
Flags: HW
LayerCount: 2
Fore
SplineSet
295.441162517 405 m 4
 191.080745445 405 101 317.009479326 101 215.070631124 c 4
 101 117.513620832 177.283484007 41 274.5470634 41 c 4
 378.890568942 41 464 123.484072767 464 224.608909308 c 4
 464 325.00778967 389.254656817 405 295.441162517 405 c 4
273.75863306 -20 m 4
 143.705430193 -20 40 83.0226195497 40 212.219534457 c 4
 40 244.168131783 46.5940877158 277.062379338 59 307 c 6
 226 700 l 5
 292 700 l 5
 176 430 l 5
 213.102400698 452.216558482 255.640355647 464 298.739224027 464 c 4
 424.290980936 464 525 355.670936501 525 220.619434925 c 4
 525 87.7903815975 412.451307398 -20 273.75863306 -20 c 4
EndSplineSet
EndChar

StartChar: nine
Encoding: 57 57 70
Width: 565
Flags: HW
LayerCount: 2
Fore
SplineSet
269.558837483 295 m 4
 373.919254555 295 464 382.990520674 464 484.929368876 c 4
 464 582.486379168 387.716515993 659 290.4529366 659 c 4
 186.109431058 659 101 576.515927233 101 475.391090692 c 4
 101 374.99221033 175.745343183 295 269.558837483 295 c 4
291.24136694 720 m 4
 421.294569807 720 525 616.97738045 525 487.780465543 c 4
 525 455.831868216 518.405912284 422.937620662 506 393 c 6
 339 0 l 5
 273 0 l 5
 389 270 l 5
 351.897599302 247.783441518 309.359644353 236 266.260775973 236 c 4
 140.709019064 236 40 344.329063499 40 479.380565075 c 4
 40 612.209618402 152.548692603 720 291.24136694 720 c 4
EndSplineSet
EndChar

StartChar: slash
Encoding: 47 47 71
Width: 399
Flags: HW
LayerCount: 2
Fore
SplineSet
313 770 m 5
 379 770 l 5
 85 -20 l 5
 20 -20 l 5
 313 770 l 5
EndSplineSet
EndChar

StartChar: backslash
Encoding: 92 92 72
Width: 399
Flags: HW
LayerCount: 2
Fore
SplineSet
86 770 m 1
 379 -20 l 1
 314 -20 l 1
 20 770 l 1
 86 770 l 1
EndSplineSet
EndChar

StartChar: plus
Encoding: 43 43 73
Width: 396
Flags: HW
LayerCount: 2
Fore
SplineSet
40 253 m 1
 40 312 l 1
 167.5 312 l 1
 167.5 440.5 l 1
 228.5 440.5 l 1
 228.5 312 l 1
 356 312 l 1
 356 253 l 1
 228.5 253 l 1
 228.5 124.5 l 1
 167.5 124.5 l 1
 167.5 253 l 1
 40 253 l 1
EndSplineSet
EndChar

StartChar: quotesingle
Encoding: 39 39 74
Width: 121
Flags: HW
LayerCount: 2
Fore
SplineSet
30 750 m 5
 91 750 l 5
 81 570 l 5
 40 570 l 5
 30 750 l 5
EndSplineSet
EndChar

StartChar: quotedbl
Encoding: 34 34 75
Width: 221
Flags: HW
LayerCount: 2
Fore
SplineSet
130 750 m 5
 191 750 l 5
 181 570 l 5
 140 570 l 5
 130 750 l 5
30 750 m 1
 91 750 l 1
 81 570 l 1
 40 570 l 1
 30 750 l 1
EndSplineSet
EndChar

StartChar: percent
Encoding: 37 37 76
Width: 945
Flags: HW
LayerCount: 2
Fore
SplineSet
343 0 m 1
 277 0 l 1
 597 700 l 1
 665 700 l 1
 343 0 l 1
575 172 m 0
 575 100.195980007 634.316007807 42 707.501953125 42 c 0
 781.77758453 42 844 101.260291237 844 172 c 0
 844 242.199116471 782.36165852 300 707.501953125 300 c 0
 633.752221469 300 575 243.243973612 575 172 c 0
514 171.5 m 0
 514 275.967590069 600.496909022 360 708.028320313 360 c 0
 816.376857088 360 905 275.188505955 905 171.5 c 0
 905 66.9940715484 815.520269474 -20 708.028320313 -20 c 0
 601.338291351 -20 514 66.2002143129 514 171.5 c 0
101 531 m 0
 101 459.195980007 160.316007807 401 233.501953125 401 c 0
 307.77758453 401 370 460.260291237 370 531 c 0
 370 601.199116471 308.36165852 659 233.501953125 659 c 0
 159.752221469 659 101 602.243973612 101 531 c 0
40 530.5 m 0
 40 635.244713604 126.780611383 720 234.028320313 720 c 0
 342.088027718 720 431 634.46070433 431 530.5 c 0
 431 426.266819783 341.802517617 340 234.028320313 340 c 0
 127.061053394 340 40 425.47788614 40 530.5 c 0
EndSplineSet
EndChar

StartChar: parenleft
Encoding: 40 40 77
Width: 260
Flags: HW
LayerCount: 2
Fore
SplineSet
40 351 m 4
 40 179.217664091 90.2421804609 51.7513914396 202 -60 c 5
 240 -20 l 5
 152.318036538 63.668897005 97 207.18632047 97 351 c 4
 97 494.81367953 152.318036538 638.331102995 240 722 c 5
 202 762 l 5
 90.242180461 650.248608561 40 522.78233591 40 351 c 4
EndSplineSet
EndChar

StartChar: parenright
Encoding: 41 41 78
Width: 260
Flags: HW
LayerCount: 2
Fore
SplineSet
220 351 m 0
 220 179.217664091 169.757819539 51.7513914396 58 -60 c 1
 20 -20 l 1
 107.681963462 63.668897005 163 207.18632047 163 351 c 0
 163 494.81367953 107.681963462 638.331102995 20 722 c 1
 58 762 l 1
 169.757819539 650.248608561 220 522.78233591 220 351 c 0
EndSplineSet
EndChar

StartChar: asterisk
Encoding: 42 42 79
Width: 315
Flags: HW
LayerCount: 2
Fore
SplineSet
285 581 m 1
 255 529 l 1
 147 602 l 1
 30 659 l 1
 60 711 l 1
 168 638 l 1
 285 581 l 1
255 711 m 1
 285 659 l 1
 168 602 l 1
 60 529 l 1
 30 581 l 1
 147 638 l 1
 255 711 l 1
127 750 m 1
 188 750 l 1
 178 620 l 1
 188 490 l 1
 127 490 l 1
 137 620 l 1
 127 750 l 1
EndSplineSet
EndChar

StartChar: bracketleft
Encoding: 91 91 80
Width: 257
Flags: HW
LayerCount: 2
Fore
SplineSet
121 691 m 5
 237 691 l 5
 237 750 l 5
 60 750 l 5
 60 -20 l 5
 237 -20 l 5
 237 39 l 5
 121 39 l 5
 121 691 l 5
EndSplineSet
EndChar

StartChar: bracketright
Encoding: 93 93 81
Width: 257
Flags: HW
LayerCount: 2
Fore
SplineSet
136 691 m 5
 20 691 l 5
 20 750 l 5
 197 750 l 5
 197 -20 l 5
 20 -20 l 5
 20 39 l 5
 136 39 l 5
 136 691 l 5
EndSplineSet
EndChar

StartChar: less
Encoding: 60 60 82
Width: 400
Flags: HW
LayerCount: 2
Fore
SplineSet
370 164 m 5
 370 98 l 5
 30 250 l 5
 30 310 l 5
 370 462 l 5
 370 396 l 5
 108 280 l 5
 370 164 l 5
EndSplineSet
EndChar

StartChar: greater
Encoding: 62 62 83
Width: 400
Flags: HW
LayerCount: 2
Fore
SplineSet
30 396 m 1
 30 462 l 1
 370 310 l 1
 370 250 l 1
 30 98 l 1
 30 164 l 1
 292 280 l 1
 30 396 l 1
EndSplineSet
EndChar

StartChar: equal
Encoding: 61 61 84
Width: 436
Flags: HW
LayerCount: 2
Fore
SplineSet
40 163 m 5
 40 222 l 5
 396 222 l 5
 396 163 l 5
 40 163 l 5
40 353 m 1
 40 412 l 1
 396 412 l 1
 396 353 l 1
 40 353 l 1
EndSplineSet
EndChar

StartChar: asciicircum
Encoding: 94 94 85
Width: 334
Flags: HW
LayerCount: 2
Fore
SplineSet
69 620 m 5
 30 650 l 1
 142 800 l 1
 192 800 l 1
 304 650 l 1
 266 621 l 1
 167 757 l 1
 69 620 l 5
EndSplineSet
EndChar

StartChar: underscore
Encoding: 95 95 86
Width: 436
Flags: HW
LayerCount: 2
Fore
SplineSet
40 -59 m 1
 40 0 l 1
 396 0 l 1
 396 -59 l 1
 40 -59 l 1
EndSplineSet
EndChar

StartChar: grave
Encoding: 96 96 87
Width: 181
Flags: HW
LayerCount: 2
Fore
SplineSet
30 730 m 1
 87 751 l 1
 151 570 l 1
 118 557 l 1
 30 730 l 1
EndSplineSet
EndChar

StartChar: numbersign
Encoding: 35 35 88
Width: 720
Flags: HW
LayerCount: 2
Fore
SplineSet
660 278 m 1
 660 220 l 1
 60 220 l 1
 60 278 l 1
 660 278 l 1
660 488 m 1
 660 430 l 1
 60 430 l 1
 60 488 l 1
 660 488 l 1
502 700 m 1
 563 700 l 1
 439 0 l 1
 378 0 l 1
 502 700 l 1
282 700 m 1
 343 700 l 1
 219 0 l 1
 158 0 l 1
 282 700 l 1
EndSplineSet
EndChar

StartChar: dollar
Encoding: 36 36 89
Width: 433
Flags: HW
LayerCount: 2
Fore
SplineSet
187 700 m 5
 187 584 l 5
 248 584 l 5
 248 700 l 5
 187 700 l 5
187 109 m 5
 187 -20 l 5
 248 -20 l 5
 248 109 l 5
 187 109 l 5
393 225.494012625 m 4
 393 301.714650929 348.206390806 336.699624663 192.408717881 382.161020768 c 4
 136.100254488 398.59169852 111 423.057611247 111 461.512351162 c 4
 111 510.811794707 155.592820251 550 211.691363371 550 c 4
 271.189231028 550 318.327505573 514.947938716 326 465 c 5
 378 482 l 5
 363.636953896 555.44892421 289.903479246 611 206.777065168 611 c 4
 119.786530357 611 50 542.347641399 50 456.770878089 c 4
 50 385.135281894 91.6055903223 347.671600217 210.539787514 312.213104737 c 4
 306.184729712 283.697960812 332 264.108789821 332 220.046536486 c 4
 332 170.614617615 284.887609793 130 227.547273054 130 c 4
 166.486573724 130 114.101764606 172.458670319 98 235 c 5
 40 212 l 5
 60.216407131 130.982368415 142.339600902 69 229.467053448 69 c 4
 319.791789678 69 393 139.057115902 393 225.494012625 c 4
EndSplineSet
EndChar

StartChar: ampersand
Encoding: 38 38 90
Width: 675
Flags: HW
LayerCount: 2
Fore
SplineSet
285 340 m 1
 174.453931933 319.933219371 101 254.395996856 101 175.831130813 c 0
 101 101.27096347 173.092622527 41 262.277159994 41 c 0
 380.455847105 41 466.204035112 143.999780676 542 377 c 1
 590 358 l 1
 514.121875753 105.632723087 406.280792603 -20 265.530956993 -20 c 0
 143.563926745 -20 40 70.9532245233 40 178.068655883 c 0
 40 272.87064116 112.525523985 352.134404149 233 389 c 1
 285 340 l 1
455 535 m 1
 437.862930502 597.753354546 381.972699318 639 314.07741153 639 c 0
 244.0198773 639 186 591.259812129 186 533.614742861 c 0
 186 485.656629936 208.7180065 453.26485118 326 334 c 2
 635 0 l 1
 564 0 l 1
 275 304 l 2
 139.405538846 448.903114957 125 470.642356451 125 530.363363349 c 0
 125 619.590242356 215.519583616 700 315.964855082 700 c 0
 403.235457605 700 475.374219534 646.559767859 509 557 c 1
 455 535 l 1
EndSplineSet
EndChar

StartChar: at
Encoding: 64 64 91
Width: 841
Flags: HW
LayerCount: 2
Fore
SplineSet
567 256.434903379 m 0
 567 375.481273011 491.286030271 466 391.710246049 466 c 0
 286.904391989 466 196 368.661746542 196 256.438139264 c 0
 196 144.039296079 287.188314716 46 391.732732066 46 c 0
 491.053185337 46 567 137.18565488 567 256.434903379 c 0
556 256.749806521 m 0
 556 173.902927512 490.010103429 107 408.29384406 107 c 0
 325.808231492 107 257 175.107773884 257 256.753695129 c 0
 257 338.079006447 325.294954273 405 408.289962606 405 c 0
 490.507556945 405 556 339.268059736 556 256.749806521 c 0
617 446 m 1
 566 446 l 1
 556 256.841796875 l 1
 556 159 l 1
 556 93.9147883462 599.988605985 47 661.01430453 47 c 0
 743.002970663 47 801 132.197533435 801 252.638738857 c 0
 801 459.695600855 628.703281077 630 419.224147643 630 c 0
 210.031147742 630 40 459.893502631 40 250.607798452 c 0
 40 41.6289624408 209.551149872 -130 416 -130 c 1
 416 -69 l 1
 242.854226638 -69 101 75.2224949249 101 251.258951588 c 0
 101 427.220826524 242.7272733 569 418.624735022 569 c 0
 595.718629346 569 740 425.811151045 740 250.058240117 c 0
 740 167.195571539 708.241263312 109 663.021092721 109 c 0
 635.097717442 109 617 131.021905975 617 165 c 2
 617 446 l 1
EndSplineSet
EndChar

StartChar: braceleft
Encoding: 123 123 92
Width: 260
Flags: HW
LayerCount: 2
Fore
SplineSet
101.512695312 352 m 5
 189.493566916 409.030535992 106.011942468 662.35594936 240 722 c 1
 202 762 l 5
 59.6901455122 700.965832388 121.941430035 382 46.4384765625 382 c 2
 20 382 l 1
 20 322 l 1
 46.4384765625 322 l 2
 121.941430035 322 59.6901455122 3.03416761195 202 -58 c 5
 240 -18 l 1
 106.011942469 41.6440506868 189.493566823 294.969463953 101.512695312 352 c 5
EndSplineSet
EndChar

StartChar: braceright
Encoding: 125 125 93
Width: 260
Flags: HW
LayerCount: 2
Fore
SplineSet
158.487304688 352 m 5
 70.5064330833 294.969464008 153.988057532 41.6440506395 20 -18 c 1
 58 -58 l 1
 200.309854488 6.03416761195 138.058569965 322 213.561523438 322 c 2
 240 322 l 1
 240 382 l 1
 213.561523438 382 l 2
 138.058569965 382 200.309854488 697.965832388 58 762 c 1
 20 722 l 1
 153.988057531 662.355949313 70.5064331765 409.030536047 158.487304688 352 c 5
EndSplineSet
EndChar

StartChar: asciitilde
Encoding: 126 126 94
Width: 334
Flags: HW
LayerCount: 2
Fore
SplineSet
110.270254166 263 m 0
 83.6994159128 263 66 239.011771905 66 203 c 1
 20 203 l 1
 20 267.476651681 56.0342669657 309 111.987579351 309 c 0
 167.506682535 309 165.453783779 251 220.972886964 251 c 0
 249.796478304 251 268 273.45096903 268 309 c 1
 314 309 l 1
 314 246.057658948 279.079276387 203 228.031631226 203 c 0
 178.050519343 203 160.251366049 263 110.270254166 263 c 0
EndSplineSet
EndChar

StartChar: exclamdown
Encoding: 161 161 95
Width: 215
Flags: HW
LayerCount: 2
Fore
SplineSet
139 -126 m 5
 78 -126 l 5
 78 384 l 5
 139 384 l 5
 139 -126 l 5
155 547 m 4
 155 521 134 500 108 500 c 4
 81.7228556196 500 60 521.270296127 60 547 c 4
 60 573 82 595 108 595 c 4
 133.729703873 595 155 573.27714438 155 547 c 4
EndSplineSet
EndChar

StartChar: questiondown
Encoding: 191 191 96
Width: 522
Flags: HW
LayerCount: 2
Fore
SplineSet
314 547 m 0
 314 521 293 500 267 500 c 0
 240.72285562 500 219 521.270296127 219 547 c 0
 219 573 241 595 267 595 c 0
 292.729703873 595 314 573.27714438 314 547 c 0
298 380 m 5
 298 205.331456617 101 194.24258943 101 59.5740460461 c 0
 101 -18.746093858 175.36524186 -85 263.273962804 -85 c 0
 343.982678417 -85 408.238489406 -32.7297043068 428 49 c 1
 482 17 l 1
 444.768675516 -85.7557538485 365.229398367 -146 266.794349612 -146 c 0
 145.330775926 -146 40 -45.6428406006 40 70.0853415801 c 0
 40 212.838080946 237 237.247260634 237 380 c 1
 298 380 l 5
EndSplineSet
EndChar

StartChar: cent
Encoding: 162 162 97
Width: 583
Flags: HW
LayerCount: 2
Fore
SplineSet
277 700 m 1
 277 584 l 1
 338 584 l 1
 338 700 l 1
 277 700 l 1
277 109 m 1
 277 -20 l 1
 338 -20 l 1
 338 109 l 1
 277 109 l 1
101 341 m 0
 101 456.328535034 193.32258331 550 306.990371974 550 c 0
 380.463226255 550 449.531611189 510.801064812 492 445 c 1
 543 478 l 1
 488.596345124 561.057783557 399.867916131 611 306.709304542 611 c 0
 160.299753506 611 40 489.215971871 40 341 c 0
 40 192.784028129 160.299753506 71 306.709304542 71 c 0
 399.867916131 71 488.596345124 120.942216443 543 204 c 1
 492 237 l 1
 449.531611189 171.198935188 380.463226255 132 306.990371974 132 c 0
 193.32258331 132 101 225.671464966 101 341 c 0
EndSplineSet
EndChar

StartChar: sterling
Encoding: 163 163 98
Width: 582
Flags: HW
LayerCount: 2
Fore
SplineSet
449 545 m 1
 431.031524346 612.381783703 371.995236626 659 304.632897725 659 c 0
 223.924704982 659 162 584.759591785 162 488 c 2
 162 369 l 1
 388 369 l 1
 388 310 l 1
 162 310 l 1
 162 59 l 1
 528 59 l 1
 528 0 l 1
 31 0 l 1
 31 59 l 1
 101 59 l 1
 101 310 l 1
 51 310 l 1
 51 369 l 1
 101 369 l 1
 101 508 l 2
 101 621.940482823 194.361592401 720 302.843310665 720 c 0
 397.140252143 720 476.430114056 658.202322893 503 564 c 1
 449 545 l 1
EndSplineSet
EndChar

StartChar: yen
Encoding: 165 165 99
Width: 604
Flags: HW
LayerCount: 2
Fore
SplineSet
147 140 m 1
 147 199 l 1
 275 199 l 1
 275 230 l 1
 20 700 l 1
 86 700 l 1
 305 298 l 1
 518 700 l 1
 584 700 l 1
 335 230 l 1
 335 199 l 1
 463 199 l 1
 463 140 l 1
 335 140 l 1
 335 62 l 1
 467 62 l 1
 467 0 l 1
 143 0 l 1
 143 62 l 1
 275 62 l 1
 275 140 l 1
 147 140 l 1
EndSplineSet
EndChar

StartChar: brokenbar
Encoding: 166 166 100
Width: 181
Flags: HW
LayerCount: 2
Fore
SplineSet
60 290.5 m 1
 121 290.5 l 1
 121 -0.5 l 1
 60 -0.5 l 1
 60 290.5 l 1
60 700 m 1
 121 700 l 1
 121 409 l 1
 60 409 l 1
 60 700 l 1
EndSplineSet
EndChar

StartChar: currency
Encoding: 164 164 101
Width: 373
Flags: HMW
LayerCount: 2
Fore
SplineSet
31 400 m 1
 64 433 l 1
 98 398 l 1
 123 416 154 426 187 426 c 0
 219 426 249 416 274 399 c 1
 309 434 l 1
 343 399 l 1
 309 365 l 1
 326 341 336 311 336 277 c 0
 336 243 325 212 308 188 c 1
 343 154 l 1
 310 121 l 1
 276 156 l 1
 251 138 220 128 187 128 c 0
 154 128 124 138 99 155 c 1
 65 121 l 1
 30 155 l 1
 65 190 l 1
 48 214 38 243 38 277 c 0
 38 311 49 342 66 366 c 1
 31 400 l 1
88 277 m 0
 88 218 133 178 187 178 c 0
 241 178 286 218 286 277 c 0
 286 336 241 376 187 376 c 0
 133 376 88 336 88 277 c 0
EndSplineSet
EndChar

StartChar: section
Encoding: 167 167 102
Width: 434
Flags: HMW
LayerCount: 2
Fore
SplineSet
219 261 m 1
 129 280 90 307 90 354 c 0
 90 403 144 440 215 440 c 1
 305 421 344 394 344 347 c 0
 344 298 290 261 219 261 c 1
138 464 m 1
 79 446 40 403 40 352 c 0
 40 280 93 231 208 211 c 0
 301 195 344 166 344 120 c 0
 344 74 295 39 230 39 c 0
 165 39 111 78 86 141 c 1
 40 122 l 1
 71 40 147 -11 231 -11 c 0
 325 -11 394 46 394 121 c 0
 394 173 361 210 296 237 c 1
 355 255 394 298 394 349 c 0
 394 421 340 463 226 490 c 0
 134 511 90 535 90 581 c 0
 90 627 139 662 204 662 c 0
 269 662 323 623 348 560 c 1
 394 579 l 1
 363 661 287 712 203 712 c 0
 109 712 40 655 40 580 c 0
 40 528 73 491 138 464 c 1
EndSplineSet
EndChar

StartChar: copyright
Encoding: 169 169 104
Width: 788
Flags: HMW
LayerCount: 2
Fore
SplineSet
280 351 m 4
 280 280 331 232 394 232 c 4
 441 232 481 261 501 309 c 5
 547 290 l 5
 519 224 461 182 394 182 c 4
 304 182 230 252 230 351 c 4
 230 450 304 520 394 520 c 4
 462 520 522 480 549 417 c 5
 503 398 l 5
 484 443 442 470 394 470 c 4
 331 470 280 422 280 351 c 4
90 353 m 4
 90 162 227 32 394 32 c 4
 561 32 698 162 698 353 c 4
 698 541 561 670 394 670 c 4
 227 670 90 541 90 353 c 4
40 353 m 4
 40 569 199 720 394 720 c 4
 589 720 748 569 748 353 c 4
 748 135 589 -18 394 -18 c 4
 199 -18 40 135 40 353 c 4
EndSplineSet
EndChar

StartChar: registered
Encoding: 174 174 105
Width: 788
Flags: HMW
LayerCount: 2
Fore
SplineSet
432 465 m 2
 290 465 l 1
 290 353 l 1
 432 353 l 2
 469 353 498 378 498 410 c 0
 498 442 470 465 432 465 c 2
432 305 m 1
 548 188 l 1
 484 188 l 1
 368 305 l 1
 290 305 l 1
 290 188 l 1
 240 188 l 1
 240 513 l 1
 442 513 l 2
 503 513 548 469 548 410 c 0
 548 351 497 305 432 305 c 1
90 353 m 0
 90 162 227 32 394 32 c 0
 561 32 698 162 698 353 c 0
 698 541 561 670 394 670 c 0
 227 670 90 541 90 353 c 0
40 353 m 0
 40 569 199 720 394 720 c 4
 589 720 748 569 748 353 c 0
 748 135 589 -18 394 -18 c 0
 199 -18 40 135 40 353 c 0
EndSplineSet
EndChar

StartChar: dotlessi
Encoding: 305 305 106
Width: 170
Flags: HMW
AnchorPoint: "Top1" 85 568 basechar 0
LayerCount: 2
Fore
SplineSet
60 0 m 1
 60 500 l 1
 110 500 l 1
 110 0 l 1
 60 0 l 1
EndSplineSet
EndChar

StartChar: gravecomb
Encoding: 768 768 107
Width: 264
Flags: HMW
AnchorPoint: "Top1" 159 500 mark 0
LayerCount: 2
Fore
SplineSet
33 658 m 1
 69 695 l 1
 231 533 l 1
 199 500 l 1
 33 658 l 1
EndSplineSet
EndChar

StartChar: acutecomb
Encoding: 769 769 108
Width: 264
Flags: HMW
AnchorPoint: "Top1" 105 500 mark 0
LayerCount: 2
Fore
SplineSet
231 658 m 1
 195 695 l 1
 33 533 l 1
 65 500 l 1
 231 658 l 1
EndSplineSet
EndChar

StartChar: uni0302
Encoding: 770 770 109
Width: 388
Flags: HMW
AnchorPoint: "Top1" 194 500 mark 0
LayerCount: 2
Fore
SplineSet
184 692 m 1
 30 530 l 1
 71 500 l 1
 194 632 l 1
 317 500 l 1
 358 530 l 1
 204 692 l 1
 184 692 l 1
EndSplineSet
EndChar

StartChar: tildecomb
Encoding: 771 771 110
Width: 404
Flags: HMW
AnchorPoint: "Top1" 202 500 mark 0
LayerCount: 2
Fore
SplineSet
128 634 m 0
 83 634 46 592 30 524 c 1
 74 506 l 1
 83 555 103 585 127 585 c 0
 146 585 158 578 187 545 c 0
 219 511 242 500 275 500 c 0
 321 500 359 541 374 610 c 1
 330 628 l 1
 320 580 299 552 272 552 c 0
 251 552 240 560 212 591 c 0
 181 623 160 634 128 634 c 0
EndSplineSet
EndChar

StartChar: uni0308
Encoding: 776 776 111
Width: 390
Flags: HMW
AnchorPoint: "Top1" 196 500 mark 0
LayerCount: 2
Fore
SplineSet
246 539 m 0
 246 561 263 578 285 578 c 0
 307 578 324 561 324 539 c 0
 324 517 307 500 285 500 c 0
 263 500 246 517 246 539 c 0
66 539 m 4
 66 561 83 578 105 578 c 4
 127 578 144 561 144 539 c 4
 144 517 127 500 105 500 c 4
 83 500 66 517 66 539 c 4
EndSplineSet
EndChar

StartChar: uni030A
Encoding: 778 778 112
Width: 298
Flags: HMW
AnchorPoint: "Top1" 149 500 mark 0
LayerCount: 2
Fore
SplineSet
96 599 m 0
 96 568 120 546 149 546 c 0
 178 546 202 568 202 599 c 0
 202 630 178 652 149 652 c 4
 120 652 96 630 96 599 c 0
50 599 m 0
 50 657 95 698 149 698 c 0
 203 698 248 657 248 599 c 0
 248 541 203 500 149 500 c 0
 95 500 50 541 50 599 c 0
EndSplineSet
EndChar

StartChar: uni0327
Encoding: 807 807 114
Width: 243
Flags: HMW
AnchorPoint: "Bottom1" 76 0 mark 0
LayerCount: 2
Fore
SplineSet
95 -66 m 1
 106 -55 121 -49 136 -49 c 0
 173 -49 203 -86 203 -132 c 0
 203 -183 167 -219 115 -219 c 0
 74 -219 41 -197 30 -161 c 1
 68 -146 l 1
 73 -167 90 -179 113 -179 c 0
 142 -179 161 -159 161 -131 c 0
 161 -107 147 -90 128 -90 c 0
 116 -90 104 -97 95 -110 c 1
 55 -90 l 1
 55 20 l 1
 95 20 l 1
 95 -66 l 1
EndSplineSet
EndChar

StartChar: Oslash
Encoding: 216 216 167
Width: 788
Flags: HMW
LayerCount: 2
Fore
SplineSet
730 651 m 1
 93 14 l 1
 58 49 l 1
 695 686 l 1
 730 651 l 1
90 353 m 0
 90 162 227 32 394 32 c 0
 561 32 698 162 698 353 c 0
 698 541 561 670 394 670 c 0
 227 670 90 541 90 353 c 0
40 353 m 0
 40 569 199 720 394 720 c 0
 589 720 748 569 748 353 c 0
 748 135 589 -18 394 -18 c 0
 199 -18 40 135 40 353 c 0
EndSplineSet
EndChar

StartChar: oslash
Encoding: 248 248 168
Width: 618
Flags: HMW
LayerCount: 2
Fore
SplineSet
539 517 m 1
 574 482 l 1
 79 -13 l 1
 44 22 l 1
 539 517 l 1
90 251 m 0
 90 121 189 32 309 32 c 0
 429 32 528 121 528 251 c 0
 528 381 429 470 309 470 c 0
 189 470 90 381 90 251 c 0
40 251 m 0
 40 409 161 520 309 520 c 0
 457 520 578 409 578 251 c 0
 578 93 457 -18 309 -18 c 0
 161 -18 40 93 40 251 c 0
EndSplineSet
EndChar

StartChar: thorn
Encoding: 254 254 169
Width: 638
Flags: HMW
LayerCount: 2
Fore
SplineSet
60 -200 m 1
 60 750 l 1
 110 750 l 1
 110 -200 l 1
 60 -200 l 1
110 251 m 0
 110 121 209 32 329 32 c 0
 449 32 548 121 548 251 c 0
 548 381 449 470 329 470 c 0
 209 470 110 381 110 251 c 0
77 251 m 0
 77 409 192 520 333 520 c 0
 479 520 598 409 598 251 c 0
 598 93 479 -18 333 -18 c 0
 192 -18 77 93 77 251 c 0
EndSplineSet
EndChar

StartChar: eth
Encoding: 240 240 170
Width: 610
Flags: HMW
LayerCount: 2
Fore
SplineSet
530 755 m 1
 283 598 l 1
 309 559 l 1
 555 715 l 1
 530 755 l 1
510 238 m 0
 510 124 413 32 293 32 c 0
 177 32 90 117 90 232 c 0
 90 347 178 430 299 430 c 0
 420 430 510 348 510 238 c 0
247 715 m 1
 402 699 506 560 520 349 c 1
 478 429 388 480 290 480 c 4
 149 480 40 372 40 231 c 4
 40 88 150 -18 297 -18 c 0
 397 -18 485 31 529 113 c 0
 556 163 570 233 570 316 c 0
 570 562 448 736 257 763 c 1
 247 715 l 1
EndSplineSet
EndChar

StartChar: ae
Encoding: 230 230 171
Width: 935
Flags: HMW
LayerCount: 2
Fore
SplineSet
377 246 m 1
 214 227 l 2
 133 217 90 185 90 133 c 0
 90 76 141 38 216 38 c 0
 314 38 377 103 377 203 c 2
 377 246 l 1
428 228 m 1
 439 111 530 32 641 32 c 0
 725 32 798 76 833 149 c 1
 879 130 l 1
 836 39 745 -18 641 -18 c 0
 501 -18 387 93 387 251 c 0
 387 409 499 520 636 520 c 0
 778 520 895 413 895 261 c 0
 895 250 894 239 893 228 c 1
 428 228 l 1
845 275 m 1
 838 392 747 470 636 470 c 0
 528 470 439 392 428 275 c 1
 845 275 l 1
208 -11 m 0
 112 -11 40 48 40 135 c 0
 40 212 100 263 204 275 c 2
 377 294 l 1
 377 323 l 2
 377 395 315.892857143 461 232 461 c 0
 158.534722222 461 98.5208333333 418 83 357 c 1
 36 370 l 1
 60.6417112299 453 137.647058824 511 228 511 c 0
 332.698412698 511 422 430 422 333 c 2
 422 203 l 2
 422 81 330 -11 208 -11 c 0
EndSplineSet
Substitution2: "Cygre-Light-'ss01' Style Set 1 in Latin lookup 7-1" ae.ss01
EndChar

StartChar: Eth
Encoding: 208 208 172
Width: 698
Flags: HMW
LayerCount: 2
Fore
SplineSet
342 382 m 1
 342 335 l 1
 0 335 l 1
 0 382 l 1
 342 382 l 1
309 0 m 2
 80 0 l 1
 80 700 l 1
 309 700 l 2
 501 700 658 556 658 351 c 0
 658 145 501 0 309 0 c 2
299 652 m 2
 130 652 l 1
 130 48 l 1
 299 48 l 2
 468 48 608 171 608 351 c 0
 608 530 468 652 299 652 c 2
EndSplineSet
EndChar

StartChar: AE
Encoding: 198 198 173
Width: 940
Flags: HMW
LayerCount: 2
Fore
SplineSet
500 375 m 1
 876 375 l 1
 876 327 l 1
 500 327 l 1
 500 48 l 1
 900 48 l 1
 900 0 l 1
 450 0 l 1
 450 700 l 1
 900 700 l 1
 900 652 l 1
 500 652 l 1
 500 375 l 1
180 254 m 1
 475 254 l 1
 475 206 l 1
 180 206 l 1
 180 254 l 1
90 0 m 5
 32 0 l 1
 393 700 l 1
 450 700 l 1
 450 646 l 1
 427 646 l 5
 90 0 l 5
EndSplineSet
EndChar

StartChar: multiply
Encoding: 215 215 174
Width: 352
Flags: HMW
LayerCount: 2
Fore
SplineSet
50 358 m 1
 85 394 l 1
 177 301 l 1
 268 392 l 1
 302 359 l 1
 211 268 l 1
 304 175 l 1
 268 140 l 1
 175 233 l 1
 83 140 l 1
 50 174 l 1
 142 266 l 1
 50 358 l 1
EndSplineSet
EndChar

StartChar: divide
Encoding: 247 247 175
Width: 352
Flags: HMW
LayerCount: 2
Fore
SplineSet
129 410 m 0
 129 438 150 459 178 459 c 0
 206 459 227 438 227 410 c 0
 227 382 206 361 178 361 c 0
 150 361 129 382 129 410 c 0
129 120 m 0
 129 148 150 169 178 169 c 0
 206 169 227 148 227 120 c 0
 227 92 206 71 178 71 c 0
 150 71 129 92 129 120 c 0
322 290 m 1
 322 243 l 1
 30 243 l 1
 30 290 l 1
 322 290 l 1
EndSplineSet
EndChar

StartChar: Thorn
Encoding: 222 222 176
Width: 628
Flags: HMW
LayerCount: 2
Fore
SplineSet
110 532 m 1
 110 180 l 1
 339 180 l 2
 452 180 538 257 538 358 c 0
 538 458 453 532 339 532 c 2
 110 532 l 1
110 132 m 1
 110 0 l 1
 60 0 l 1
 60 700 l 1
 110 700 l 1
 110 580 l 1
 349 580 l 2
 486 580 588 485 588 358 c 0
 588 232 478 132 339 132 c 2
 110 132 l 1
EndSplineSet
EndChar

StartChar: germandbls
Encoding: 223 223 177
Width: 661
Flags: HMW
LayerCount: 2
Fore
SplineSet
447 392 m 1
 535 373 601 285 601 187 c 0
 601 72 514 -11 395 -11 c 0
 305 -11 234 40 210 122 c 1
 258 137 l 1
 273 76 324 39 394 39 c 0
 489 39 551 101 551 194 c 0
 551 296 470 367 354 367 c 2
 306 367 l 1
 306 413 l 1
 354 413 l 2
 446 413 509 471 509 554 c 0
 509 649 436 712 326 712 c 0
 191 712 110 623 110 475 c 2
 110 0 l 1
 60 0 l 1
 60 485 l 2
 60 646 173 760 333 760 c 0
 468 760 559 676 559 551 c 0
 559 475 522 422 447 392 c 1
EndSplineSet
EndChar

StartChar: uni0237
Encoding: 567 567 178
Width: 170
Flags: HMW
AnchorPoint: "Top1" 85 568 basechar 0
LayerCount: 2
Fore
SplineSet
-18 -122 m 2
 34 -122 60 -83 60 -35 c 0
 60 500 l 1
 110 500 l 1
 110 -49 l 0
 110 -112 64 -170 -8 -170 c 2
 -37 -170 l 1
 -37 -122 l 1
 -18 -122 l 2
EndSplineSet
EndChar

StartChar: uni0304
Encoding: 772 772 233
Width: 352
Flags: HMW
AnchorPoint: "Top1" 172 500 mark 0
LayerCount: 2
Fore
SplineSet
322 557 m 5
 322 510 l 5
 30 510 l 5
 30 557 l 5
 322 557 l 5
EndSplineSet
EndChar

StartChar: uni0306
Encoding: 774 774 234
Width: 338
Flags: HMW
AnchorPoint: "Top1" 166 500 mark 0
LayerCount: 2
Fore
SplineSet
165 511 m 4
 82 511 15 574 15 653 c 5
 62 653 l 5
 62 597 106 556 166 556 c 4
 227 556 276 599 276 653 c 5
 323 653 l 5
 323 577 250 511 165 511 c 4
EndSplineSet
EndChar

StartChar: uni0307
Encoding: 775 775 235
Width: 170
Flags: HMW
AnchorPoint: "Top1" 85 500 mark 0
LayerCount: 2
Fore
SplineSet
46 539 m 0
 46 561 63 578 85 578 c 0
 107 578 124 561 124 539 c 0
 124 517 107 500 85 500 c 0
 63 500 46 517 46 539 c 0
EndSplineSet
EndChar

StartChar: uni030C
Encoding: 780 780 236
Width: 388
Flags: HMW
AnchorPoint: "Top1" 194 500 mark 0
LayerCount: 2
Fore
SplineSet
204 500 m 1
 358 662 l 1
 317 692 l 1
 194 560 l 1
 71 692 l 1
 30 662 l 1
 184 500 l 1
 204 500 l 1
EndSplineSet
EndChar

StartChar: uni0313
Encoding: 787 787 237
Width: 170
Flags: HMW
AnchorPoint: "Top1" 89 500 mark 0
LayerCount: 2
Fore
SplineSet
56 638 m 0
 56 663 75 687 104 687 c 0
 132 687 154 666 154 639 c 0
 154 636 154 620 144 607 c 2
 69 500 l 1
 38 523 l 1
 87 592 l 1
 68 600 56 618 56 638 c 0
EndSplineSet
EndChar

StartChar: uni0315
Encoding: 789 789 238
Width: 170
Flags: HMW
AnchorPoint: "Top2" 66 500 mark 0
LayerCount: 2
Fore
SplineSet
119 723 m 1
 169 710 l 1
 110 489 l 1
 65 500 l 1
 119 723 l 1
EndSplineSet
EndChar

StartChar: uni0326
Encoding: 806 806 239
Width: 170
Flags: HMW
AnchorPoint: "Bottom1" 76 0 mark 0
LayerCount: 2
Fore
SplineSet
110 -185 m 4
 110 -210 91 -234 62 -234 c 4
 34 -234 12 -213 12 -186 c 4
 12 -183 12 -167 22 -154 c 6
 97 -47 l 5
 128 -70 l 5
 79 -139 l 5
 98 -147 110 -165 110 -185 c 4
EndSplineSet
EndChar

StartChar: uni0328
Encoding: 808 808 240
Width: 247
Flags: HMW
AnchorPoint: "Bottom2" 139 0 mark 0
LayerCount: 2
Fore
SplineSet
118 -18 m 1
 118 1 l 1
 158 1 l 1
 158 -38 l 1
 105 -70 l 2
 84 -84 72 -104 72 -127 c 0
 72 -158 94 -179 125 -179 c 0
 151 -179 169 -163 175 -136 c 1
 213 -151 l 1
 201 -193 167 -219 123 -219 c 0
 68 -219 30 -181 30 -127 c 0
 30 -86 50 -58 97 -32 c 2
 118 -18 l 1
EndSplineSet
EndChar

StartChar: uni0312
Encoding: 786 786 291
Width: 170
Flags: HMW
AnchorPoint: "Top1" 89 500 mark 0
LayerCount: 2
Fore
SplineSet
136 549 m 4
 136 524 117 500 88 500 c 4
 60 500 38 521 38 548 c 4
 38 551 38 567 48 580 c 6
 123 687 l 5
 154 664 l 5
 105 595 l 5
 124 587 136 569 136 549 c 4
EndSplineSet
EndChar

StartChar: periodcentered
Encoding: 183 183 292
Width: 170
Flags: HMW
LayerCount: 2
Fore
SplineSet
46 361 m 4
 46 383 63 400 85 400 c 4
 107 400 124 383 124 361 c 4
 124 339 107 322 85 322 c 4
 63 322 46 339 46 361 c 4
EndSplineSet
EndChar

StartChar: Dcroat
Encoding: 272 272 295
Width: 698
Flags: HMW
LayerCount: 2
Fore
SplineSet
342 382 m 1
 342 335 l 1
 0 335 l 1
 0 382 l 1
 342 382 l 1
309 0 m 2
 80 0 l 1
 80 700 l 1
 309 700 l 2
 501 700 658 556 658 351 c 0
 658 145 501 0 309 0 c 2
299 652 m 2
 130 652 l 1
 130 48 l 1
 299 48 l 2
 468 48 608 171 608 351 c 0
 608 530 468 652 299 652 c 2
EndSplineSet
EndChar

StartChar: dcroat
Encoding: 273 273 296
Width: 668
Flags: HMW
LayerCount: 2
Fore
SplineSet
561 251 m 4
 561 93 446 -18 305 -18 c 4
 159 -18 40 93 40 251 c 4
 40 409 159 520 305 520 c 4
 446 520 561 409 561 251 c 4
528 251 m 4
 528 381 429 470 309 470 c 4
 189 470 90 381 90 251 c 4
 90 121 189 32 309 32 c 4
 429 32 528 121 528 251 c 4
578 0 m 5
 528 0 l 5
 528 616 l 5
 286 616 l 5
 286 663 l 5
 528 663 l 5
 528 750 l 5
 578 750 l 5
 578 663 l 5
 668 663 l 5
 668 616 l 5
 578 616 l 5
 578 0 l 5
EndSplineSet
EndChar

StartChar: Hbar
Encoding: 294 294 297
Width: 680
Flags: HMW
LayerCount: 2
Fore
SplineSet
680 547 m 1
 680 500 l 1
 620 500 l 1
 620 0 l 1
 570 0 l 1
 570 327 l 1
 110 327 l 1
 110 0 l 1
 60 0 l 1
 60 500 l 1
 0 500 l 1
 0 547 l 1
 60 547 l 1
 60 700 l 1
 110 700 l 1
 110 547 l 1
 570 547 l 1
 570 700 l 1
 620 700 l 1
 620 547 l 1
 680 547 l 1
110 500 m 1
 110 375 l 1
 570 375 l 1
 570 500 l 1
 110 500 l 1
EndSplineSet
EndChar

StartChar: hbar
Encoding: 295 295 298
Width: 528
Flags: HMW
LayerCount: 2
Fore
SplineSet
60 0 m 1
 60 616 l 1
 0 616 l 1
 0 663 l 1
 60 663 l 1
 60 750 l 1
 110 750 l 1
 110 663 l 1
 382 663 l 1
 382 616 l 1
 110 616 l 1
 110 0 l 1
 60 0 l 1
418 0 m 1
 418 303 l 2
 418 404 356 461 273 461 c 0
 183 461 110 390 110 303 c 1
 72 303 l 1
 72 413 163 511 283 511 c 0
 386 511 468 429 468 313 c 2
 468 0 l 1
 418 0 l 1
EndSplineSet
EndChar

StartChar: kgreenlandic
Encoding: 312 312 301
Width: 464
Flags: HMW
LayerCount: 2
Fore
SplineSet
60 0 m 1
 60 500 l 1
 110 500 l 1
 110 275 l 1
 137 275 l 1
 365 500 l 1
 432 500 l 1
 182 250 l 1
 432 0 l 1
 365 0 l 1
 137 222 l 1
 110 222 l 1
 110 0 l 1
 60 0 l 1
EndSplineSet
EndChar

StartChar: Lslash
Encoding: 321 321 302
Width: 550
Flags: HMW
LayerCount: 2
Fore
SplineSet
296 408 m 1
 306 362 l 1
 19 305 l 1
 10 351 l 5
 296 408 l 1
120 48 m 1
 520 48 l 1
 520 0 l 1
 70 0 l 1
 70 700 l 1
 120 700 l 1
 120 48 l 1
EndSplineSet
EndChar

StartChar: lslash
Encoding: 322 322 303
Width: 190
Flags: HMW
LayerCount: 2
Fore
SplineSet
171 423 m 1
 180 377 l 1
 19 345 l 1
 10 391 l 1
 171 423 l 1
70 0 m 1
 70 750 l 1
 120 750 l 1
 120 0 l 1
 70 0 l 1
EndSplineSet
EndChar

StartChar: uni02BC
Encoding: 700 700 305
Width: 137
Flags: HMW
LayerCount: 2
Fore
SplineSet
87 750 m 5
 137 737 l 5
 78 516 l 5
 33 527 l 5
 87 750 l 5
EndSplineSet
EndChar

StartChar: uni030B
Encoding: 779 779 306
Width: 424
Flags: HMW
AnchorPoint: "Top1" 205 500 mark 0
LayerCount: 2
Fore
SplineSet
391 658 m 1
 355 695 l 1
 193 533 l 1
 225 500 l 1
 391 658 l 1
231 658 m 1
 195 695 l 1
 33 533 l 1
 65 500 l 1
 231 658 l 1
EndSplineSet
EndChar

StartChar: Eng
Encoding: 330 330 311
Width: 648
Flags: HMW
LayerCount: 2
Fore
SplineSet
60 0 m 1
 60 700 l 1
 110 700 l 1
 110 0 l 1
 60 0 l 1
390 -109 m 6
 490 -109 538 -39 538 48 c 6
 538 443 l 2
 538 582 450 661 333 661 c 0
 210 661 110 563 110 443 c 1
 72 443 l 1
 72 585 189 711 343 711 c 0
 479 711 588 604 588 453 c 2
 588 34 l 6
 588 -66 515 -157 400 -157 c 6
 321 -157 l 5
 321 -109 l 5
 390 -109 l 6
EndSplineSet
EndChar

StartChar: eng
Encoding: 331 331 312
Width: 528
Flags: HMW
LayerCount: 2
Fore
SplineSet
60 0 m 1
 60 500 l 1
 110 500 l 1
 110 0 l 1
 60 0 l 1
418 0 m 6
 418 303 l 2
 418 404 356 461 273 461 c 0
 183 461 110 390 110 303 c 1
 72 303 l 1
 72 413 163 511 283 511 c 0
 386 511 468 429 468 313 c 2
 468 -14 l 6
 468 -88 414 -155 330 -155 c 6
 251 -155 l 5
 251 -107 l 5
 320 -107 l 6
 386 -107 418 -59 418 0 c 6
EndSplineSet
EndChar

StartChar: OE
Encoding: 338 338 313
Width: 1188
Flags: HMW
LayerCount: 2
Fore
SplineSet
748 375 m 1
 1124 375 l 1
 1124 327 l 1
 748 327 l 1
 748 48 l 1
 1148 48 l 1
 1148 0 l 1
 698 0 l 1
 698 700 l 1
 1148 700 l 1
 1148 652 l 1
 748 652 l 1
 748 375 l 1
90 352 m 0
 90 170 221 32 394 32 c 0
 567 32 698 170 698 352 c 0
 698 534 568 670 394 670 c 0
 220 670 90 534 90 352 c 0
40 352 m 0
 40 561 192 720 391 720 c 0
 589 720 738 562 738 352 c 0
 738 141 589 -18 391 -18 c 0
 192 -18 40 143 40 352 c 0
EndSplineSet
EndChar

StartChar: oe
Encoding: 339 339 314
Width: 1086
Flags: HMW
LayerCount: 2
Fore
SplineSet
996 275 m 1
 989 392 898 470 787 470 c 0
 679 470 590 392 579 275 c 1
 996 275 l 1
579 228 m 1
 590 111 681 32 792 32 c 0
 876 32 949 76 984 149 c 1
 1030 130 l 1
 987 39 896 -18 792 -18 c 0
 647 -18 528 93 528 251 c 0
 528 409 645 520 787 520 c 0
 929 520 1046 413 1046 261 c 0
 1046 250 1045 239 1044 228 c 1
 579 228 l 1
90 251 m 0
 90 121 189 32 309 32 c 0
 429 32 528 121 528 251 c 0
 528 381 429 470 309 470 c 0
 189 470 90 381 90 251 c 0
40 251 m 0
 40 409 161 520 309 520 c 0
 451 520 568 409 568 251 c 0
 568 93 451 -18 309 -18 c 0
 161 -18 40 93 40 251 c 0
EndSplineSet
EndChar

StartChar: Tbar
Encoding: 358 358 315
Width: 590
Flags: HMW
LayerCount: 2
Fore
SplineSet
462 380 m 1
 462 333 l 1
 120 333 l 1
 120 380 l 1
 462 380 l 1
560 700 m 1
 560 652 l 1
 320 652 l 1
 320 0 l 1
 270 0 l 1
 270 652 l 1
 30 652 l 1
 30 700 l 1
 560 700 l 1
EndSplineSet
EndChar

StartChar: tbar
Encoding: 359 359 316
Width: 362
Flags: HMW
LayerCount: 2
Fore
SplineSet
328 300 m 1
 328 253 l 1
 30 253 l 1
 30 300 l 1
 328 300 l 1
273 48 m 2
 332 48 l 1
 332 0 l 1
 266 0 l 2
 180 0 125 48 125 124 c 2
 125 453 l 1
 30 453 l 1
 30 500 l 1
 125 500 l 1
 125 650 l 1
 175 660 l 1
 175 500 l 1
 332 500 l 1
 332 453 l 1
 175 453 l 1
 175 135 l 2
 175 76 207 48 273 48 c 2
EndSplineSet
EndChar

StartChar: uni031B
Encoding: 795 795 317
Width: 247
Flags: HMW
AnchorPoint: "Top2" 66 500 mark 0
LayerCount: 2
Fore
SplineSet
46 482 m 1
 46 525 l 1
 106 525 l 2
 141 525 162 544 162 577 c 0
 162 597 153 609 138 620 c 1
 172 653 l 1
 196 637 209 609 209 577 c 0
 209 524 166 482 112 482 c 2
 46 482 l 1
EndSplineSet
EndChar

StartChar: hookabovecomb
Encoding: 777 777 318
Width: 260
Flags: HMW
AnchorPoint: "Top1" 127 500 mark 0
LayerCount: 2
Fore
SplineSet
127 490 m 1
 99 526 l 1
 133 549 l 2
 154 561 166 579 166 599 c 0
 166 626 147 644 120 644 c 0
 97 644 80 631 75 608 c 1
 32 623 l 1
 44 665 78 691 122 691 c 0
 177 691 215 653 215 599 c 0
 215 558 193 533 148 504 c 2
 127 490 l 1
EndSplineSet
EndChar

StartChar: dotbelowcomb
Encoding: 803 803 319
Width: 170
Flags: HMW
AnchorPoint: "Bottom1" 85 0 mark 0
LayerCount: 2
Fore
SplineSet
46 -130 m 0
 46 -108 63 -91 85 -91 c 0
 107 -91 124 -108 124 -130 c 0
 124 -152 107 -169 85 -169 c 0
 63 -169 46 -152 46 -130 c 0
EndSplineSet
EndChar

StartChar: guillemotleft
Encoding: 171 171 320
Width: 500
Flags: HMW
LayerCount: 2
Fore
SplineSet
460 166 m 1
 460 105 l 1
 250 238 l 1
 250 302 l 1
 460 435 l 1
 460 374 l 1
 292 270 l 1
 460 166 l 1
250 166 m 1
 250 105 l 1
 40 238 l 1
 40 302 l 1
 250 435 l 1
 250 374 l 1
 82 270 l 1
 250 166 l 1
EndSplineSet
EndChar

StartChar: guillemotright
Encoding: 187 187 321
Width: 500
Flags: HMW
LayerCount: 2
Fore
SplineSet
40 374 m 5
 40 435 l 5
 250 302 l 5
 250 238 l 5
 40 105 l 5
 40 166 l 5
 208 270 l 5
 40 374 l 5
250 374 m 5
 250 435 l 5
 460 302 l 5
 460 238 l 5
 250 105 l 5
 250 166 l 5
 418 270 l 5
 250 374 l 5
EndSplineSet
EndChar

StartChar: uni00AD
Encoding: 173 173 323
Width: 302
Flags: HMW
LayerCount: 2
Fore
SplineSet
272 290 m 1
 272 243 l 1
 30 243 l 1
 30 290 l 1
 272 290 l 1
EndSplineSet
EndChar

StartChar: degree
Encoding: 176 176 324
Width: 358
Flags: HMW
LayerCount: 2
Fore
SplineSet
80 561 m 0
 80 502 125 462 179 462 c 0
 233 462 278 502 278 561 c 0
 278 620 233 660 179 660 c 0
 125 660 80 620 80 561 c 0
30 561 m 0
 30 649 97 710 179 710 c 0
 261 710 328 649 328 561 c 0
 328 473 261 412 179 412 c 0
 97 412 30 473 30 561 c 0
EndSplineSet
EndChar

StartChar: plusminus
Encoding: 177 177 325
Width: 352
Flags: HMW
LayerCount: 2
Fore
SplineSet
322 10 m 1
 322 -37 l 1
 30 -37 l 1
 30 10 l 1
 322 10 l 1
152 412 m 1
 202 412 l 1
 202 290 l 1
 322 290 l 1
 322 243 l 1
 202 243 l 1
 202 120 l 1
 152 120 l 1
 152 243 l 1
 30 243 l 1
 30 290 l 1
 152 290 l 1
 152 412 l 1
EndSplineSet
EndChar

StartChar: logicalnot
Encoding: 172 172 326
Width: 412
Flags: HMW
LayerCount: 2
Fore
SplineSet
382 340 m 1
 382 170 l 1
 332 170 l 1
 332 293 l 1
 30 293 l 1
 30 340 l 1
 382 340 l 1
EndSplineSet
EndChar

StartChar: mu
Encoding: 181 181 329
Width: 538
Flags: HMW
LayerCount: 2
Fore
SplineSet
478 500 m 1
 478 0 l 1
 428 0 l 1
 428 500 l 1
 478 500 l 1
60 500 m 1
 110 500 l 1
 110 -200 l 1
 60 -200 l 1
 60 500 l 1
468 197 m 1
 468 79 384 -11 275 -11 c 0
 163 -11 72 82 72 197 c 1
 110 197 l 1
 110 109 184 39 278 39 c 0
 368 39 428 102 428 197 c 1
 468 197 l 1
EndSplineSet
EndChar

StartChar: paragraph
Encoding: 182 182 330
Width: 490
Flags: HMW
LayerCount: 2
Fore
SplineSet
430 0 m 1
 380 0 l 1
 380 700 l 1
 430 700 l 1
 430 0 l 1
249 372 m 2
 143 372 60 446 60 541 c 0
 60 631 137 700 239 700 c 2
 316 700 l 1
 316 0 l 1
 266 0 l 1
 266 372 l 1
 249 372 l 2
EndSplineSet
EndChar

StartChar: ordmasculine
Encoding: 186 186 331
Width: 358
Flags: HMW
LayerCount: 2
Fore
SplineSet
328 330 m 1
 328 283 l 1
 30 283 l 1
 30 330 l 1
 328 330 l 1
80 561 m 0
 80 502 125 462 179 462 c 0
 233 462 278 502 278 561 c 0
 278 620 233 660 179 660 c 0
 125 660 80 620 80 561 c 0
30 561 m 0
 30 649 97 710 179 710 c 0
 261 710 328 649 328 561 c 0
 328 473 261 412 179 412 c 0
 97 412 30 473 30 561 c 0
EndSplineSet
EndChar

StartChar: ordfeminine
Encoding: 170 170 332
Width: 358
Flags: HMW
LayerCount: 2
Fore
SplineSet
268 700 m 1
 318 700 l 1
 318 422 l 1
 268 422 l 1
 268 700 l 1
328 330 m 1
 328 283 l 1
 30 283 l 1
 30 330 l 1
 328 330 l 1
80 561 m 0
 80 505 122 462 176 462 c 0
 229 462 268 504 268 561 c 0
 268 618 229 660 176 660 c 0
 122 660 80 617 80 561 c 0
30 561 m 0
 30 644 92 710 170 710 c 0
 245 710 298 648 298 561 c 0
 298 474 245 412 170 412 c 0
 92 412 30 478 30 561 c 0
EndSplineSet
EndChar

StartChar: uni00B9
Encoding: 185 185 333
Width: 192
Flags: HMW
LayerCount: 2
Fore
SplineSet
167 850 m 5
 167 564 l 5
 117 564 l 5
 117 788 l 5
 59 744 l 5
 25 782 l 5
 115 850 l 5
 167 850 l 5
EndSplineSet
EndChar

StartChar: uni00B2
Encoding: 178 178 334
Width: 262
Flags: HMW
LayerCount: 2
Fore
SplineSet
236 752 m 4
 236 812 189 854 132 854 c 4
 73 854 39 815 25 769 c 5
 73 752 l 5
 82 783 100 804 132 804 c 4
 162 804 186 783 186 752 c 4
 186 725 150 701 122 685 c 6
 26 626 l 5
 26 564 l 5
 237 564 l 5
 237 611 l 5
 88 611 l 5
 152 647 l 6
 186 665 236 697 236 752 c 4
EndSplineSet
EndChar

StartChar: uni00B3
Encoding: 179 179 335
Width: 262
Flags: HMW
LayerCount: 2
Fore
SplineSet
169 734 m 1
 231 788 l 1
 231 850 l 1
 37 850 l 1
 37 803 l 1
 179 803 l 1
 105 735 l 1
 129 698 l 1
 167 698 187 680 187 651 c 0
 187 626 165 608 135 608 c 0
 103 608 80 630 73 666 c 1
 25 651 l 1
 38 597 78 558 133 558 c 0
 193 558 237 599 237 656 c 0
 237 700 210 729 169 734 c 1
EndSplineSet
EndChar

StartChar: fractionslash
Encoding: 8260 8260 336
Width: 44
Flags: HMW
LayerCount: 2
Fore
SplineSet
-93 0 m 1
 -150 0 l 1
 137 700 l 1
 194 700 l 1
 -93 0 l 1
EndSplineSet
EndChar

StartChar: uni2010
Encoding: 8208 8208 340
Width: 302
Flags: HMW
LayerCount: 2
Fore
SplineSet
272 290 m 1
 272 243 l 1
 30 243 l 1
 30 290 l 1
 272 290 l 1
EndSplineSet
EndChar

StartChar: endash
Encoding: 8211 8211 341
Width: 502
Flags: HMW
LayerCount: 2
Fore
SplineSet
472 290 m 1
 472 243 l 1
 30 243 l 1
 30 290 l 1
 472 290 l 1
EndSplineSet
EndChar

StartChar: emdash
Encoding: 8212 8212 342
Width: 802
Flags: HMW
LayerCount: 2
Fore
SplineSet
772 290 m 5
 772 243 l 5
 30 243 l 1
 30 290 l 1
 772 290 l 5
EndSplineSet
EndChar

StartChar: quoteleft
Encoding: 8216 8216 343
Width: 216
Flags: HMW
LayerCount: 2
Fore
SplineSet
169 738 m 1
 112 725 70 674 70 618 c 1
 79 632 99 641 120 641 c 0
 157 641 186 611 186 573 c 0
 186 535 155 507 114 507 c 0
 86 507 64 520 48 546 c 0
 36 565 30 589 30 616 c 0
 30 683 86 757 153 776 c 1
 169 738 l 1
EndSplineSet
EndChar

StartChar: quoteright
Encoding: 8217 8217 344
Width: 216
Flags: HMW
LayerCount: 2
Fore
SplineSet
47 545 m 1
 104 558 146 609 146 665 c 1
 137 651 117 642 96 642 c 0
 59 642 30 671 30 709 c 0
 30 747 61 776 102 776 c 0
 130 776 152 763 168 737 c 0
 180 718 186 693 186 666 c 0
 186 599 130 526 63 507 c 1
 47 545 l 1
EndSplineSet
EndChar

StartChar: quotesinglbase
Encoding: 8218 8218 345
Width: 216
Flags: HMW
LayerCount: 2
Fore
SplineSet
47 -97 m 1
 104 -84 146 -33 146 23 c 1
 137 9 117 0 96 0 c 0
 59 0 30 29 30 67 c 0
 30 105 61 134 102 134 c 0
 130 134 152 121 168 95 c 0
 180 76 186 51 186 24 c 0
 186 -43 130 -116 63 -135 c 1
 47 -97 l 1
EndSplineSet
EndChar

StartChar: quotereversed
Encoding: 8219 8219 346
Width: 216
Flags: HMW
LayerCount: 2
Fore
SplineSet
169 545 m 1
 153 507 l 1
 86 526 30 600 30 667 c 0
 30 694 36 718 48 737 c 0
 64 763 86 776 114 776 c 0
 155 776 186 748 186 710 c 0
 186 672 157 642 120 642 c 0
 99 642 79 651 70 665 c 1
 70 609 112 558 169 545 c 1
EndSplineSet
EndChar

StartChar: quotedblleft
Encoding: 8220 8220 347
Width: 406
Flags: HMW
LayerCount: 2
Fore
SplineSet
359 738 m 1
 302 725 260 674 260 618 c 1
 269 632 289 641 310 641 c 0
 347 641 376 611 376 573 c 0
 376 535 345 507 304 507 c 0
 276 507 254 520 238 546 c 0
 226 565 220 589 220 616 c 0
 220 683 276 757 343 776 c 1
 359 738 l 1
169 738 m 1
 112 725 70 674 70 618 c 1
 79 632 99 641 120 641 c 0
 157 641 186 611 186 573 c 0
 186 535 155 507 114 507 c 0
 86 507 64 520 48 546 c 0
 36 565 30 589 30 616 c 0
 30 683 86 757 153 776 c 1
 169 738 l 1
EndSplineSet
EndChar

StartChar: quotedblright
Encoding: 8221 8221 348
Width: 406
Flags: HMW
LayerCount: 2
Fore
SplineSet
47 545 m 1
 104 558 146 609 146 665 c 1
 137 651 117 642 96 642 c 0
 59 642 30 672 30 710 c 0
 30 748 61 776 102 776 c 0
 130 776 152 763 168 737 c 0
 180 718 186 694 186 667 c 0
 186 600 130 526 63 507 c 1
 47 545 l 1
237 545 m 1
 294 558 336 609 336 665 c 1
 327 651 307 642 286 642 c 0
 249 642 220 672 220 710 c 0
 220 748 251 776 292 776 c 0
 320 776 342 763 358 737 c 0
 370 718 376 694 376 667 c 0
 376 600 320 526 253 507 c 1
 237 545 l 1
EndSplineSet
EndChar

StartChar: quotedblbase
Encoding: 8222 8222 349
Width: 406
Flags: HMW
LayerCount: 2
Fore
SplineSet
47 -97 m 1
 104 -84 146 -33 146 23 c 1
 137 9 117 0 96 0 c 0
 59 0 30 30 30 68 c 0
 30 106 61 134 102 134 c 0
 130 134 152 121 168 95 c 0
 180 76 186 52 186 25 c 0
 186 -42 130 -116 63 -135 c 1
 47 -97 l 1
237 -97 m 1
 294 -84 336 -33 336 23 c 1
 327 9 307 0 286 0 c 0
 249 0 220 30 220 68 c 0
 220 106 251 134 292 134 c 0
 320 134 342 121 358 95 c 0
 370 76 376 52 376 25 c 0
 376 -42 320 -116 253 -135 c 1
 237 -97 l 1
EndSplineSet
EndChar

StartChar: uni201F
Encoding: 8223 8223 350
Width: 406
Flags: HMW
LayerCount: 2
Fore
SplineSet
359 545 m 1
 343 507 l 1
 276 526 220 600 220 667 c 0
 220 694 226 718 238 737 c 0
 254 763 276 776 304 776 c 0
 345 776 376 748 376 710 c 0
 376 672 347 642 310 642 c 0
 289 642 269 651 260 665 c 1
 260 609 302 558 359 545 c 1
169 545 m 1
 153 507 l 1
 86 526 30 600 30 667 c 0
 30 694 36 718 48 737 c 0
 64 763 86 776 114 776 c 0
 155 776 186 748 186 710 c 0
 186 672 157 642 120 642 c 0
 99 642 79 651 70 665 c 1
 70 609 112 558 169 545 c 1
EndSplineSet
EndChar

StartChar: dagger
Encoding: 8224 8224 351
Width: 352
Flags: HMW
LayerCount: 2
Fore
SplineSet
142 614 m 1
 212 614 l 1
 202 492 l 1
 322 492 l 1
 322 445 l 1
 202 445 l 1
 202 0 l 1
 152 0 l 1
 152 445 l 1
 30 445 l 1
 30 492 l 1
 152 492 l 1
 142 614 l 1
EndSplineSet
EndChar

StartChar: daggerdbl
Encoding: 8225 8225 352
Width: 352
Flags: HMW
LayerCount: 2
Fore
SplineSet
140 614 m 1
 210 614 l 1
 200 492 l 1
 320 492 l 1
 320 445 l 1
 200 445 l 1
 200 169 l 1
 322 169 l 1
 322 122 l 1
 200 122 l 1
 210 0 l 1
 140 0 l 1
 150 122 l 1
 30 122 l 1
 30 169 l 1
 150 169 l 1
 150 445 l 1
 28 445 l 1
 28 492 l 1
 150 492 l 1
 140 614 l 1
EndSplineSet
EndChar

StartChar: bullet
Encoding: 8226 8226 353
Width: 170
Flags: HMW
LayerCount: 2
Fore
SplineSet
36 289 m 0
 36 317 57 338 85 338 c 0
 113 338 134 317 134 289 c 0
 134 261 113 240 85 240 c 0
 57 240 36 261 36 289 c 0
EndSplineSet
EndChar

StartChar: perthousand
Encoding: 8240 8240 354
Width: 1192
Flags: HMW
LayerCount: 2
Fore
SplineSet
874 159 m 0
 874 88 928 40 993 40 c 0
 1058 40 1112 88 1112 159 c 0
 1112 230 1058 278 993 278 c 0
 928 278 874 230 874 159 c 0
824 159 m 0
 824 258 900 328 993 328 c 0
 1086 328 1162 258 1162 159 c 0
 1162 60 1086 -10 993 -10 c 0
 900 -10 824 60 824 159 c 0
484 159 m 0
 484 88 538 40 603 40 c 0
 668 40 722 88 722 159 c 0
 722 230 668 278 603 278 c 0
 538 278 484 230 484 159 c 0
434 159 m 0
 434 258 510 328 603 328 c 0
 696 328 772 258 772 159 c 0
 772 60 696 -10 603 -10 c 0
 510 -10 434 60 434 159 c 0
80 541 m 0
 80 470 134 422 199 422 c 0
 264 422 318 470 318 541 c 0
 318 612 264 660 199 660 c 0
 134 660 80 612 80 541 c 0
30 541 m 0
 30 640 106 710 199 710 c 0
 292 710 368 640 368 541 c 0
 368 442 292 372 199 372 c 0
 106 372 30 442 30 541 c 0
286 0 m 1
 229 0 l 1
 516 700 l 1
 573 700 l 1
 286 0 l 1
EndSplineSet
EndChar

StartChar: arrowleft
Encoding: 8592 8592 355
Width: 726
Flags: HMW
LayerCount: 2
Fore
SplineSet
306 625 m 1
 340 592 l 1
 140 392 l 1
 676 392 l 1
 676 345 l 1
 141 345 l 1
 340 146 l 1
 306 113 l 1
 50 369 l 1
 306 625 l 1
EndSplineSet
EndChar

StartChar: arrowup
Encoding: 8593 8593 356
Width: 611
Flags: HMW
LayerCount: 2
Fore
SplineSet
561 425 m 1
 528 392 l 1
 328 592 l 1
 328 56 l 1
 281 56 l 1
 281 591 l 1
 83 392 l 1
 50 425 l 1
 306 681 l 1
 561 425 l 1
EndSplineSet
EndChar

StartChar: arrowright
Encoding: 8594 8594 357
Width: 726
Flags: HMW
LayerCount: 2
Fore
SplineSet
420 96 m 1
 386 129 l 1
 586 329 l 1
 50 329 l 1
 50 376 l 1
 585 376 l 1
 386 575 l 1
 420 608 l 1
 676 352 l 1
 420 96 l 1
EndSplineSet
EndChar

StartChar: arrowdown
Encoding: 8595 8595 358
Width: 611
Flags: HMW
LayerCount: 2
Fore
SplineSet
50 296 m 1
 83 329 l 1
 283 129 l 1
 283 665 l 1
 330 665 l 1
 330 130 l 1
 528 329 l 1
 561 296 l 1
 305 40 l 1
 50 296 l 1
EndSplineSet
EndChar

StartChar: arrowboth
Encoding: 8596 8596 359
Width: 856
Flags: HMW
LayerCount: 2
Fore
SplineSet
550 96 m 1
 516 129 l 1
 716 329 l 1
 142 329 l 1
 340 131 l 1
 306 98 l 1
 50 354 l 1
 306 610 l 1
 340 577 l 1
 140 377 l 1
 714 377 l 1
 516 575 l 1
 550 608 l 1
 806 352 l 1
 550 96 l 1
EndSplineSet
EndChar

StartChar: arrowupdn
Encoding: 8597 8597 360
Width: 614
Flags: HMW
LayerCount: 2
Fore
SplineSet
50 231 m 1
 83 265 l 1
 283 65 l 1
 283 639 l 1
 85 441 l 1
 52 475 l 1
 308 731 l 1
 564 475 l 1
 531 441 l 1
 331 641 l 1
 331 67 l 1
 529 265 l 1
 562 231 l 1
 306 -25 l 1
 50 231 l 1
EndSplineSet
EndChar

StartChar: uni2196
Encoding: 8598 8598 361
Width: 558
Flags: HMW
LayerCount: 2
Fore
SplineSet
412 590 m 1
 412 543 l 1
 129 543 l 1
 508 164 l 1
 475 131 l 1
 97 509 l 1
 97 228 l 1
 50 228 l 1
 50 590 l 1
 412 590 l 1
EndSplineSet
EndChar

StartChar: uni2197
Encoding: 8599 8599 362
Width: 558
Flags: HMW
LayerCount: 2
Fore
SplineSet
508 228 m 1
 462 228 l 1
 462 510 l 1
 82 132 l 1
 50 164 l 1
 428 542 l 1
 146 542 l 1
 146 590 l 1
 508 590 l 1
 508 228 l 1
EndSplineSet
EndChar

StartChar: uni2198
Encoding: 8600 8600 363
Width: 558
Flags: HMW
LayerCount: 2
Fore
SplineSet
146 131 m 1
 146 178 l 1
 429 178 l 1
 50 557 l 1
 83 590 l 1
 461 212 l 1
 461 493 l 1
 508 493 l 1
 508 131 l 1
 146 131 l 1
EndSplineSet
EndChar

StartChar: uni2199
Encoding: 8601 8601 364
Width: 558
Flags: HMW
LayerCount: 2
Fore
SplineSet
50 494 m 1
 96 494 l 1
 96 210 l 1
 476 590 l 1
 508 556 l 1
 130 178 l 1
 412 178 l 1
 412 132 l 1
 50 132 l 1
 50 494 l 1
EndSplineSet
EndChar

StartChar: uni2070
Encoding: 8304 8304 365
Width: 270
Flags: HMW
LayerCount: 2
Fore
SplineSet
75 670 m 6
 75 633 103 607 136 607 c 4
 168 607 195 633 195 670 c 6
 195 743 l 6
 195 781 168 807 136 807 c 4
 103 807 75 781 75 743 c 6
 75 670 l 6
25 670 m 6
 25 743 l 6
 25 810 75 857 136 857 c 4
 196 857 245 810 245 743 c 6
 245 670 l 6
 245 604 196 557 136 557 c 4
 75 557 25 604 25 670 c 6
EndSplineSet
EndChar

StartChar: uni2074
Encoding: 8308 8308 366
Width: 260
Flags: HMW
LayerCount: 2
Fore
SplineSet
72 671 m 1
 151 671 l 1
 151 785 l 1
 72 671 l 1
201 850 m 1
 201 671 l 1
 235 671 l 1
 235 624 l 1
 201 624 l 1
 201 564 l 1
 151 564 l 1
 151 624 l 1
 25 624 l 1
 25 681 l 1
 141 850 l 1
 201 850 l 1
EndSplineSet
EndChar

StartChar: uni2075
Encoding: 8309 8309 367
Width: 270
Flags: HMW
LayerCount: 2
Fore
SplineSet
75 737 m 1
 75 803 l 1
 234 803 l 1
 234 850 l 1
 25 850 l 1
 25 707 l 1
 75 687 l 1
 94 709 119 723 142 723 c 0
 173 723 195 698 195 664 c 0
 195 630 171 607 135 607 c 0
 103 607 80 625 73 655 c 1
 25 640 l 1
 40 589 83 557 137 557 c 0
 200 557 245 602 245 664 c 0
 245 724 204 771 151 771 c 0
 124 771 96 759 75 737 c 1
EndSplineSet
EndChar

StartChar: uni2076
Encoding: 8310 8310 368
Width: 270
Flags: HMW
LayerCount: 2
Fore
SplineSet
206 770 m 1
 193 794 171 807 146 807 c 0
 106 807 79 771 75 714 c 1
 88 739 116 755 147 755 c 0
 199 755 241 711 241 656 c 0
 241 600 197 557 137 557 c 0
 104 557 76 570 56 596 c 0
 36 622 25 657 25 700 c 0
 25 793 75 857 148 857 c 0
 189 857 226 837 245 802 c 1
 206 770 l 1
85 658 m 0
 85 629 109 607 139 607 c 0
 169 607 191 627 191 655 c 0
 191 684 168 705 137 705 c 0
 107 705 85 685 85 658 c 0
EndSplineSet
EndChar

StartChar: uni2077
Encoding: 8311 8311 369
Width: 263
Flags: HMW
LayerCount: 2
Fore
SplineSet
149 564 m 1
 238 793 l 1
 238 850 l 1
 25 850 l 1
 25 803 l 1
 191 803 l 1
 93 564 l 1
 149 564 l 1
EndSplineSet
EndChar

StartChar: uni2078
Encoding: 8312 8312 370
Width: 268
Flags: HMW
LayerCount: 2
Fore
SplineSet
75 647 m 0
 75 624 100 607 134 607 c 0
 168 607 193 624 193 647 c 0
 193 670 168 687 134 687 c 0
 100 687 75 670 75 647 c 0
35 776 m 0
 35 821 79 857 134 857 c 0
 189 857 233 821 233 776 c 0
 233 747 215 723 182 710 c 1
 221 698 243 673 243 641 c 0
 243 594 195 557 134 557 c 0
 73 557 25 594 25 641 c 0
 25 673 47 698 86 710 c 1
 53 723 35 747 35 776 c 0
134 731 m 0
 161 731 183 749 183 771 c 0
 183 792 163 807 134 807 c 0
 105 807 85 792 85 771 c 0
 85 749 107 731 134 731 c 0
EndSplineSet
EndChar

StartChar: uni2079
Encoding: 8313 8313 371
Width: 270
Flags: HMW
LayerCount: 2
Fore
SplineSet
64 644 m 1
 77 620 99 607 124 607 c 0
 164 607 191 643 195 700 c 1
 182 675 154 659 123 659 c 0
 71 659 29 703 29 758 c 0
 29 814 73 857 133 857 c 0
 166 857 194 844 214 818 c 0
 234 792 245 757 245 714 c 0
 245 621 195 557 122 557 c 0
 81 557 44 577 25 612 c 1
 64 644 l 1
185 756 m 0
 185 785 161 807 131 807 c 0
 101 807 79 787 79 759 c 0
 79 730 102 709 133 709 c 0
 163 709 185 729 185 756 c 0
EndSplineSet
EndChar

StartChar: uni2080
Encoding: 8320 8320 372
Width: 270
Flags: HMW
LayerCount: 2
Fore
SplineSet
75 -45 m 6
 75 -82 103 -108 136 -108 c 4
 168 -108 195 -82 195 -45 c 6
 195 28 l 6
 195 66 168 92 136 92 c 4
 103 92 75 66 75 28 c 6
 75 -45 l 6
25 -45 m 6
 25 28 l 6
 25 95 75 142 136 142 c 4
 196 142 245 95 245 28 c 6
 245 -45 l 6
 245 -111 196 -158 136 -158 c 4
 75 -158 25 -111 25 -45 c 6
EndSplineSet
EndChar

StartChar: uni2081
Encoding: 8321 8321 373
Width: 192
Flags: HMW
LayerCount: 2
Fore
SplineSet
167 136 m 5
 167 -150 l 5
 117 -150 l 5
 117 74 l 5
 59 30 l 5
 25 68 l 5
 115 136 l 5
 167 136 l 5
EndSplineSet
EndChar

StartChar: uni2082
Encoding: 8322 8322 374
Width: 262
Flags: HMW
LayerCount: 2
Fore
SplineSet
236 38 m 4
 236 98 189 140 132 140 c 4
 73 140 39 101 25 55 c 5
 73 38 l 5
 82 69 100 90 132 90 c 4
 162 90 186 69 186 38 c 4
 186 11 150 -13 122 -29 c 6
 26 -88 l 5
 26 -150 l 5
 237 -150 l 5
 237 -103 l 5
 88 -103 l 5
 152 -67 l 6
 186 -49 236 -17 236 38 c 4
EndSplineSet
EndChar

StartChar: uni2083
Encoding: 8323 8323 375
Width: 262
Flags: HMW
LayerCount: 2
Fore
SplineSet
169 21 m 5
 231 75 l 5
 231 137 l 5
 37 137 l 5
 37 90 l 5
 179 90 l 5
 105 22 l 5
 129 -15 l 5
 167 -15 187 -33 187 -62 c 4
 187 -87 165 -105 135 -105 c 4
 103 -105 80 -83 73 -47 c 5
 25 -62 l 5
 38 -116 78 -155 133 -155 c 4
 193 -155 237 -114 237 -57 c 4
 237 -13 210 16 169 21 c 5
EndSplineSet
EndChar

StartChar: uni2084
Encoding: 8324 8324 376
Width: 260
Flags: HMW
LayerCount: 2
Fore
SplineSet
72 -43 m 5
 151 -43 l 1
 151 71 l 1
 72 -43 l 5
201 136 m 1
 201 -43 l 1
 235 -43 l 1
 235 -90 l 1
 201 -90 l 1
 201 -150 l 1
 151 -150 l 1
 151 -90 l 1
 25 -90 l 1
 25 -33 l 1
 141 136 l 1
 201 136 l 1
EndSplineSet
EndChar

StartChar: uni2085
Encoding: 8325 8325 377
Width: 270
Flags: HMW
LayerCount: 2
Fore
SplineSet
75 22 m 1
 75 88 l 1
 234 88 l 1
 234 135 l 1
 25 135 l 1
 25 -8 l 1
 75 -28 l 1
 94 -6 119 8 142 8 c 0
 173 8 195 -17 195 -51 c 0
 195 -85 171 -108 135 -108 c 0
 103 -108 80 -90 73 -60 c 1
 25 -75 l 1
 40 -126 83 -158 137 -158 c 0
 200 -158 245 -113 245 -51 c 0
 245 9 204 56 151 56 c 0
 124 56 96 44 75 22 c 1
EndSplineSet
EndChar

StartChar: uni2086
Encoding: 8326 8326 378
Width: 270
Flags: HMW
LayerCount: 2
Fore
SplineSet
206 55 m 5
 193 79 171 92 146 92 c 4
 106 92 79 56 75 -1 c 5
 88 24 116 40 147 40 c 4
 199 40 241 -4 241 -59 c 4
 241 -115 197 -158 137 -158 c 4
 104 -158 76 -145 56 -119 c 4
 36 -93 25 -58 25 -15 c 4
 25 78 75 142 148 142 c 4
 189 142 226 122 245 87 c 5
 206 55 l 5
85 -57 m 4
 85 -86 109 -108 139 -108 c 4
 169 -108 191 -88 191 -60 c 4
 191 -31 168 -10 137 -10 c 4
 107 -10 85 -30 85 -57 c 4
EndSplineSet
EndChar

StartChar: uni2087
Encoding: 8327 8327 379
Width: 263
Flags: HMW
LayerCount: 2
Fore
SplineSet
149 -150 m 1
 238 79 l 1
 238 136 l 1
 25 136 l 1
 25 89 l 1
 191 89 l 1
 93 -150 l 1
 149 -150 l 1
EndSplineSet
EndChar

StartChar: uni2088
Encoding: 8328 8328 380
Width: 268
Flags: HMW
LayerCount: 2
Fore
SplineSet
75 -68 m 0
 75 -91 100 -108 134 -108 c 0
 168 -108 193 -91 193 -68 c 0
 193 -45 168 -28 134 -28 c 0
 100 -28 75 -45 75 -68 c 0
35 61 m 0
 35 106 79 142 134 142 c 0
 189 142 233 106 233 61 c 0
 233 32 215 8 182 -5 c 1
 221 -17 243 -42 243 -74 c 0
 243 -121 195 -158 134 -158 c 0
 73 -158 25 -121 25 -74 c 0
 25 -42 47 -17 86 -5 c 1
 53 8 35 32 35 61 c 0
134 16 m 0
 161 16 183 34 183 56 c 0
 183 77 163 92 134 92 c 0
 105 92 85 77 85 56 c 0
 85 34 107 16 134 16 c 0
EndSplineSet
EndChar

StartChar: uni2089
Encoding: 8329 8329 381
Width: 270
Flags: HMW
LayerCount: 2
Fore
SplineSet
64 -71 m 1
 77 -95 99 -108 124 -108 c 0
 164 -108 191 -72 195 -15 c 1
 182 -40 154 -56 123 -56 c 0
 71 -56 29 -12 29 43 c 0
 29 99 73 142 133 142 c 0
 166 142 194 129 214 103 c 0
 234 77 245 42 245 -1 c 0
 245 -94 195 -158 122 -158 c 0
 81 -158 44 -138 25 -103 c 1
 64 -71 l 1
185 41 m 0
 185 70 161 92 131 92 c 0
 101 92 79 72 79 44 c 0
 79 15 102 -6 133 -6 c 0
 163 -6 185 14 185 41 c 0
EndSplineSet
EndChar

StartChar: zero.dnom
Encoding: 1114112 -1 382
Width: 270
Flags: HMW
LayerCount: 2
Fore
SplineSet
75 105 m 6
 75 68 103 42 136 42 c 4
 168 42 195 68 195 105 c 6
 195 178 l 6
 195 216 168 242 136 242 c 4
 103 242 75 216 75 178 c 6
 75 105 l 6
25 105 m 6
 25 178 l 6
 25 245 75 292 136 292 c 4
 196 292 245 245 245 178 c 6
 245 105 l 6
 245 39 196 -8 136 -8 c 4
 75 -8 25 39 25 105 c 6
EndSplineSet
EndChar

StartChar: one.dnom
Encoding: 1114113 -1 383
Width: 192
Flags: HMW
LayerCount: 2
Fore
SplineSet
167 286 m 5
 167 0 l 5
 117 0 l 5
 117 224 l 5
 59 180 l 5
 25 218 l 5
 115 286 l 5
 167 286 l 5
EndSplineSet
EndChar

StartChar: two.dnom
Encoding: 1114114 -1 384
Width: 262
Flags: HMW
LayerCount: 2
Fore
SplineSet
236 188 m 4
 236 248 189 290 132 290 c 4
 73 290 39 251 25 205 c 5
 73 188 l 5
 82 219 100 240 132 240 c 4
 162 240 186 219 186 188 c 4
 186 161 150 137 122 121 c 6
 26 62 l 5
 26 0 l 5
 237 0 l 5
 237 47 l 5
 88 47 l 5
 152 83 l 6
 186 101 236 133 236 188 c 4
EndSplineSet
EndChar

StartChar: three.dnom
Encoding: 1114115 -1 385
Width: 262
Flags: HMW
LayerCount: 2
Fore
SplineSet
169 171 m 5
 231 225 l 5
 231 287 l 5
 37 287 l 5
 37 240 l 5
 179 240 l 5
 105 172 l 5
 129 135 l 5
 167 135 187 117 187 88 c 4
 187 63 165 45 135 45 c 4
 103 45 80 67 73 103 c 5
 25 88 l 5
 38 34 78 -5 133 -5 c 4
 193 -5 237 36 237 93 c 4
 237 137 210 166 169 171 c 5
EndSplineSet
EndChar

StartChar: four.dnom
Encoding: 1114116 -1 386
Width: 260
Flags: HMW
LayerCount: 2
Fore
SplineSet
72 107 m 5
 151 107 l 1
 151 221 l 1
 72 107 l 5
201 286 m 1
 201 107 l 1
 235 107 l 1
 235 60 l 1
 201 60 l 1
 201 0 l 1
 151 0 l 1
 151 60 l 1
 25 60 l 1
 25 117 l 1
 141 286 l 1
 201 286 l 1
EndSplineSet
EndChar

StartChar: five.dnom
Encoding: 1114117 -1 387
Width: 270
Flags: HMW
LayerCount: 2
Fore
SplineSet
75 172 m 1
 75 238 l 1
 234 238 l 1
 234 285 l 1
 25 285 l 1
 25 142 l 1
 75 122 l 1
 94 144 119 158 142 158 c 0
 173 158 195 133 195 99 c 0
 195 65 171 42 135 42 c 0
 103 42 80 60 73 90 c 1
 25 75 l 1
 40 24 83 -8 137 -8 c 0
 200 -8 245 37 245 99 c 0
 245 159 204 206 151 206 c 0
 124 206 96 194 75 172 c 1
EndSplineSet
EndChar

StartChar: six.dnom
Encoding: 1114118 -1 388
Width: 270
Flags: HMW
LayerCount: 2
Fore
SplineSet
206 205 m 5
 193 229 171 242 146 242 c 4
 106 242 79 206 75 149 c 5
 88 174 116 190 147 190 c 4
 199 190 241 146 241 91 c 4
 241 35 197 -8 137 -8 c 4
 104 -8 76 5 56 31 c 4
 36 57 25 92 25 135 c 4
 25 228 75 292 148 292 c 4
 189 292 226 272 245 237 c 5
 206 205 l 5
85 93 m 4
 85 64 109 42 139 42 c 4
 169 42 191 62 191 90 c 4
 191 119 168 140 137 140 c 4
 107 140 85 120 85 93 c 4
EndSplineSet
EndChar

StartChar: seven.dnom
Encoding: 1114119 -1 389
Width: 263
Flags: HMW
LayerCount: 2
Fore
SplineSet
149 0 m 1
 238 229 l 1
 238 286 l 1
 25 286 l 1
 25 239 l 1
 191 239 l 1
 93 0 l 1
 149 0 l 1
EndSplineSet
EndChar

StartChar: eight.dnom
Encoding: 1114120 -1 390
Width: 268
Flags: HMW
LayerCount: 2
Fore
SplineSet
75 82 m 0
 75 59 100 42 134 42 c 0
 168 42 193 59 193 82 c 0
 193 105 168 122 134 122 c 0
 100 122 75 105 75 82 c 0
35 211 m 0
 35 256 79 292 134 292 c 0
 189 292 233 256 233 211 c 0
 233 182 215 158 182 145 c 1
 221 133 243 108 243 76 c 0
 243 29 195 -8 134 -8 c 0
 73 -8 25 29 25 76 c 0
 25 108 47 133 86 145 c 1
 53 158 35 182 35 211 c 0
134 166 m 0
 161 166 183 184 183 206 c 0
 183 227 163 242 134 242 c 0
 105 242 85 227 85 206 c 0
 85 184 107 166 134 166 c 0
EndSplineSet
EndChar

StartChar: nine.dnom
Encoding: 1114121 -1 391
Width: 270
Flags: HMW
LayerCount: 2
Fore
SplineSet
64 79 m 1
 77 55 99 42 124 42 c 0
 164 42 191 78 195 135 c 1
 182 110 154 94 123 94 c 0
 71 94 29 138 29 193 c 0
 29 249 73 292 133 292 c 0
 166 292 194 279 214 253 c 0
 234 227 245 192 245 149 c 0
 245 56 195 -8 122 -8 c 0
 81 -8 44 12 25 47 c 1
 64 79 l 1
185 191 m 0
 185 220 161 242 131 242 c 0
 101 242 79 222 79 194 c 0
 79 165 102 144 133 144 c 0
 163 144 185 164 185 191 c 0
EndSplineSet
EndChar

StartChar: zero.numr
Encoding: 1114122 -1 392
Width: 270
Flags: HMW
LayerCount: 2
Fore
SplineSet
75 520 m 6
 75 483 103 457 136 457 c 4
 168 457 195 483 195 520 c 6
 195 593 l 6
 195 631 168 657 136 657 c 4
 103 657 75 631 75 593 c 6
 75 520 l 6
25 520 m 6
 25 593 l 6
 25 660 75 707 136 707 c 4
 196 707 245 660 245 593 c 6
 245 520 l 6
 245 454 196 407 136 407 c 4
 75 407 25 454 25 520 c 6
EndSplineSet
EndChar

StartChar: one.numr
Encoding: 1114123 -1 393
Width: 192
Flags: HMW
LayerCount: 2
Fore
SplineSet
167 700 m 5
 167 414 l 5
 117 414 l 5
 117 638 l 5
 59 594 l 5
 25 632 l 5
 115 700 l 5
 167 700 l 5
EndSplineSet
EndChar

StartChar: two.numr
Encoding: 1114124 -1 394
Width: 262
Flags: HMW
LayerCount: 2
Fore
SplineSet
236 602 m 4
 236 662 189 704 132 704 c 4
 73 704 39 665 25 619 c 5
 73 602 l 5
 82 633 100 654 132 654 c 4
 162 654 186 633 186 602 c 4
 186 575 150 551 122 535 c 6
 26 476 l 5
 26 414 l 5
 237 414 l 5
 237 461 l 5
 88 461 l 5
 152 497 l 6
 186 515 236 547 236 602 c 4
EndSplineSet
EndChar

StartChar: three.numr
Encoding: 1114125 -1 395
Width: 262
Flags: HMW
LayerCount: 2
Fore
SplineSet
169 584 m 1
 231 638 l 1
 231 700 l 1
 37 700 l 1
 37 653 l 1
 179 653 l 1
 105 585 l 1
 129 548 l 1
 167 548 187 530 187 501 c 0
 187 476 165 458 135 458 c 0
 103 458 80 480 73 516 c 1
 25 501 l 1
 38 447 78 408 133 408 c 0
 193 408 237 449 237 506 c 0
 237 550 210 579 169 584 c 1
EndSplineSet
EndChar

StartChar: four.numr
Encoding: 1114126 -1 396
Width: 260
Flags: HMW
LayerCount: 2
Fore
SplineSet
72 521 m 1
 151 521 l 1
 151 635 l 1
 72 521 l 1
201 700 m 1
 201 521 l 1
 235 521 l 1
 235 474 l 1
 201 474 l 1
 201 414 l 1
 151 414 l 1
 151 474 l 1
 25 474 l 1
 25 531 l 1
 141 700 l 1
 201 700 l 1
EndSplineSet
EndChar

StartChar: five.numr
Encoding: 1114127 -1 397
Width: 270
Flags: HMW
LayerCount: 2
Fore
SplineSet
75 587 m 1
 75 653 l 1
 234 653 l 1
 234 700 l 1
 25 700 l 1
 25 557 l 1
 75 537 l 1
 94 559 119 573 142 573 c 0
 173 573 195 548 195 514 c 0
 195 480 171 457 135 457 c 0
 103 457 80 475 73 505 c 1
 25 490 l 1
 40 439 83 407 137 407 c 0
 200 407 245 452 245 514 c 0
 245 574 204 621 151 621 c 0
 124 621 96 609 75 587 c 1
EndSplineSet
EndChar

StartChar: six.numr
Encoding: 1114128 -1 398
Width: 270
Flags: HMW
LayerCount: 2
Fore
SplineSet
206 620 m 1
 193 644 171 657 146 657 c 0
 106 657 79 621 75 564 c 1
 88 589 116 605 147 605 c 0
 199 605 241 561 241 506 c 0
 241 450 197 407 137 407 c 0
 104 407 76 420 56 446 c 0
 36 472 25 507 25 550 c 0
 25 643 75 707 148 707 c 0
 189 707 226 687 245 652 c 1
 206 620 l 1
85 508 m 0
 85 479 109 457 139 457 c 0
 169 457 191 477 191 505 c 0
 191 534 168 555 137 555 c 0
 107 555 85 535 85 508 c 0
EndSplineSet
EndChar

StartChar: seven.numr
Encoding: 1114129 -1 399
Width: 263
Flags: HMW
LayerCount: 2
Fore
SplineSet
149 414 m 1
 238 643 l 1
 238 700 l 1
 25 700 l 1
 25 653 l 1
 191 653 l 1
 93 414 l 1
 149 414 l 1
EndSplineSet
EndChar

StartChar: eight.numr
Encoding: 1114130 -1 400
Width: 268
Flags: HMW
LayerCount: 2
Fore
SplineSet
75 497 m 0
 75 474 100 457 134 457 c 0
 168 457 193 474 193 497 c 0
 193 520 168 537 134 537 c 0
 100 537 75 520 75 497 c 0
35 626 m 0
 35 671 79 707 134 707 c 0
 189 707 233 671 233 626 c 0
 233 597 215 573 182 560 c 1
 221 548 243 523 243 491 c 0
 243 444 195 407 134 407 c 0
 73 407 25 444 25 491 c 0
 25 523 47 548 86 560 c 1
 53 573 35 597 35 626 c 0
134 581 m 0
 161 581 183 599 183 621 c 0
 183 642 163 657 134 657 c 0
 105 657 85 642 85 621 c 0
 85 599 107 581 134 581 c 0
EndSplineSet
EndChar

StartChar: nine.numr
Encoding: 1114131 -1 401
Width: 270
Flags: HMW
LayerCount: 2
Fore
SplineSet
64 494 m 1
 77 470 99 457 124 457 c 0
 164 457 191 493 195 550 c 1
 182 525 154 509 123 509 c 0
 71 509 29 553 29 608 c 0
 29 664 73 707 133 707 c 0
 166 707 194 694 214 668 c 0
 234 642 245 607 245 564 c 0
 245 471 195 407 122 407 c 0
 81 407 44 427 25 462 c 1
 64 494 l 1
185 606 m 0
 185 635 161 657 131 657 c 0
 101 657 79 637 79 609 c 0
 79 580 102 559 133 559 c 0
 163 559 185 579 185 606 c 0
EndSplineSet
EndChar

StartChar: trademark
Encoding: 8482 8482 404
Width: 431
Flags: HW
LayerCount: 2
Fore
SplineSet
179 700 m 1
 179 669 l 1
 125 669 l 1
 125 516 l 1
 92 516 l 1
 92 669 l 1
 40 669 l 1
 40 700 l 1
 179 700 l 1
202 516 m 1
 202 700 l 1
 249 700 l 1
 296 592 l 1
 343 700 l 1
 391 700 l 1
 391 516 l 1
 358 516 l 1
 358 650 l 1
 312 546 l 1
 281 546 l 1
 235 650 l 1
 235 516 l 1
 202 516 l 1
EndSplineSet
EndChar

StartChar: estimated
Encoding: 8494 8494 405
Width: 598
Flags: HW
LayerCount: 2
Fore
SplineSet
151 509 m 1
 151 375 l 1
 448 375 l 1
 448 511 l 1
 410 548 357 570 299 570 c 0
 241 570 189 548 151 509 c 1
151 195 m 1
 190 155 244 132 304 132 c 0
 388 132 461 176 496 249 c 1
 542 230 l 1
 499 139 408 82 304 82 c 0
 159 82 40 193 40 351 c 0
 40 509 157 620 299 620 c 0
 441 620 558 513 558 361 c 0
 558 350 557 339 556 328 c 1
 151 328 l 1
 151 195 l 1
EndSplineSet
EndChar

StartChar: zero.tabl
Encoding: 1114137 -1 411
Width: 610
Flags: HW
LayerCount: 2
Fore
SplineSet
91 303 m 6
 91 142.199170124 188 32 305 32 c 0
 422 32 519 142.199170124 519 303 c 6
 519 396 l 2
 519 556.800829876 422 667 305 667 c 0
 188 667 91 556.800829876 91 396 c 2
 91 303 l 6
41 303 m 6
 41 396 l 2
 41 584.628865979 160 717 305 717 c 0
 450 717 569 584.628865979 569 396 c 2
 569 303 l 6
 569 114.371134021 450 -18 305 -18 c 0
 160 -18 41 114.371134021 41 303 c 6
EndSplineSet
EndChar

StartChar: one.tabl
Encoding: 1114138 -1 412
Width: 610
Flags: HW
LayerCount: 2
Fore
SplineSet
566 47 m 1
 566 0 l 1
 44 0 l 1
 44 47 l 1
 284 47 l 1
 284 638 l 1
 76 474 l 1
 43 509 l 5
 283 700 l 1
 334 700 l 1
 334 47 l 1
 566 47 l 1
EndSplineSet
EndChar

StartChar: two.tabl
Encoding: 1114139 -1 413
Width: 610
Flags: HW
LayerCount: 2
Fore
SplineSet
560 477 m 4
 560 614 446 711 308 711 c 0
 165 711 84 618 50 510 c 1
 98 493 l 1
 130 593 192 661 308 661 c 0
 418 661 510 586 510 477 c 4
 510 392 413 322 340 267 c 2
 58 62 l 1
 58 0 l 1
 560 0 l 5
 560 47 l 5
 122 47 l 1
 370 229 l 2
 442 283 560 370 560 477 c 4
EndSplineSet
EndChar

StartChar: three.tabl
Encoding: 1114140 -1 414
Width: 610
Flags: HW
LayerCount: 2
Fore
SplineSet
334 430 m 1
 560 638 l 5
 560 700 l 5
 58 700 l 1
 58 653 l 1
 508 653 l 5
 258 421 l 1
 284 384 l 1
 433 384 510 311 510 198 c 4
 510 106 424 39 304 39 c 0
 197 39 121 94 98 187 c 1
 50 172 l 1
 81 66 173 -11 302 -11 c 0
 452 -11 560 78 560 203 c 4
 560 331 470 414 334 430 c 1
EndSplineSet
EndChar

StartChar: four.tabl
Encoding: 1114141 -1 415
Width: 610
Flags: HW
LayerCount: 2
Fore
SplineSet
94 270 m 5
 399 270 l 5
 399 632 l 5
 94 270 l 5
449 700 m 5
 449 270 l 5
 566 270 l 5
 566 223 l 5
 449 223 l 5
 449 0 l 5
 399 0 l 5
 399 223 l 5
 44 223 l 5
 44 280 l 5
 389 700 l 5
 449 700 l 5
EndSplineSet
EndChar

StartChar: five.tabl
Encoding: 1114142 -1 416
Width: 610
Flags: HW
LayerCount: 2
Fore
SplineSet
120 402 m 5
 120 653 l 5
 530 653 l 5
 530 700 l 5
 70 700 l 5
 70 363 l 5
 120 343 l 5
 175 405 248 442 318 442 c 4
 423 442 500 357 500 240 c 4
 500 120 420 39 301 39 c 4
 202 39 130 95 108 187 c 5
 60 172 l 5
 92 59 185 -11 304 -11 c 4
 447 -11 550 91 550 234 c 4
 550 377 449 490 320 490 c 4
 249 490 175 457 120 402 c 5
EndSplineSet
EndChar

StartChar: six.tabl
Encoding: 1114143 -1 417
Width: 610
Flags: HW
LayerCount: 2
Fore
SplineSet
521 580 m 5
 482 636 417 667 342 667 c 4
 196 667 102 538 90 349 c 5
 133 429 223 480 321 480 c 4
 462 480 570 372 570 231 c 4
 570 89 461 -18 314 -18 c 4
 216 -18 127 29 82 112 c 4
 54 165 40 234 40 314 c 4
 40 560 167 717 347 717 c 4
 437 717 517 678 560 612 c 5
 521 580 l 5
100 238 m 4
 100 124 197 32 318 32 c 4
 434 32 520 118 520 232 c 4
 520 347 433 430 312 430 c 4
 191 430 100 348 100 238 c 4
EndSplineSet
EndChar

StartChar: seven.tabl
Encoding: 1114144 -1 418
Width: 610
Flags: HW
LayerCount: 2
Fore
SplineSet
271 0 m 1
 569 643 l 1
 569 700 l 1
 41 700 l 5
 41 653 l 5
 522 653 l 1
 215 0 l 1
 271 0 l 1
EndSplineSet
EndChar

StartChar: eight.tabl
Encoding: 1114145 -1 419
Width: 610
Flags: HW
LayerCount: 2
Fore
SplineSet
96 181 m 0
 96 93 190 32 305 32 c 0
 420 32 514 93 514 181 c 0
 514 274 420 338 305 338 c 0
 190 338 96 274 96 181 c 0
66 524 m 0
 66 638 174 718 305 718 c 0
 436 718 544 638 544 524 c 0
 544 451 495 392 423 361 c 1
 506 329 564 264 564 181 c 0
 564 64 447 -18 305 -18 c 0
 163 -18 46 64 46 181 c 0
 46 264 104 329 187 361 c 1
 115 392 66 451 66 524 c 0
305 382 m 0
 409 382 494 440 494 524 c 0
 494 609 409 668 305 668 c 0
 201 668 116 609 116 524 c 0
 116 440 201 382 305 382 c 0
EndSplineSet
EndChar

StartChar: nine.tabl
Encoding: 1114146 -1 420
Width: 610
Flags: HW
LayerCount: 2
Fore
SplineSet
89 119 m 1
 128 63 193 32 268 32 c 0
 414 32 508 161 520 350 c 1
 477 270 387 219 289 219 c 0
 148 219 40 327 40 468 c 0
 40 610 149 717 296 717 c 0
 394 717 483 670 528 587 c 0
 556 534 570 465 570 385 c 0
 570 139 443 -18 263 -18 c 0
 173 -18 93 21 50 87 c 1
 89 119 l 1
510 461 m 0
 510 575 413 667 292 667 c 0
 176 667 90 581 90 467 c 0
 90 352 177 269 298 269 c 0
 419 269 510 351 510 461 c 0
EndSplineSet
EndChar

StartChar: zero.slsh
Encoding: 1114147 -1 421
Width: 648
Flags: HW
LayerCount: 2
Fore
SplineSet
90 139 m 1
 534 583 l 1
 567 545 l 1
 126 104 l 1
 90 139 l 1
90 323 m 6
 90 150.183908046 196 32 324 32 c 0
 452 32 558 150.183908046 558 323 c 6
 558 376 l 2
 558 548.816091954 452 667 324 667 c 0
 196 667 90 548.816091954 90 376 c 2
 90 323 l 6
40 323 m 6
 40 376 l 2
 40 576.652733119 168 717 324 717 c 0
 480 717 608 576.652733119 608 376 c 2
 608 323 l 6
 608 122.347266881 480 -18 324 -18 c 0
 168 -18 40 122.347266881 40 323 c 6
EndSplineSet
EndChar

StartChar: a.ss01
Encoding: 1114148 -1 517
Width: 561
Flags: HW
AnchorPoint: "Top1" 256 568 basechar 0
AnchorPoint: "Bottom1" 267 0 basechar 0
AnchorPoint: "Bottom2" 477 0 basechar 0
LayerCount: 2
Fore
SplineSet
451 140.337704313 m 0
 451 227.943779613 356.163317518 300 240.860717658 300 c 0
 129.125302174 300 40 229.160259435 40 140.349252327 c 0
 40 51.3724120628 129.395779411 -20 240.84155734 -20 c 0
 355.8606022 -20 451 52.5853905267 451 140.337704313 c 0
440 140.626693103 m 0
 440 87.6394700423 355.083718592 41 258.610110716 41 c 0
 168.845048617 41 101 83.8878284111 101 140.632257947 c 0
 101 197.049996857 168.249133553 239 258.691178237 239 c 0
 355.862161643 239 440 193.349064134 440 140.626693103 c 0
440 300 m 2
 440 141 l 1
 450 0 l 1
 501 0 l 1
 501 300 l 2
 501 420.379665254 399.140599013 520 276.055280888 520 c 0
 189.34831955 520 107.990064367 470.376583887 58 387 c 1
 109 354 l 1
 147.024519487 420.05649924 208.736737508 459 275.389327247 459 c 0
 365.914383719 459 440 387.439555032 440 300 c 2
EndSplineSet
EndChar

StartChar: ae.ss01
Encoding: 1114155 -1 524
Width: 1098
Flags: HW
LayerCount: 2
Fore
SplineSet
1008 275 m 1
 1001.23658444 388.045660112 914.028761223 470 800.5 470 c 0
 688.387492001 470 601.751853426 389.360622806 591 275 c 1
 1008 275 l 1
591 228 m 1
 601.770717424 113.438732849 690.549213194 32 804.664733745 32 c 0
 888.523159814 32 961.216394638 76.4513373869 996 149 c 1
 1042 130 l 1
 999.051006463 39.1079439095 908.12093078 -18 806.347124414 -18 c 0
 659.970927609 -18 550 97.6990085825 550 251.699535982 c 0
 550 404.884243634 658.559171919 520 803.019022928 520 c 0
 946.293449904 520 1058 407.756810252 1058 263.794091153 c 0
 1058 253.100151242 1057.55051026 245.055612829 1056 228 c 1
 591 228 l 1
578 0 m 1
 528 0 l 1
 528 500 l 1
 578 500 l 1
 578 0 l 1
528 251 m 0
 528 376.03993865 434.03993865 470 309 470 c 0
 183.96006135 470 90 376.03993865 90 251 c 0
 90 125.96006135 183.96006135 32 309 32 c 0
 434.03993865 32 528 125.96006135 528 251 c 0
561 251 m 0
 561 97.3111348321 450.18985742 -18 302.5 -18 c 0
 153.621001055 -18 40 98.4344734625 40 251 c 0
 40 403.565526537 153.621001055 520 302.5 520 c 0
 450.18985742 520 561 404.688865168 561 251 c 0
EndSplineSet
EndChar

StartChar: G.ss02
Encoding: 1114171 -1 540
Width: 801
Flags: HWO
AnchorPoint: "Top1" 394 777 basechar 0
AnchorPoint: "Bottom1" 394 0 basechar 0
LayerCount: 2
Fore
SplineSet
690 301 m 1
 388 301 l 1
 388 359 l 1
 761 359 l 1
 761 0 l 1
 700 0 l 1
 700 118.994851077 l 1
 642.785258463 30.2717936657 543.620453511 -20 425.822448507 -20 c 0
 211.395548867 -20 40 145.580802539 40 352.733079031 c 0
 40 554.060101872 201.92542159 720 398.381870091 720 c 0
 517.881921261 720 632.680800848 658.571557187 703 557 c 1
 652 524 l 1
 593.732831467 608.335126236 498.820113003 659 399.098610131 659 c 0
 234.846503001 659 101 521.518621184 101 352.805911809 c 0
 101 178.544685976 243.8560942 41 424.846569524 41 c 0
 582.933528332 41 690 145.985564712 690 301 c 1
EndSplineSet
EndChar

StartChar: uni0402
Encoding: 1026 1026 547
Width: 720
Flags: HW
LayerCount: 2
Fore
SplineSet
471 388 m 2
 587.670898438 388 680 301.274414062 680 192 c 0
 680 82.162109375 595.071289062 -0 481 0 c 2
 409 0 l 1
 409 48 l 1
 471 48 l 2
 562.084960938 48 630 109.241210938 630 192 c 0
 630 275.977539062 561.286132812 340 471 340 c 2
 252 340 l 1
 252 0 l 1
 202 0 l 1
 202 653 l 1
 30 653 l 1
 30 700 l 1
 594 700 l 1
 594 653 l 1
 252 653 l 1
 252 388 l 1
 471 388 l 2
EndSplineSet
EndChar

StartChar: uni0404
Encoding: 1028 1028 549
Width: 778
Flags: HW
LayerCount: 2
Fore
SplineSet
542 376 m 5
 542 329 l 5
 60 329 l 5
 60 376 l 5
 542 376 l 5
40 351 m 4
 40 567 201 720 399 720 c 4
 545 720 672 638 733 507 c 5
 688 487 l 5
 635 600 525 670 399 670 c 4
 230 670 90 540 90 351 c 4
 90 162 230 32 399 32 c 4
 528 32 640 106 692 224 c 5
 738 205 l 5
 679 69 549 -18 399 -18 c 4
 201 -18 40 135 40 351 c 4
EndSplineSet
EndChar

StartChar: uni0405
Encoding: 1029 1029 550
Width: 514
Flags: HW
AnchorPoint: "Bottom1" 274 0 basechar 0
AnchorPoint: "Top1" 241 777 basechar 0
LayerCount: 2
Fore
SplineSet
249 326 m 0
 106 361 40 423 40 513 c 0
 40 631 127 713 242 713 c 0
 346 713 437 645 474 540 c 1
 428 521 l 1
 396 609 326 663 243 663 c 0
 156 663 90 604 90 515 c 0
 90 450 139 407 263 378 c 0
 402 344 474 279 474 186 c 0
 474 71 388 -11 273 -11 c 0
 168 -11 77 57 40 162 c 1
 86 181 l 1
 118 93 187 39 270 39 c 0
 358 39 424 100 424 187 c 0
 424 254 370 298 249 326 c 0
EndSplineSet
EndChar

StartChar: uni0406
Encoding: 1030 1030 551
Width: 170
Flags: HW
AnchorPoint: "Bottom2" 85 0 basechar 0
AnchorPoint: "Bottom1" 85 0 basechar 0
AnchorPoint: "Top1" 85 777 basechar 0
LayerCount: 2
Fore
SplineSet
110 0 m 5
 60 0 l 5
 60 700 l 5
 110 700 l 5
 110 0 l 5
EndSplineSet
EndChar

StartChar: uni0408
Encoding: 1032 1032 553
Width: 577
Flags: HW
AnchorPoint: "Top1" 489 777 basechar 0
LayerCount: 2
Fore
SplineSet
40 151 m 1
 85 168 l 1
 114 84 179 39 272 39 c 0
 383 39 467 109 467 237 c 2
 467 700 l 1
 517 700 l 1
 517 227 l 2
 517 88 409 -11 272 -11 c 0
 158 -11 73 50 40 151 c 1
EndSplineSet
EndChar

StartChar: uni0409
Encoding: 1033 1033 554
Width: 1130
Flags: HW
LayerCount: 2
Fore
SplineSet
54 48 m 2
 35 48 l 1
 35 0 l 1
 64 0 l 2
 178.711914062 -1.4047693882e-14 252 91.5537109375 252 191 c 2
 252 652 l 1
 552 652 l 1
 552 0 l 1
 881 0 l 2
 995.071129707 -1.39692230227e-14 1080 82.1621621622 1080 192 c 0
 1080 301.274336283 987.670682731 388 871 388 c 2
 602 388 l 1
 602 700 l 1
 202 700 l 1
 202 205 l 2
 202 118.37890625 152.666992188 48 54 48 c 2
602 340 m 1
 871 340 l 2
 961.286432161 340 1030 275.97752809 1030 192 c 0
 1030 109.24137931 962.085427136 48 871 48 c 2
 602 48 l 1
 602 340 l 1
EndSplineSet
EndChar

StartChar: uni040A
Encoding: 1034 1034 555
Width: 1018
Flags: HW
LayerCount: 2
Fore
SplineSet
500 700 m 1
 450 700 l 1
 450 0 l 1
 779 0 l 2
 893.071129707 -1.39692230227e-14 978 82.1621621622 978 192 c 0
 978 301.274336283 885.670682731 388 769 388 c 2
 500 388 l 1
 500 700 l 1
769 48 m 2
 500 48 l 1
 500 340 l 1
 769 340 l 2
 859.286432161 340 928 275.97752809 928 192 c 0
 928 109.24137931 860.085427136 48 769 48 c 2
460 386 m 1
 110 386 l 1
 110 700 l 1
 60 700 l 1
 60 0 l 1
 110 0 l 1
 110 338 l 1
 460 338 l 1
 460 386 l 1
EndSplineSet
EndChar

StartChar: uni040B
Encoding: 1035 1035 556
Width: 690
Flags: HW
LayerCount: 2
Fore
SplineSet
640 192 m 2
 640 0 l 1
 590 0 l 1
 590 192 l 2
 590 275.977539062 521.286132812 340 431 340 c 2
 252 340 l 1
 252 0 l 1
 202 0 l 1
 202 653 l 1
 30 653 l 1
 30 700 l 1
 504 700 l 1
 504 653 l 1
 252 653 l 1
 252 388 l 1
 431 388 l 2
 547.670898438 388 640 301.274414062 640 192 c 2
EndSplineSet
EndChar

StartChar: uni040F
Encoding: 1039 1039 560
Width: 680
Flags: HW
LayerCount: 2
Fore
SplineSet
620 0 m 1
 620 700 l 1
 570 700 l 1
 570 48 l 1
 110 48 l 1
 110 700 l 1
 60 700 l 1
 60 0 l 1
 319 -5.42578135199e-15 l 1
 319 -175 l 5
 369 -175 l 5
 369 -2.22044604925e-15 l 1
 620 0 l 1
EndSplineSet
EndChar

StartChar: uni0410
Encoding: 1040 1040 561
Width: 750
Flags: HW
AnchorPoint: "Bottom2" 689 0 basechar 0
AnchorPoint: "Bottom1" 384 0 basechar 0
AnchorPoint: "Top1" 375 777 basechar 0
LayerCount: 2
Fore
SplineSet
160 254 m 1
 585 254 l 1
 585 206 l 1
 160 206 l 1
 160 254 l 1
88 0 m 1
 32 0 l 1
 343 700 l 1
 407 700 l 1
 718 0 l 1
 662 0 l 1
 375 646 l 1
 88 0 l 1
EndSplineSet
EndChar

StartChar: uni0411
Encoding: 1041 1041 562
Width: 628
Flags: HW
LayerCount: 2
Fore
SplineSet
379 388 m 2
 495.670682731 388 588 301.274336283 588 192 c 0
 588 82.1621621622 503.071129707 -1.39692230227e-14 389 0 c 2
 60 0 l 1
 60 700 l 1
 502 700 l 1
 502 653 l 1
 110 653 l 1
 110 388 l 1
 379 388 l 2
379 48 m 2
 470.085427136 48 538 109.24137931 538 192 c 0
 538 275.97752809 469.286432161 340 379 340 c 2
 110 340 l 1
 110 48 l 1
 379 48 l 2
EndSplineSet
EndChar

StartChar: uni0412
Encoding: 1042 1042 563
Width: 648
Flags: HW
LayerCount: 2
Fore
SplineSet
389 652 m 6
 110 652 l 1
 110 375 l 1
 399 375 l 6
 478 375 538 442 538 528 c 0
 538 600 474 652 389 652 c 6
399 327 m 6
 110 327 l 1
 110 48 l 1
 399 48 l 6
 484 48 548 104 548 176 c 0
 548 263 484 327 399 327 c 6
409 0 m 6
 60 0 l 1
 60 700 l 1
 399 700 l 6
 507 700 588 627 588 528 c 0
 588 452 548 387 485 354 c 1
 554 321 598 256 598 176 c 0
 598 77 517 0 409 0 c 6
EndSplineSet
EndChar

StartChar: uni0413
Encoding: 1043 1043 564
Width: 550
Flags: HW
AnchorPoint: "Top1" 285 777 basechar 0
LayerCount: 2
Fore
SplineSet
60 0 m 1
 110 0 l 1
 110 652 l 1
 520 652 l 1
 520 700 l 1
 60 700 l 1
 60 0 l 1
EndSplineSet
EndChar

StartChar: uni0414
Encoding: 1044 1044 565
Width: 740
Flags: HW
LayerCount: 2
Fore
SplineSet
30 48 m 5
 30 -116 l 5
 80 -116 l 5
 80 0 l 5
 660 0 l 5
 660 -116 l 5
 710 -116 l 5
 710 48 l 5
 30 48 l 5
64 48 m 2
 30 48 l 1
 45 11 l 1
 74 11 l 2
 188.711914062 11 262 97.28125 262 191 c 2
 262 652 l 1
 592 652 l 1
 592 1 l 1
 642 1 l 1
 642 700 l 1
 212 700 l 1
 212 205 l 2
 212 118.378875346 162.666992188 48 64 48 c 2
EndSplineSet
EndChar

StartChar: uni0415
Encoding: 1045 1045 566
Width: 550
Flags: HW
AnchorPoint: "Bottom2" 469 0 basechar 0
AnchorPoint: "Bottom1" 294 0 basechar 0
AnchorPoint: "Top1" 285 777 basechar 0
LayerCount: 2
Fore
SplineSet
110 375 m 5
 486 375 l 5
 486 327 l 5
 110 327 l 5
 110 48 l 5
 510 48 l 5
 510 0 l 5
 60 0 l 5
 60 700 l 5
 510 700 l 5
 510 652 l 5
 110 652 l 5
 110 375 l 5
EndSplineSet
EndChar

StartChar: uni0416
Encoding: 1046 1046 567
Width: 880
Flags: HW
LayerCount: 2
Fore
SplineSet
415 700 m 1
 465 700 l 1
 465 377 l 1
 542 377 l 1
 782 700 l 1
 848 700 l 1
 588 352 l 1
 848 0 l 1
 782 0 l 1
 542 324 l 1
 465 324 l 1
 465 0 l 1
 415 0 l 1
 415 324 l 1
 338 324 l 1
 93 0 l 1
 32 0 l 1
 292 349 l 1
 32 700 l 1
 93 700 l 1
 338 377 l 1
 415 377 l 1
 415 700 l 1
EndSplineSet
EndChar

StartChar: uni0417
Encoding: 1047 1047 568
Width: 536
Flags: HW
LayerCount: 2
Fore
SplineSet
59 571 m 1
 97 662.202148438 177.209960938 718 270.314453125 718 c 0
 386.827148438 718 476 633.499023438 476 523.091796875 c 0
 476 454.413085938 441.892578125 393.661132812 385 361 c 1
 453.853515625 327.102539062 496 259.852539062 496 183.883789062 c 0
 496 69.1025390625 398.796875 -18 270.704101562 -18 c 0
 168.456054688 -18 81.0791015625 39.568359375 40 134 c 1
 84 157 l 1
 115.844726562 79.818359375 187.229492188 32 270.604492188 32 c 0
 370.870117188 32 446 98.0419921875 446 186.1796875 c 0
 446 270.536132812 376.525390625 336 287 336 c 2
 206 336 l 1
 206 384 l 1
 287 384 l 2
 365.682617188 384 426 443.736328125 426 521.661132812 c 0
 426 604.978515625 358.3984375 668 269.02734375 668 c 0
 195.565429688 668 133.7890625 623.828125 104 550 c 1
 59 571 l 1
EndSplineSet
EndChar

StartChar: uni0418
Encoding: 1048 1048 569
Width: 680
Flags: HW
AnchorPoint: "Bottom1" 354 0 basechar 0
AnchorPoint: "Top1" 345 777 basechar 0
LayerCount: 2
Fore
SplineSet
620 0 m 1
 570 0 l 1
 570 637 l 1
 123 0 l 1
 60 0 l 1
 60 700 l 1
 110 700 l 1
 110 73 l 1
 557 700 l 1
 620 700 l 1
 620 0 l 1
EndSplineSet
EndChar

StartChar: uni041A
Encoding: 1050 1050 571
Width: 585
Flags: HW
AnchorPoint: "Top1" 295 777 basechar 0
AnchorPoint: "Bottom1" 304 0 basechar 0
LayerCount: 2
Fore
SplineSet
60 0 m 1
 60 700 l 1
 110 700 l 1
 110 373 l 1
 147 373 l 1
 482 700 l 1
 553 700 l 1
 193 348 l 1
 553 0 l 1
 482 0 l 1
 147 320 l 1
 110 320 l 1
 110 0 l 1
 60 0 l 1
EndSplineSet
EndChar

StartChar: uni041B
Encoding: 1051 1051 572
Width: 662
Flags: HW
LayerCount: 2
Fore
SplineSet
54 48 m 2
 35 48 l 1
 35 0 l 1
 64 0 l 2
 178.711914062 -0 252 91.5537109375 252 191 c 2
 252 652 l 1
 552 652 l 1
 552 0 l 1
 602 0 l 1
 602 700 l 1
 202 700 l 1
 202 205 l 2
 202 118.37890625 152.666992188 48 54 48 c 2
EndSplineSet
EndChar

StartChar: uni041C
Encoding: 1052 1052 573
Width: 836
Flags: HW
LayerCount: 2
Fore
SplineSet
60 0 m 1
 60 700 l 5
 125 700 l 5
 418 175 l 5
 711 700 l 5
 776 700 l 5
 776 0 l 1
 726 0 l 1
 726 622 l 5
 441 114 l 5
 396 114 l 5
 110 622 l 5
 110 0 l 1
 60 0 l 1
EndSplineSet
EndChar

StartChar: uni041D
Encoding: 1053 1053 574
Width: 680
Flags: HW
AnchorPoint: "Top1" 341 777 basechar 0
LayerCount: 2
Fore
SplineSet
60 0 m 5
 60 700 l 5
 110 700 l 5
 110 375 l 5
 570 375 l 5
 570 700 l 5
 620 700 l 5
 620 0 l 5
 570 0 l 5
 570 327 l 5
 110 327 l 5
 110 0 l 5
 60 0 l 5
EndSplineSet
EndChar

StartChar: uni041E
Encoding: 1054 1054 575
Width: 788
Flags: HW
AnchorPoint: "Top2" 589 636 basechar 0
AnchorPoint: "Bottom1" 394 0 basechar 0
AnchorPoint: "Top1" 394 777 basechar 0
LayerCount: 2
Fore
SplineSet
90 353 m 0
 90 162 227 32 394 32 c 0
 561 32 698 162 698 353 c 0
 698 541 561 670 394 670 c 0
 227 670 90 541 90 353 c 0
40 353 m 0
 40 569 199 720 394 720 c 0
 589 720 748 569 748 353 c 0
 748 135 589 -18 394 -18 c 0
 199 -18 40 135 40 353 c 0
EndSplineSet
EndChar

StartChar: uni041F
Encoding: 1055 1055 576
Width: 680
Flags: HW
LayerCount: 2
Fore
SplineSet
60 700 m 1
 60 0 l 1
 110 0 l 1
 110 652 l 1
 570 652 l 1
 570 0 l 1
 620 0 l 1
 620 700 l 1
 60 700 l 1
EndSplineSet
EndChar

StartChar: uni0420
Encoding: 1056 1056 577
Width: 618
Flags: HW
LayerCount: 2
Fore
SplineSet
339 652 m 6
 110 652 l 5
 110 300 l 5
 339 300 l 6
 452 300 538 377 538 478 c 4
 538 578 453 652 339 652 c 6
339 252 m 6
 110 252 l 5
 110 0 l 5
 60 0 l 5
 60 700 l 5
 349 700 l 6
 486 700 588 605 588 478 c 4
 588 352 478 252 339 252 c 6
EndSplineSet
EndChar

StartChar: uni0421
Encoding: 1057 1057 578
Width: 778
Flags: HW
AnchorPoint: "Top1" 394 777 basechar 0
AnchorPoint: "Bottom1" 399 0 basechar 0
LayerCount: 2
Fore
SplineSet
40 351 m 0
 40 567 201 720 399 720 c 0
 545 720 672 638 733 507 c 1
 688 487 l 1
 635 600 525 670 399 670 c 0
 230 670 90 540 90 351 c 0
 90 162 230 32 399 32 c 0
 528 32 640 106 692 224 c 1
 738 205 l 1
 679 69 549 -18 399 -18 c 0
 201 -18 40 135 40 351 c 0
EndSplineSet
EndChar

StartChar: uni0422
Encoding: 1058 1058 579
Width: 590
Flags: HW
AnchorPoint: "Bottom1" 296 0 basechar 0
LayerCount: 2
Fore
SplineSet
560 700 m 5
 560 652 l 5
 320 652 l 5
 320 0 l 5
 270 0 l 5
 270 652 l 5
 30 652 l 5
 30 700 l 5
 560 700 l 5
EndSplineSet
EndChar

StartChar: uni0423
Encoding: 1059 1059 580
Width: 596
Flags: HW
AnchorPoint: "Top1" 305 777 basechar 0
LayerCount: 2
Fore
SplineSet
161 0 m 1
 223 0 l 1
 564 700 l 1
 505 700 l 1
 318 320 l 1
 92 700 l 1
 32 700 l 1
 291 268 l 1
 161 0 l 1
EndSplineSet
EndChar

StartChar: uni0424
Encoding: 1060 1060 581
Width: 788
Flags: HW
LayerCount: 2
Fore
SplineSet
368 0 m 1
 368 750 l 1
 418 750 l 1
 418 0 l 1
 368 0 l 1
90 385 m 0
 90 253.501557632 207 164 394 164 c 0
 581 164 698 253.501557632 698 385 c 0
 698 513.694006309 581 602 394 602 c 0
 207 602 90 513.694006309 90 385 c 0
40 385 m 0
 40 542.144414169 179 652 394 652 c 0
 609 652 748 542.144414169 748 385 c 0
 748 225.760107817 609 114 394 114 c 0
 179 114 40 225.760107817 40 385 c 0
EndSplineSet
EndChar

StartChar: uni0425
Encoding: 1061 1061 582
Width: 696
Flags: HW
LayerCount: 2
Fore
SplineSet
664 0 m 1
 600 0 l 1
 348 305 l 5
 97 0 l 1
 32 0 l 1
 313 344 l 5
 32 700 l 1
 97 700 l 1
 348 383 l 5
 600 700 l 1
 664 700 l 1
 383 344 l 5
 664 0 l 1
EndSplineSet
EndChar

StartChar: uni0426
Encoding: 1062 1062 583
Width: 700
Flags: HW
LayerCount: 2
Fore
SplineSet
580 48 m 1
 580 700 l 1
 530 700 l 1
 530 48 l 1
 110 48 l 1
 110 700 l 1
 60 700 l 1
 60 0 l 1
 620 0 l 1
 620 -116 l 1
 670 -116 l 1
 670 48 l 1
 580 48 l 1
EndSplineSet
EndChar

StartChar: uni0427
Encoding: 1063 1063 584
Width: 628
Flags: HW
LayerCount: 2
Fore
SplineSet
568 750 m 1
 568 0 l 1
 518 0 l 1
 518 750 l 1
 568 750 l 1
110 750 m 1
 110 477 l 2
 110 344.037974684 193.379310345 269 305 269 c 0
 422.607361963 269 518 353.481012658 518 457 c 5
 556 457 l 5
 556 331.134615385 443.436018957 219 295 219 c 0
 164.162162162 219 60 321.707070707 60 467 c 2
 60 750 l 1
 110 750 l 1
EndSplineSet
EndChar

StartChar: uni0428
Encoding: 1064 1064 585
Width: 940
Flags: HW
LayerCount: 2
Fore
SplineSet
880 0 m 1
 880 700 l 1
 830 700 l 1
 830 48 l 1
 497 48 l 1
 497 700 l 1
 447 700 l 1
 447 48 l 1
 110 48 l 1
 110 700 l 1
 60 700 l 1
 60 0 l 1
 880 0 l 1
EndSplineSet
EndChar

StartChar: uni0429
Encoding: 1065 1065 586
Width: 1000
Flags: HW
LayerCount: 2
Fore
SplineSet
880 48 m 5
 880 700 l 5
 830 700 l 5
 830 48 l 5
 497 48 l 5
 497 700 l 5
 447 700 l 5
 447 48 l 5
 110 48 l 5
 110 700 l 5
 60 700 l 5
 60 0 l 5
 920 0 l 5
 920 -116 l 5
 970 -116 l 5
 970 48 l 5
 880 48 l 5
EndSplineSet
EndChar

StartChar: uni042A
Encoding: 1066 1066 587
Width: 760
Flags: HW
LayerCount: 2
Fore
SplineSet
511 48 m 2
 602.084960938 48 670 109.241210938 670 192 c 0
 670 275.977539062 601.286132812 340 511 340 c 2
 272 340 l 1
 272 48 l 1
 511 48 l 2
272 700 m 1
 272 388 l 1
 511 388 l 2
 627.670898438 388 720 301.274414062 720 192 c 0
 720 82.162109375 635.071289062 -0 521 0 c 2
 222 0 l 1
 222 653 l 1
 30 653 l 1
 30 700 l 1
 272 700 l 1
EndSplineSet
EndChar

StartChar: uni042B
Encoding: 1067 1067 588
Width: 742
Flags: HW
LayerCount: 2
Fore
SplineSet
682 0 m 1
 632 0 l 1
 632 700 l 1
 682 700 l 1
 682 0 l 1
110 700 m 1
 110 388 l 1
 329 388 l 2
 445.670682731 388 538 301.274336283 538 192 c 0
 538 82.1621621622 453.071129707 -1.39610545347e-14 339 0 c 2
 60 0 l 1
 60 700 l 1
 110 700 l 1
329 48 m 2
 420.085427136 48 488 109.24137931 488 192 c 0
 488 275.97752809 419.286432161 340 329 340 c 2
 110 340 l 1
 110 48 l 1
 329 48 l 2
EndSplineSet
EndChar

StartChar: uni042C
Encoding: 1068 1068 589
Width: 628
Flags: HW
LayerCount: 2
Fore
SplineSet
110 700 m 1
 110 388 l 1
 379 388 l 2
 495.670682731 388 588 301.274336283 588 192 c 0
 588 82.1621621622 503.071129707 -1.39692230227e-14 389 0 c 2
 60 0 l 1
 60 700 l 1
 110 700 l 1
379 48 m 2
 470.085427136 48 538 109.24137931 538 192 c 0
 538 275.97752809 469.286432161 340 379 340 c 2
 110 340 l 1
 110 48 l 1
 379 48 l 2
EndSplineSet
EndChar

StartChar: uni042D
Encoding: 1069 1069 590
Width: 778
Flags: HW
LayerCount: 2
Fore
SplineSet
236 326 m 5
 236 373 l 5
 718 373 l 5
 718 326 l 5
 236 326 l 5
738 351 m 4
 738 135 577 -18 379 -18 c 4
 233 -18 106 64 45 195 c 5
 90 215 l 5
 143 102 253 32 379 32 c 4
 548 32 688 162 688 351 c 4
 688 540 548 670 379 670 c 4
 250 670 138 596 86 478 c 5
 40 497 l 5
 99 633 229 720 379 720 c 4
 577 720 738 567 738 351 c 4
EndSplineSet
EndChar

StartChar: uni042E
Encoding: 1070 1070 591
Width: 1078
Flags: HW
LayerCount: 2
Fore
SplineSet
380 353 m 0
 380 541 517 670 684 670 c 0
 851 670 988 541 988 353 c 0
 988 162 851 32 684 32 c 0
 517 32 380 162 380 353 c 0
330 353 m 0
 330 135 489 -18 684 -18 c 0
 879 -18 1038 135 1038 353 c 0
 1038 569 879 720 684 720 c 0
 489 720 330 569 330 353 c 0
360 375 m 5
 110 375 l 5
 110 700 l 5
 60 700 l 5
 60 0 l 5
 110 0 l 5
 110 327 l 5
 360 327 l 5
 360 375 l 5
EndSplineSet
EndChar

StartChar: uni042F
Encoding: 1071 1071 592
Width: 628
Flags: HW
LayerCount: 2
Fore
SplineSet
289 652 m 2
 186 652 110 582 110 488 c 0
 110 393 188 320 289 320 c 2
 538 320 l 1
 538 652 l 1
 289 652 l 2
289 272 m 1
 161 272 60 367 60 488 c 0
 60 609 154 700 279 700 c 2
 588 700 l 1
 588 0 l 1
 538 0 l 1
 538 272 l 1
 353 272 l 1
 124 0 l 1
 60 0 l 1
 289 272 l 1
EndSplineSet
EndChar

StartChar: uni0430
Encoding: 1072 1072 593
Width: 487
Flags: HW
AnchorPoint: "Bottom2" 403 0 basechar 0
AnchorPoint: "Bottom1" 244 0 basechar 0
AnchorPoint: "Top1" 233 568 basechar 0
LayerCount: 2
Fore
SplineSet
377 246 m 5
 214 227 l 6
 133 217 90 185 90 133 c 4
 90 76 141 38 216 38 c 4
 314 38 377 103 377 203 c 5
 412 203 l 5
 412 81 324 -11 208 -11 c 4
 112 -11 40 48 40 135 c 4
 40 212 100 263 204 275 c 6
 377 294 l 5
 377 323 l 6
 377 395 318 461 237 461 c 4
 166 461 108 418 93 357 c 5
 46 370 l 5
 70 453 145 511 233 511 c 4
 338 511 427 430 427 333 c 6
 427 0 l 5
 377 0 l 5
 377 246 l 5
EndSplineSet
EndChar

StartChar: uni0431
Encoding: 1073 1073 594
Width: 610
Flags: HW
LayerCount: 2
Fore
SplineSet
542 731 m 1
 498.860335196 686.586206897 426.952184989 674.278767692 344 662 c 0
 197.136206274 640.575952757 102.095238095 535.028301887 90 349 c 1
 133 429 223 480 321 480 c 0
 462 480 570 372 570 231 c 0
 570 89 461 -18 314 -18 c 0
 216 -18 126.102756818 28.5197817379 82 112 c 0
 54 165 40 234 40 314 c 0
 40 553.895781638 152.043442832 673.45822382 337 707 c 0
 410.134802926 720.262958763 475.075117371 728.542857143 510 765 c 1
 542 731 l 1
100 238 m 0
 100 124 197 32 318 32 c 0
 434 32 520 118 520 232 c 0
 520 347 433 430 312 430 c 0
 191 430 100 348 100 238 c 0
EndSplineSet
EndChar

StartChar: uni0432
Encoding: 1074 1074 595
Width: 538
Flags: HW
LayerCount: 2
Fore
SplineSet
329 452 m 2
 110 452 l 1
 110 277 l 1
 339 277 l 2
 395.26618705 277 438 312.470588235 438 358 c 0
 438 412.580645161 391.181208054 452 329 452 c 2
339 229 m 2
 110 229 l 1
 110 48 l 1
 339 48 l 2
 401.181208054 48 448 86.5 448 136 c 0
 448 189.582781457 401.181208054 229 339 229 c 2
349 0 m 2
 60 0 l 1
 60 500 l 1
 339 500 l 2
 424.142857143 500 488 439.73255814 488 358 c 0
 488 313.448275862 462.368932039 275.344827586 422 256 c 1
 468.407079646 233.752808989 498 189.93258427 498 136 c 0
 498 59.5 434.142857143 0 349 0 c 2
EndSplineSet
EndChar

StartChar: uni0433
Encoding: 1075 1075 596
Width: 420
Flags: HW
AnchorPoint: "Top1" 223 568 basechar 0
LayerCount: 2
Fore
SplineSet
60 0 m 1
 110 0 l 1
 110 452 l 1
 380 452 l 1
 380 500 l 1
 60 500 l 1
 60 0 l 1
EndSplineSet
EndChar

StartChar: uni0434
Encoding: 1076 1076 597
Width: 582
Flags: HW
LayerCount: 2
Fore
SplineSet
30 48 m 5
 30 -116 l 5
 80 -116 l 5
 80 0 l 5
 502 0 l 5
 502 -116 l 5
 552 -116 l 5
 552 48 l 5
 30 48 l 5
54 48 m 2
 35 48 l 1
 35 0 l 1
 64 0 l 2
 148.203125 0 202 67.5869140625 202 141 c 2
 202 452 l 1
 432 452 l 1
 432 0 l 1
 482 0 l 1
 482 500 l 1
 152 500 l 1
 152 155 l 2
 152 95.96484375 119.333984375 48 54 48 c 2
EndSplineSet
EndChar

StartChar: uni0435
Encoding: 1077 1077 598
Width: 598
Flags: HW
AnchorPoint: "Bottom2" 303 0 basechar 0
AnchorPoint: "Bottom1" 304 0 basechar 0
AnchorPoint: "Top1" 301 568 basechar 0
LayerCount: 2
Fore
SplineSet
508 275 m 5
 501 392 410 470 299 470 c 4
 191 470 102 392 91 275 c 5
 508 275 l 5
91 228 m 5
 102 111 193 32 304 32 c 4
 388 32 461 76 496 149 c 5
 542 130 l 5
 499 39 408 -18 304 -18 c 4
 159 -18 40 93 40 251 c 4
 40 409 157 520 299 520 c 4
 441 520 558 413 558 261 c 4
 558 250 557 239 556 228 c 5
 91 228 l 5
EndSplineSet
EndChar

StartChar: uni0436
Encoding: 1078 1078 599
Width: 724
Flags: HW
LayerCount: 2
Fore
SplineSet
337 500 m 1
 387 500 l 1
 387 275 l 1
 437 275 l 1
 625 500 l 1
 689 500 l 1
 479 250 l 1
 689 0 l 1
 625 0 l 1
 437 222 l 1
 387 222 l 1
 387 0 l 1
 337 0 l 1
 337 225 l 1
 287 225 l 1
 99 0 l 1
 35 0 l 1
 245 250 l 1
 35 500 l 1
 99 500 l 1
 287 278 l 1
 337 278 l 1
 337 500 l 1
EndSplineSet
EndChar

StartChar: uni0437
Encoding: 1079 1079 600
Width: 466
Flags: HW
LayerCount: 2
Fore
SplineSet
59 401 m 1
 91.60546875 473.58984375 160.427734375 518 240.314453125 518 c 0
 339.833007812 518 416 450.840820312 416 363.091796875 c 0
 416 315.598632812 390.138671875 273.5859375 347 251 c 1
 396.00390625 226.671875 426 178.40625 426 123.883789062 c 0
 426 43.2158203125 346.0546875 -18 240.704101562 -18 c 0
 151.751953125 -18 75.7373046875 28.2060546875 40 104 c 1
 84 127 l 1
 110.725585938 68.341796875 170.633789062 32 240.604492188 32 c 0
 318.00390625 32 376 72.341796875 376 126.1796875 c 0
 376 182.383789062 324.876953125 226 259 226 c 2
 178 226 l 1
 178 274 l 1
 259 274 l 2
 319.568359375 274 366 312.0390625 366 361.661132812 c 0
 366 422.205078125 311.318359375 468 239.02734375 468 c 0
 178.919921875 468 128.374023438 435.05859375 104 380 c 1
 59 401 l 1
EndSplineSet
EndChar

StartChar: uni0438
Encoding: 1080 1080 601
Width: 540
Flags: HW
AnchorPoint: "Top1" 273 568 basechar 0
LayerCount: 2
Fore
SplineSet
480 0 m 1
 430 0 l 1
 430 437 l 1
 123 0 l 1
 60 0 l 1
 60 500 l 1
 110 500 l 1
 110 73 l 1
 417 500 l 1
 480 500 l 1
 480 0 l 1
EndSplineSet
EndChar

StartChar: uni043A
Encoding: 1082 1082 603
Width: 464
Flags: HW
AnchorPoint: "Top1" 233 568 basechar 0
LayerCount: 2
Fore
SplineSet
60 0 m 1
 60 500 l 1
 110 500 l 1
 110 275 l 1
 137 275 l 1
 365 500 l 1
 432 500 l 1
 182 250 l 1
 432 0 l 1
 365 0 l 1
 137 222 l 1
 110 222 l 1
 110 0 l 1
 60 0 l 1
EndSplineSet
EndChar

StartChar: uni043B
Encoding: 1083 1083 604
Width: 542
Flags: HW
LayerCount: 2
Fore
SplineSet
54 48 m 2
 35 48 l 1
 35 0 l 1
 64 0 l 2
 148.20342628 -1.03702871066e-14 202 67.5867709015 202 141 c 2
 202 452 l 1
 432 452 l 1
 432 0 l 1
 482 0 l 1
 482 500 l 1
 152 500 l 1
 152 155 l 2
 152 95.9652418392 119.333548881 48 54 48 c 2
EndSplineSet
EndChar

StartChar: uni043C
Encoding: 1084 1084 605
Width: 676
Flags: HW
LayerCount: 2
Fore
SplineSet
60 0 m 1
 60 500 l 1
 125 500 l 1
 338 135 l 1
 551 500 l 1
 616 500 l 1
 616 0 l 1
 566 0 l 1
 566 422 l 1
 361 74 l 1
 316 74 l 1
 110 422 l 1
 110 0 l 1
 60 0 l 1
EndSplineSet
EndChar

StartChar: uni043D
Encoding: 1085 1085 606
Width: 580
Flags: HW
LayerCount: 2
Fore
SplineSet
60 0 m 1
 60 500 l 1
 110 500 l 1
 110 275 l 1
 470 275 l 1
 470 500 l 1
 520 500 l 1
 520 0 l 1
 470 0 l 1
 470 227 l 1
 110 227 l 1
 110 0 l 1
 60 0 l 1
EndSplineSet
EndChar

StartChar: uni043E
Encoding: 1086 1086 607
Width: 618
Flags: HW
AnchorPoint: "Top2" 488 428 basechar 0
AnchorPoint: "Bottom1" 307 0 basechar 0
AnchorPoint: "Top1" 308 568 basechar 0
LayerCount: 2
Fore
SplineSet
90 251 m 0
 90 121 189 32 309 32 c 0
 429 32 528 121 528 251 c 0
 528 381 429 470 309 470 c 0
 189 470 90 381 90 251 c 0
40 251 m 0
 40 409 161 520 309 520 c 0
 457 520 578 409 578 251 c 0
 578 93 457 -18 309 -18 c 0
 161 -18 40 93 40 251 c 0
EndSplineSet
EndChar

StartChar: uni043F
Encoding: 1087 1087 608
Width: 530
Flags: HW
LayerCount: 2
Fore
SplineSet
470 500 m 5
 470 0 l 5
 420 0 l 5
 420 452 l 5
 110 452 l 1
 110 0 l 1
 60 0 l 1
 60 500 l 1
 470 500 l 5
EndSplineSet
EndChar

StartChar: uni0440
Encoding: 1088 1088 609
Width: 638
Flags: HW
LayerCount: 2
Fore
SplineSet
60 500 m 5
 110 500 l 5
 110 -200 l 5
 60 -200 l 5
 60 500 l 5
110 249 m 4
 110 119 209 30 329 30 c 4
 449 30 548 119 548 249 c 4
 548 379 449 468 329 468 c 4
 209 468 110 379 110 249 c 4
77 249 m 4
 77 407 192 518 333 518 c 4
 479 518 598 407 598 249 c 4
 598 91 479 -20 333 -20 c 4
 192 -20 77 91 77 249 c 4
EndSplineSet
EndChar

StartChar: uni0441
Encoding: 1089 1089 610
Width: 584
Flags: HW
AnchorPoint: "Top1" 305 568 basechar 0
AnchorPoint: "Bottom1" 304 0 basechar 0
LayerCount: 2
Fore
SplineSet
90 251 m 0
 90 121 186 32 304 32 c 0
 388 32 461 76 496 149 c 1
 542 130 l 1
 499 39 408 -18 304 -18 c 0
 159 -18 40 93 40 251 c 0
 40 409 159 520 304 520 c 0
 410 520 502 461 544 367 c 1
 498 348 l 1
 464 424 390 470 304 470 c 0
 186 470 90 381 90 251 c 0
EndSplineSet
EndChar

StartChar: uni0442
Encoding: 1090 1090 611
Width: 470
Flags: HW
LayerCount: 2
Fore
SplineSet
440 500 m 5
 440 452 l 5
 260 452 l 5
 260 0 l 5
 210 0 l 5
 210 452 l 5
 30 452 l 1
 30 500 l 1
 440 500 l 5
EndSplineSet
EndChar

StartChar: uni0443
Encoding: 1091 1091 612
Width: 534
Flags: HW
AnchorPoint: "Top1" 266 568 basechar 0
LayerCount: 2
Fore
SplineSet
443 500 m 1
 267 80 l 1
 91 500 l 1
 32 500 l 1
 235 20 l 1
 147 -200 l 1
 206 -200 l 1
 502 500 l 1
 443 500 l 1
EndSplineSet
EndChar

StartChar: uni0444
Encoding: 1092 1092 613
Width: 618
Flags: HW
LayerCount: 2
Fore
SplineSet
282 -190 m 1
 282 680 l 1
 332 680 l 1
 332 -190 l 1
 282 -190 l 1
90 251 m 0
 90 121 189 32 309 32 c 0
 429 32 528 121 528 251 c 0
 528 381 429 470 309 470 c 0
 189 470 90 381 90 251 c 0
40 251 m 0
 40 409 161 520 309 520 c 0
 457 520 578 409 578 251 c 0
 578 93 457 -18 309 -18 c 0
 161 -18 40 93 40 251 c 0
EndSplineSet
EndChar

StartChar: uni0445
Encoding: 1093 1093 614
Width: 534
Flags: HW
LayerCount: 2
Fore
SplineSet
502 0 m 5
 438 0 l 5
 267 211 l 5
 97 0 l 5
 32 0 l 5
 232 250 l 5
 32 500 l 5
 97 500 l 5
 267 289 l 5
 438 500 l 5
 502 500 l 5
 302 250 l 5
 502 0 l 5
EndSplineSet
EndChar

StartChar: uni0446
Encoding: 1094 1094 615
Width: 592
Flags: HW
LayerCount: 2
Fore
SplineSet
60 0 m 5
 60 500 l 1
 110 500 l 1
 110 48 l 1
 450 48 l 1
 450 500 l 1
 500 500 l 1
 500 48 l 5
 562 48 l 5
 562 -116 l 5
 512 -116 l 5
 512 0 l 5
 60 0 l 5
EndSplineSet
EndChar

StartChar: uni0447
Encoding: 1095 1095 616
Width: 508
Flags: HW
LayerCount: 2
Fore
SplineSet
448 500 m 1
 448 0 l 1
 398 0 l 1
 398 500 l 1
 448 500 l 1
110 500 m 1
 110 327 l 2
 110 238 168 189 245 189 c 0
 330 189 398 251 398 327 c 1
 436 327 l 1
 436 227 350 139 235 139 c 0
 137 139 60 213 60 317 c 2
 60 500 l 1
 110 500 l 1
EndSplineSet
EndChar

StartChar: uni0448
Encoding: 1096 1096 617
Width: 830
Flags: HW
LayerCount: 2
Fore
SplineSet
770 0 m 5
 770 500 l 5
 720 500 l 5
 720 48 l 5
 440 48 l 5
 440 500 l 5
 390 500 l 5
 390 48 l 5
 110 48 l 5
 110 500 l 5
 60 500 l 5
 60 0 l 5
 770 0 l 5
EndSplineSet
EndChar

StartChar: uni0449
Encoding: 1097 1097 618
Width: 872
Flags: HW
LayerCount: 2
Fore
SplineSet
770 48 m 1
 770 500 l 1
 720 500 l 1
 720 48 l 1
 440 48 l 1
 440 500 l 1
 390 500 l 1
 390 48 l 1
 110 48 l 1
 110 500 l 1
 60 500 l 1
 60 0 l 1
 792 0 l 1
 792 -116 l 1
 842 -116 l 1
 842 48 l 1
 770 48 l 1
EndSplineSet
EndChar

StartChar: uni044A
Encoding: 1098 1098 619
Width: 660
Flags: HW
LayerCount: 2
Fore
SplineSet
471 277 m 2
 556.276367188 277 620 214.37109375 620 136 c 0
 620 59.5 556.142578125 -0 471 0 c 2
 212 0 l 1
 212 453 l 1
 40 453 l 1
 40 500 l 1
 262 500 l 1
 262 277 l 1
 471 277 l 2
461 229 m 2
 262 229 l 1
 262 48 l 1
 461 48 l 2
 523.181640625 48 570 86.5 570 136 c 0
 570 189.583007812 523.181640625 229 461 229 c 2
EndSplineSet
EndChar

StartChar: uni044B
Encoding: 1099 1099 620
Width: 698
Flags: HW
LayerCount: 2
Fore
SplineSet
588 0 m 1
 588 500 l 1
 638 500 l 1
 638 0 l 1
 588 0 l 1
339 229 m 6
 110 229 l 5
 110 48 l 5
 339 48 l 6
 401.181208054 48 448 86.5 448 136 c 4
 448 189.582781457 401.181208054 229 339 229 c 6
349 277 m 6
 434.27672956 277 498 214.370786517 498 136 c 4
 498 59.5 434.142857143 -1.0426648384e-14 349 0 c 6
 60 0 l 5
 60 500 l 5
 110 500 l 5
 110 277 l 5
 349 277 l 6
EndSplineSet
EndChar

StartChar: uni044C
Encoding: 1100 1100 621
Width: 538
Flags: HW
LayerCount: 2
Fore
SplineSet
339 229 m 2
 110 229 l 1
 110 48 l 1
 339 48 l 2
 401.181208054 48 448 86.5 448 136 c 0
 448 189.582781457 401.181208054 229 339 229 c 2
349 277 m 2
 434.27672956 277 498 214.370786517 498 136 c 0
 498 59.5 434.142857143 -1.0426648384e-14 349 0 c 2
 60 0 l 1
 60 500 l 1
 110 500 l 1
 110 277 l 1
 349 277 l 2
EndSplineSet
EndChar

StartChar: uni044D
Encoding: 1101 1101 622
Width: 584
Flags: HW
LayerCount: 2
Fore
SplineSet
194 226 m 5
 194 273 l 5
 516 273 l 5
 516 226 l 5
 194 226 l 5
494 251 m 4
 494 381 398 470 280 470 c 4
 196 470 123 426 88 353 c 5
 42 372 l 5
 85 463 176 520 280 520 c 4
 425 520 544 409 544 251 c 4
 544 93 425 -18 280 -18 c 4
 174 -18 82 41 40 135 c 5
 86 154 l 5
 120 78 194 32 280 32 c 4
 398 32 494 121 494 251 c 4
EndSplineSet
EndChar

StartChar: uni044E
Encoding: 1102 1102 623
Width: 868
Flags: HW
LayerCount: 2
Fore
SplineSet
340 251 m 0
 340 381 439 470 559 470 c 0
 679 470 778 381 778 251 c 0
 778 121 679 32 559 32 c 0
 439 32 340 121 340 251 c 0
290 251 m 0
 290 93 411 -18 559 -18 c 0
 707 -18 828 93 828 251 c 0
 828 409 707 520 559 520 c 0
 411 520 290 409 290 251 c 0
310 275 m 1
 110 275 l 1
 110 500 l 1
 60 500 l 1
 60 0 l 1
 110 0 l 1
 110 227 l 1
 310 227 l 1
 310 275 l 1
EndSplineSet
EndChar

StartChar: uni044F
Encoding: 1103 1103 624
Width: 538
Flags: HW
LayerCount: 2
Fore
SplineSet
214 241 m 2
 428 241 l 1
 428 452 l 1
 214 452 l 2
 143.261744966 452 90 406.9375 90 349 c 0
 90 286.774834437 143.261744966 241 214 241 c 2
270 193 m 1
 109 0 l 1
 40 0 l 1
 204 193 l 1
 110.13836478 193 40 262.291895769 40 349 c 0
 40 433.9375 110.285714286 500 204 500 c 2
 478 500 l 1
 478 0 l 1
 428 0 l 1
 428 193 l 1
 270 193 l 1
EndSplineSet
EndChar

StartChar: uni0452
Encoding: 1106 1106 627
Width: 528
Flags: HW
LayerCount: 2
Fore
SplineSet
60 0 m 1
 60 616 l 1
 0 616 l 1
 0 663 l 1
 60 663 l 1
 60 750 l 1
 110 750 l 1
 110 663 l 1
 382 663 l 1
 382 616 l 1
 110 616 l 1
 110 0 l 1
 60 0 l 1
418 -1.17302001446e-14 m 0
 418 0 418 303 418 303 c 2
 418 404 356 461 273 461 c 0
 183 461 110 390 110 303 c 1
 72 303 l 1
 72 413 163 511 283 511 c 0
 386 511 468 429 468 313 c 2
 468 -14 l 2
 468 -88 414 -155 330 -155 c 2
 251 -155 l 1
 251 -107 l 1
 320 -107 l 2
 386 -107 418 -59 418 -1.17302001446e-14 c 0
EndSplineSet
EndChar

StartChar: uni0454
Encoding: 1108 1108 629
Width: 584
Flags: HW
LayerCount: 2
Fore
SplineSet
390 276 m 5
 390 229 l 5
 68 229 l 5
 68 276 l 5
 390 276 l 5
90 251 m 4
 90 121 186 32 304 32 c 4
 388 32 461 76 496 149 c 5
 542 130 l 5
 499 39 408 -18 304 -18 c 4
 159 -18 40 93 40 251 c 4
 40 409 159 520 304 520 c 4
 410 520 502 461 544 367 c 5
 498 348 l 5
 464 424 390 470 304 470 c 4
 186 470 90 381 90 251 c 4
EndSplineSet
EndChar

StartChar: uni0455
Encoding: 1109 1109 630
Width: 434
Flags: HW
AnchorPoint: "Bottom1" 234 0 basechar 0
AnchorPoint: "Top1" 222 568 basechar 0
LayerCount: 2
Fore
SplineSet
208 231 m 0
 96.7142857143 254 44 300 44 372 c 0
 44 452 112.282208589 513 203 513 c 0
 285.240837696 513 359.64921466 462 390 380 c 1
 344 361 l 1
 319.694444444 424 267.194444444 463 204 463 c 0
 141.280701754 463 94 425 94 374 c 0
 94 327 131.790697674 300 219 281 c 0
 336 256 394 206 394 131 c 0
 394 50 325 -11 231 -11 c 0
 147 -11 71 40 40 122 c 1
 86 141 l 1
 111 78 165 39 230 39 c 0
 295 39 344 78 344 130 c 0
 344 181 301 212 208 231 c 0
EndSplineSet
EndChar

StartChar: uni0456
Encoding: 1110 1110 631
Width: 170
Flags: HW
LayerCount: 2
Fore
SplineSet
46 631 m 4
 46 653 63 670 85 670 c 4
 107 670 124 653 124 631 c 4
 124 609 107 592 85 592 c 4
 63 592 46 609 46 631 c 4
60 0 m 5
 60 500 l 5
 110 500 l 5
 110 0 l 5
 60 0 l 5
EndSplineSet
EndChar

StartChar: uni0458
Encoding: 1112 1112 633
Width: 170
Flags: HW
LayerCount: 2
Fore
SplineSet
46 631 m 4
 46 653 63 670 85 670 c 4
 107 670 124 653 124 631 c 4
 124 609 107 592 85 592 c 4
 63 592 46 609 46 631 c 4
-18 -122 m 6
 34 -122 60 -83 60 -35 c 4
 60 500 l 5
 110 500 l 5
 110 -49 l 4
 110 -112 64 -170 -8 -170 c 6
 -37 -170 l 5
 -37 -122 l 5
 -18 -122 l 6
EndSplineSet
EndChar

StartChar: uni0459
Encoding: 1113 1113 634
Width: 920
Flags: HW
LayerCount: 2
Fore
SplineSet
54 48 m 2
 35 48 l 1
 35 0 l 1
 64 0 l 2
 148.20342628 -1.03116050836e-14 202 67.5867709015 202 141 c 2
 202 452 l 1
 432 452 l 1
 432 0 l 1
 721 0 l 2
 806.142857143 0 870 59.5 870 136 c 0
 870 214.370786517 806.27672956 277 721 277 c 2
 482 277 l 1
 482 500 l 1
 152 500 l 1
 152 155 l 2
 152 95.9652418392 119.333548881 48 54 48 c 2
711 229 m 2
 773.181208054 229 820 189.582781457 820 136 c 0
 820 86.5 773.181208054 48 711 48 c 2
 482 48 l 1
 482 229 l 1
 711 229 l 2
EndSplineSet
EndChar

StartChar: uni045A
Encoding: 1114 1114 635
Width: 808
Flags: HW
LayerCount: 2
Fore
SplineSet
599 229 m 2
 661.181208054 229 708 189.582781457 708 136 c 0
 708 86.5 661.181208054 48 599 48 c 2
 400 48 l 1
 400 229 l 1
 599 229 l 2
609 277 m 6
 400 277 l 5
 400 500 l 5
 350 500 l 5
 350 0 l 5
 609 0 l 6
 694.142857143 -1.04222186437e-14 758 59.5 758 136 c 4
 758 214.370786517 694.27672956 277 609 277 c 6
360 277 m 1
 110 277 l 1
 110 500 l 1
 60 500 l 1
 60 0 l 1
 110 0 l 1
 110 229 l 1
 360 229 l 1
 360 277 l 1
EndSplineSet
EndChar

StartChar: uni045B
Encoding: 1115 1115 636
Width: 528
Flags: HW
LayerCount: 2
Fore
SplineSet
60 0 m 1
 60 616 l 1
 0 616 l 1
 0 663 l 1
 60 663 l 1
 60 750 l 1
 110 750 l 1
 110 663 l 1
 382 663 l 1
 382 616 l 1
 110 616 l 1
 110 0 l 1
 60 0 l 1
418 0 m 1
 418 303 l 2
 418 404 356 461 273 461 c 0
 183 461 110 390 110 303 c 1
 72 303 l 1
 72 413 163 511 283 511 c 0
 386 511 468 429 468 313 c 2
 468 0 l 1
 418 0 l 1
EndSplineSet
EndChar

StartChar: uni045F
Encoding: 1119 1119 640
Width: 530
Flags: HW
LayerCount: 2
Fore
SplineSet
60 0 m 1
 60 500 l 1
 110 500 l 1
 110 48 l 1
 420 48 l 1
 420 500 l 1
 470 500 l 1
 470 0 l 1
 295 0 l 1
 295 -165 l 1
 245 -165 l 1
 245 0 l 1
 60 0 l 1
EndSplineSet
EndChar

StartChar: Euro
Encoding: 8364 8364 641
Width: 838
Flags: HW
LayerCount: 2
Fore
SplineSet
552 298 m 1
 552 251 l 1
 30 251 l 1
 30 298 l 1
 552 298 l 1
552 468 m 1
 552 421 l 1
 30 421 l 1
 30 468 l 1
 552 468 l 1
120 351 m 0
 120 567 276.515320334 720 469 720 c 0
 610.628742515 720 733.826347305 638 793 507 c 1
 748 487 l 1
 696.833910035 600 590.640138408 670 469 670 c 0
 305.469255663 670 170 540 170 351 c 0
 170 162 305.469255663 32 469 32 c 0
 593.597269625 32 701.774744027 106 752 224 c 1
 798 205 l 1
 740.740412979 69 614.575221239 -18 469 -18 c 0
 276.515320334 -18 120 135 120 351 c 0
EndSplineSet
EndChar

StartChar: dong
Encoding: 8363 8363 642
Width: 668
Flags: HW
LayerCount: 2
Fore
SplineSet
642 -90 m 1
 642 -137 l 1
 30 -137 l 1
 30 -90 l 1
 642 -90 l 1
561 251 m 0
 561 93 446 -18 305 -18 c 0
 159 -18 40 93 40 251 c 0
 40 409 159 520 305 520 c 0
 446 520 561 409 561 251 c 0
528 251 m 0
 528 381 429 470 309 470 c 0
 189 470 90 381 90 251 c 0
 90 121 189 32 309 32 c 0
 429 32 528 121 528 251 c 0
578 0 m 1
 528 0 l 1
 528 616 l 1
 286 616 l 1
 286 663 l 1
 528 663 l 1
 528 750 l 1
 578 750 l 1
 578 663 l 1
 668 663 l 1
 668 616 l 1
 578 616 l 1
 578 0 l 1
EndSplineSet
EndChar

StartChar: uni20B4
Encoding: 8372 8372 643
Width: 574
Flags: HW
LayerCount: 2
Fore
SplineSet
532 308 m 1
 532 261 l 1
 158 261 l 1
 125.724137931 235 110 202 110 166.43907982 c 0
 110 91.4084507042 180 39 273.080186139 39 c 0
 371 39 451 97 489 194 c 1
 534 172 l 1
 492 61 389 -11 270.080862719 -11 c 0
 150 -11 60 62.4136125654 60 162.466024647 c 0
 60 199 72 232 95 261 c 1
 30 261 l 1
 30 308 l 1
 532 308 l 1
474 448 m 1
 532 448 l 1
 532 401 l 1
 30 401 l 1
 30 448 l 1
 413 448 l 1
 441.137254902 473 454 505 454 538.839198467 c 0
 454 614.321167883 390 663 301.776660469 663 c 0
 208 663 129 608 93 519 c 1
 50 540 l 1
 90 645 189 713 302.543297324 713 c 0
 419 713 504 641.465608466 504 541.34208517 c 0
 504 507 494 475 474 448 c 1
EndSplineSet
EndChar

StartChar: uni20B8
Encoding: 8376 8376 644
Width: 590
Flags: HW
LayerCount: 2
Fore
SplineSet
30 652 m 1
 30 700 l 1
 560 700 l 1
 560 652 l 1
 30 652 l 1
560 570 m 1
 560 522 l 1
 320 522 l 1
 320 0 l 1
 270 0 l 1
 270 522 l 1
 30 522 l 1
 30 570 l 1
 560 570 l 1
EndSplineSet
EndChar

StartChar: uni20BD
Encoding: 8381 8381 645
Width: 618
Flags: HW
LayerCount: 2
Fore
SplineSet
389 332 m 2
 180 332 l 1
 180 230 l 1
 322 230 l 1
 322 183 l 1
 180 183 l 1
 180 0 l 1
 130 0 l 1
 130 183 l 1
 30 183 l 1
 30 230 l 1
 130 230 l 1
 130 333 l 1
 30 333 l 1
 30 380 l 1
 130 380 l 1
 130 700 l 1
 399 700 l 2
 507.338912134 700 588 622.117117117 588 518 c 0
 588 414.300884956 500.088353414 332 389 332 c 2
389 652 m 2
 180 652 l 1
 180 380 l 1
 389 380 l 2
 473.608040201 380 538 439.696629213 538 518 c 0
 538 595.011494253 474.35678392 652 389 652 c 2
EndSplineSet
EndChar

StartChar: approxequal
Encoding: 8776 8776 646
Width: 464
Flags: HW
LayerCount: 2
Fore
SplineSet
158 258 m 4
 113 258 76 216 60 148 c 5
 104 130 l 5
 113 177 133 206 157 206 c 4
 176 206 188 200 217 169 c 4
 249 135 272 124 305 124 c 4
 351 124 389 165 404 234 c 5
 360 252 l 5
 350 206 329 179 302 179 c 4
 281 179 270 186 242 215 c 4
 211 247 190 258 158 258 c 4
158 418 m 4
 113 418 76 376 60 308 c 5
 104 290 l 5
 113 337 133 366 157 366 c 4
 176 366 188 360 217 329 c 4
 249 295 272 284 305 284 c 4
 351 284 389 325 404 394 c 5
 360 412 l 5
 350 366 329 339 302 339 c 4
 281 339 270 346 242 375 c 4
 211 407 190 418 158 418 c 4
EndSplineSet
EndChar

StartChar: notequal
Encoding: 8800 8800 647
Width: 352
Flags: HW
LayerCount: 2
Fore
SplineSet
107 10 m 5
 50 10 l 5
 255 510 l 5
 312 510 l 5
 107 10 l 5
322 208 m 1
 322 161 l 1
 30 161 l 1
 30 208 l 1
 322 208 l 1
322 378 m 1
 322 331 l 1
 30 331 l 1
 30 378 l 1
 322 378 l 1
EndSplineSet
EndChar

StartChar: lessequal
Encoding: 8804 8804 648
Width: 500
Flags: HW
LayerCount: 2
Fore
SplineSet
460 10 m 5
 460 -37 l 5
 30 -37 l 5
 30 10 l 5
 460 10 l 5
460 121 m 1
 460 65 l 1
 40 238 l 1
 40 302 l 1
 460 475 l 1
 460 419 l 1
 92 270 l 1
 460 121 l 1
EndSplineSet
EndChar

StartChar: greaterequal
Encoding: 8805 8805 649
Width: 500
Flags: HW
LayerCount: 2
Fore
SplineSet
460 10 m 5
 460 -37 l 5
 30 -37 l 5
 30 10 l 5
 460 10 l 5
40 419 m 5
 40 475 l 5
 460 302 l 5
 460 238 l 5
 40 65 l 5
 40 121 l 5
 408 270 l 5
 40 419 l 5
EndSplineSet
EndChar

StartChar: filledbox
Encoding: 9632 9632 650
Width: 820
Flags: HW
LayerCount: 2
Fore
SplineSet
60 700 m 5
 760 700 l 5
 760 0 l 5
 60 0 l 5
 60 700 l 5
EndSplineSet
EndChar

StartChar: H22073
Encoding: 9633 9633 651
Width: 820
Flags: HW
LayerCount: 2
Fore
SplineSet
110 650 m 1
 110 50 l 1
 710 50 l 1
 710 650 l 1
 110 650 l 1
60 700 m 1
 760 700 l 1
 760 0 l 1
 60 0 l 1
 60 700 l 1
EndSplineSet
EndChar

StartChar: H18543
Encoding: 9642 9642 652
Width: 520
Flags: HW
LayerCount: 2
Fore
SplineSet
60 570 m 5
 460 570 l 5
 460 170 l 5
 60 170 l 5
 60 570 l 5
EndSplineSet
EndChar

StartChar: H18551
Encoding: 9643 9643 653
Width: 520
Flags: HW
LayerCount: 2
Fore
SplineSet
110 520 m 1
 110 220 l 1
 410 220 l 1
 410 520 l 1
 110 520 l 1
60 570 m 1
 460 570 l 1
 460 170 l 1
 60 170 l 1
 60 570 l 1
EndSplineSet
EndChar

StartChar: triagup
Encoding: 9650 9650 654
Width: 820
Flags: HW
LayerCount: 2
Fore
SplineSet
410 700 m 1
 760 0 l 1
 60 0 l 1
 410 700 l 1
EndSplineSet
EndChar

StartChar: uni25B3
Encoding: 9651 9651 655
Width: 820
Flags: HW
LayerCount: 2
Fore
SplineSet
410 700 m 1
 760 0 l 1
 60 0 l 1
 410 700 l 1
410 583 m 1
 147 50 l 1
 673 50 l 1
 410 583 l 1
EndSplineSet
EndChar

StartChar: uni25B6
Encoding: 9654 9654 656
Width: 820
Flags: HW
LayerCount: 2
Fore
SplineSet
760 350 m 1
 60 0 l 1
 60 700 l 1
 760 350 l 1
EndSplineSet
EndChar

StartChar: uni25B7
Encoding: 9655 9655 657
Width: 820
Flags: HW
LayerCount: 2
Fore
SplineSet
760 350 m 1
 60 0 l 1
 60 700 l 1
 760 350 l 1
643 350 m 1
 110 613 l 1
 110 87 l 1
 643 350 l 1
EndSplineSet
EndChar

StartChar: triagdn
Encoding: 9660 9660 658
Width: 820
Flags: HW
LayerCount: 2
Fore
SplineSet
410 0 m 1
 60 700 l 1
 760 700 l 1
 410 0 l 1
EndSplineSet
EndChar

StartChar: uni25BD
Encoding: 9661 9661 659
Width: 820
Flags: HW
LayerCount: 2
Fore
SplineSet
410 0 m 1
 60 700 l 1
 760 700 l 1
 410 0 l 1
410 117 m 1
 673 650 l 1
 147 650 l 1
 410 117 l 1
EndSplineSet
EndChar

StartChar: uni25C0
Encoding: 9664 9664 660
Width: 820
Flags: HW
LayerCount: 2
Fore
SplineSet
60 350 m 1
 760 700 l 1
 760 0 l 1
 60 350 l 1
EndSplineSet
EndChar

StartChar: uni25C1
Encoding: 9665 9665 661
Width: 820
Flags: HW
LayerCount: 2
Fore
SplineSet
60 350 m 1
 760 700 l 1
 760 0 l 1
 60 350 l 1
177 350 m 1
 710 87 l 1
 710 613 l 1
 177 350 l 1
EndSplineSet
EndChar

StartChar: uni25C6
Encoding: 9670 9670 662
Width: 820
Flags: HW
LayerCount: 2
Fore
SplineSet
53 350 m 1
 410 707 l 1
 767 350 l 1
 410 -7 l 1
 53 350 l 1
EndSplineSet
EndChar

StartChar: uni25C7
Encoding: 9671 9671 663
Width: 820
Flags: HW
LayerCount: 2
Fore
SplineSet
133 350 m 1
 410 73 l 1
 687 350 l 1
 410 627 l 1
 133 350 l 1
53 350 m 1
 410 707 l 1
 767 350 l 1
 410 -7 l 1
 53 350 l 1
EndSplineSet
EndChar

StartChar: lozenge
Encoding: 9674 9674 664
Width: 620
Flags: HW
LayerCount: 2
Fore
SplineSet
123 350 m 1
 310 63 l 1
 497 350 l 1
 310 637 l 1
 123 350 l 1
53 350 m 1
 285 707 l 1
 335 707 l 1
 567 350 l 1
 335 -7 l 1
 285 -7 l 1
 53 350 l 1
EndSplineSet
EndChar

StartChar: H18533
Encoding: 9679 9679 665
Width: 820
Flags: HW
LayerCount: 2
Fore
SplineSet
53 350 m 28
 53 547 213 707 410 707 c 28
 607 707 767 547 767 350 c 28
 767 153 607 -7 410 -7 c 28
 213 -7 53 153 53 350 c 28
EndSplineSet
EndChar

StartChar: circle
Encoding: 9675 9675 666
Width: 820
Flags: HW
LayerCount: 2
Fore
SplineSet
123 350 m 24
 123 191.476534296 251.476534296 63 410 63 c 28
 568.523465704 63 697 191.476534296 697 350 c 24
 697 508.523465704 568.523465704 637 410 637 c 24
 251.476534296 637 123 508.523465704 123 350 c 24
53 350 m 24
 53 547 213 707 410 707 c 24
 607 707 767 547 767 350 c 24
 767 153 607 -7 410 -7 c 24
 213 -7 53 153 53 350 c 24
EndSplineSet
EndChar

StartChar: minute
Encoding: 8242 8242 667
Width: 170
Flags: HW
LayerCount: 2
Fore
SplineSet
87 750 m 5
 137 737 l 5
 78 516 l 5
 33 527 l 5
 87 750 l 5
EndSplineSet
EndChar

StartChar: second
Encoding: 8243 8243 668
Width: 290
Flags: HW
LayerCount: 2
Fore
SplineSet
207 750 m 5
 257 737 l 5
 198 516 l 5
 153 527 l 5
 207 750 l 5
87 750 m 1
 137 737 l 1
 78 516 l 1
 33 527 l 1
 87 750 l 1
EndSplineSet
EndChar

StartChar: uni2034
Encoding: 8244 8244 669
Width: 410
Flags: HW
LayerCount: 2
Fore
SplineSet
327 750 m 5
 377 737 l 5
 318 516 l 5
 273 527 l 5
 327 750 l 5
207 750 m 1
 257 737 l 1
 198 516 l 1
 153 527 l 1
 207 750 l 1
87 750 m 1
 137 737 l 1
 78 516 l 1
 33 527 l 1
 87 750 l 1
EndSplineSet
EndChar

StartChar: uni2035
Encoding: 8245 8245 670
Width: 170
Flags: HW
LayerCount: 2
Fore
SplineSet
83 750 m 5
 137 527 l 5
 92 516 l 5
 33 737 l 5
 83 750 l 5
EndSplineSet
EndChar

StartChar: uni2036
Encoding: 8246 8246 671
Width: 290
Flags: HW
LayerCount: 2
Fore
SplineSet
83 750 m 5
 137 527 l 5
 92 516 l 5
 33 737 l 5
 83 750 l 5
203 750 m 1
 257 527 l 1
 212 516 l 1
 153 737 l 1
 203 750 l 1
EndSplineSet
EndChar

StartChar: uni2037
Encoding: 8247 8247 672
Width: 410
Flags: HW
LayerCount: 2
Fore
SplineSet
83 750 m 5
 137 527 l 5
 92 516 l 5
 33 737 l 5
 83 750 l 5
203 750 m 1
 257 527 l 1
 212 516 l 1
 153 737 l 1
 203 750 l 1
323 750 m 1
 377 527 l 1
 332 516 l 1
 273 737 l 1
 323 750 l 1
EndSplineSet
EndChar

StartChar: uni2023
Encoding: 8227 8227 673
Width: 170
Flags: HW
LayerCount: 2
Fore
SplineSet
45 358 m 17
 134 289 l 1
 45 220 l 13
 45 358 l 17
EndSplineSet
EndChar
